<mxfile host="app.diagrams.net" modified="2023-03-28T07:28:40.073Z" agent="Mozilla/5.0 (Windows NT 10.0; Win64; x64) AppleWebKit/537.36 (KHTML, like Gecko) Chrome/111.0.0.0 Safari/537.36" etag="-AKFCYmcPrNsMtT4YFDR" version="21.1.1" type="device">
  <diagram name="Страница 1" id="T67ComtfsymwQmv4cdJz">
    <mxGraphModel dx="2333" dy="1220" grid="1" gridSize="10" guides="1" tooltips="1" connect="1" arrows="1" fold="1" page="1" pageScale="1" pageWidth="827" pageHeight="1169" math="0" shadow="0">
      <root>
        <mxCell id="0" />
        <mxCell id="1" parent="0" />
        <mxCell id="C-VpQ8A-bRvzqyEVXN-c-1" value="" style="shape=mxgraph.cisco.hubs_and_gateways.hub;sketch=0;html=1;pointerEvents=1;dashed=0;fillColor=#036897;strokeColor=#ffffff;strokeWidth=2;verticalLabelPosition=bottom;verticalAlign=top;align=center;outlineConnect=0;" vertex="1" parent="1">
          <mxGeometry x="380" y="260" width="66" height="58" as="geometry" />
        </mxCell>
        <mxCell id="C-VpQ8A-bRvzqyEVXN-c-2" value="" style="shape=image;verticalLabelPosition=bottom;labelBackgroundColor=default;verticalAlign=top;aspect=fixed;imageAspect=0;image=data:image/png,iVBORw0KGgoAAAANSUhEUgAAAbYAAAD2CAYAAAC6JqKoAAAAAXNSR0IArs4c6QAAAARnQU1BAACxjwv8YQUAAAAJcEhZcwAADsMAAA7DAcdvqGQAAP+lSURBVHhe7P0FnF7HlSaMPy9TM4uZJQsss8wYx4kTJ3YcByYZhh3coZ2d79vdzM7v/83uZHZmB8MTmDjmJHYcx8woS7Ykiyxmau6X6f88577V/arV7Vi2yEqft0/fe+vWLTh16kBV3bq+MgFjMAZjMAZjMAZnCfgrxzEYgzEYgzEYg7MCxhTbGIzBGIzBGJxVMKbYxmAMxmAMxuCsgjHFNgZjMAZjMAZnFYwptjEYgzEYgzE4q+CYVZGlUsmOPp/PjoVCAX6/366F7lrooFgsIhAIVK5OPig/l7/KpCqoXMFgcDBMcCIWfLp6Ky2Xnkv/eGGk55SmaK57Ojo6urD3mtc7gfJUuvl83mima9FU5y5PXbtzd180V/ncc9WQzWYRDoftXM98UCGTySAajVauvLq4dh8J3L1qWgmqwwWij2gndLQ+U0Fld3Vx5c/lcoPtOxJU979qULjjacdT7vqdQHkLXZ/Qc042VcueMwlUXldHnTs5Wd2vXZ0cOPoq3IHCHCo93dPz6XQaoVBoMC337JkGqp/KXE0Dnb9TeV386meq5Yye1T0H1XpopHSPUWy6VMFcZB0HBgYsAxFZDK6jOn88HreETyWofMpf+eooUBkd848Ew6r4vmG0fN4LuLIpTTWWrsW8JxqUrkPXZmKc/v5+o6MTWmpTCWGhyhSJRJBIJI6qs+I7fhCvVAs012lPNV+cCKgWzjoX6HokRe7AtZ/A0ciFuTZ14eLRavqf6eDK6vhyNBoIdF9tn0wmTUboWjwl/hH9XJhQsiMWi9lz1XxVDcpXqGd1VDyhnh/tmTMFXB9QWQW6Vp9218cD6mOuzqKDrt258EwFlblaPrhy/zw5rfi6L1TbHzlyxJ4RH4mfFFZXV1d5wuOfkdIb8T02MbIjohI9cOCAJXr48GG8/fbb2Lt3L+bOnYvly5dbhoJ3YvoTCSquK7LKJ4ZxQkhlFbiKunju/vGAe9YRrjrfd7JcjxfUkKK1yugaXUJA9DzRjKu0HePouHv3bjzxxBMmZGbNmmXhU6ZMsfAtW7agr68Pl1xyCaZNm2btrPo7Wjj+GJ6uwl28Dxq4thD9Ba4+rm1GAj3jwNXZ8YmuhU44i4YyGMSzuj5TYXj7ClR/18YjgeKqbuKbVatWWfz58+ejubkZvb299tz27duxb98+kxtCwUjpKX8ne0R7Jxh1dG10JoLK7dDxi+qnMgsVLnBHgat/dZigOlxpyWCQQaCjDM2TYfyeKFBdXXs5vlE9XNu9U5sLFEdxpW9++tOfWl2nTp2KiRMnGo9J9whcHiOlF/jvhMr5IChRRdaDOvb09FgCEyZMsM6p4Zqmpia0trYOJjxS4icLJChUWeWpiop41YzkwJ3rqPsi2PGiS7s67L3WdaTn1KCu0d19x8wnGpSH2lRH5aH8pLwkgGbOnGnW0fTp09HS0mLKTnRuaGgwC8mVUfUXON5QOV3ZFUft4ej0QQOngCRMZby4OonHXZ2Go+LoOJxPFC5QmGjljq5t3f0zEaTYVUa1q0BlTaVSRofRQM+oTyqehsxmz56NefPmGR1VZ/FVbW2t8YeO4jHBSHRQfEE1v+nc0fdMBccLOqoOjo6ujo43jgeVjqOH6Cvl5vrbSLQ7E8CVTeVWWR1vOP4XuHo5FFTTSn1Q4bt27cKcOXOwePFi0zlSdjo6EI1GosOIc2wKqiZqZ2enMasSFKM6oitBVwBdnwoQcdS46kDKX4pWFuJ3vvMd/MVf/MUxlXR1eK+g9ITV6byfuro0XHrygNXZr7zySmtYgfKTkHXnJwqc9esElPJ3CkrMt3XrVvPcxIS6p/i6pzZ3nUlHl46uhYqr4/r1680qFxM6T/6DBI899hguu+wyM+AEoo2jleo3EqjugmpaCHQUrRy9BN/73vdw7bXXGm1cW5+JoPIKxQcqvwzZxx9/HF/84hdH5X3HH7qvcyfUlc6hQ4dMsYnPHT2Vps5HG/2QvFFaSuPBBx/EsmXLLK57/kwEtXk1P6i+L774Im699VajieojHM4rDhQmqOYdnYuG9913n42eiHeq0zgTQeVW33H8I7nwk5/8BF/60pdMdg+vtwO1te5V10t1V5srvLu72wzxjo6OQYNJ90aiw4hzbBKqYkyBEj548CA2bdpkhRTDKY5LVIVX/FNFZFVe+ekor0JDG3LP165di6997WvHlEPlfC9lc2Q5Uek5cLRzqEZ/9dVXzSsSfUVT0VhzXbp/IsExjlB1EB1FQ+UnEOPU19fbudrdMaHaWKAOpXChGEsdV+koXfGL2kLDBB/+8Ict/vuh06kER+fvfve7VmfVTR1TdVIdXCcdDVw9RR9HX4H4Usag5qhFo40bN0IDJGrnM5k2Kr/qovo7Pvhv/+2/YcmSJVb2kUDhqqNA9NLzQo32qK7y0pSehtFEF/G56OwMuOGgMig9CfKVK1fiz//8z+28Op8zDVRmJwtVN5X1V3/1V3HzzTdbnRVejdW84sIEek7hOorvJBvuuusufOMb37D7oq9o4OKfiaAyqg5qZxnMd9xxB/7oj/7Iyqyw4eDqW92+oqWjo6OrRgE0GiDeEm2U1kh0GNFj279//yBT6/Zrr72G+++/34arJHBdQjq6x4clc9JAFXICVUJZ4/ddXV2W/1e+8pVKrGNhpMq/E7xTfY43reFQTbN169YZbUV3CRDR3QnS95vPuwWVQ3k9//zzdpRlKND5aHRwzzgGFjPKMtezt912m90TCtzxTASV3dXx7rvvNkPDtYPKrXaRQFU9jxecUpB3Ir4Vjf7sz/7M0h2pc58poLqrvAInXP7qr/7KwkZrS9FQNBKt9IzoJlnx8ssv21HCSPVXuI6ijWC09EQfR3Pl/3u/93uWtuCd+Omd7p0KUL1UdtVTZZFAlzB+p3I5/hsOLlx0lwy+5557BmkompzJoDKq/KLFmjVr8PnPfx4f//jHK3e9dhK6Orqjo5O7J3S8KCNJ9f71X/914w15bjU1NSPSdkSPTYpDiUm46vqBBx4woSerSfNqIyV0qkCMo0qJYFrRJwvwueeew5/8yZ/gQx/6UCXWsXC8ZR5GlqPg/dbfpa2jlMHFF1+M22+/3cLUeVVH0d/hiYB3qo9AXsXv//7v26T+L//yL1vbi86jKVgxru6rowkkvDds2IAf//jHxwit08kvPw9EF0cbKbUvf/nLmDx5stXL1U/330s7SMA7AS2v+A//8A8Hh/PPdJqofVVnnYsGe/bswde//vV3pIMT6qqvnhfK09CIz+/+7u8OKnkZpIojGI0Oopd4T0pWUwyima6d0hgNTiddRSvlL1S5VVZ5qn/wB39gYSr/8YAzEERzjUZpvklpuj7n+PZMhOqyadpIi4pkOKr8jkbC6ni6dlB9TzQQb23evBlf/epX8Td/8zdGS93XcSSePEaxKQG5zWI+gTIQc2o4QNbmaJO+w69PFqiSanB1Eh1VfA2hPf300xY2Ghxv+YaR5Sh4L3WtTq/6XGnJotMchOqmhlfnV0dWg50ouirP0eqkPIS33HKLDZt87nOfMz5QBxqtDErLCX7FEfOqPVavXm3tUf3MaOenA4bToJouor3m2NwwsOqlMAmp4xVKDkQjN5/01FNPDRqNZzKo7cV/qrfoIGNLfeuaa645hn4OFK74zqsSX+j629/+tvGDPC6B6KD6v5NyEohuSlM8pXkqKToX5gT7SHA6+UtlU71UBld/jXItWLDA2v145ZMT6OI9zV2rbykNhSn+mcxHjk9URo2qzZgxA+ecc47RxaGrs46Odg5cmDtXnbWW4s4778Q//MM/WFzdFz+5dKphRI9t27ZtpsDEpCLqvffea/NATrGNlNCpBFVKTCPiOMtOHVHXHwSoJrnOnSJzje0Y91TX56abbsINN9yA3/qt3zIh4gT7aKA4KqfiufgSRDpWl/1088s7gehf3R56tWXcuHFWHydUXB2PF2Qgql1FE6Ulhal0lN+ZzKsqn8qsMkogiwd0LpqoPqOBnqtua6fYtNpWIyquzkpHMBpvKR3RTvJH+bs8Fa7zM5mfVDfRzpXZ1VVlfqe+NBqIhu5Z1V/8I/n3XvjxVIPo4EBlrq6/yj+8HYfzj0BhDjSs/a1vfQv/+I//aPGUphT98GcEI1JHLq+GZQR6WMylQqqRHCpcmeooPFWghla+YnoRSq6+zhX2Tni8MFIaDk8UuPTkHasu6syitQSAE4AnCpSWa6vhKKGr9pXRorx17so2GuieYy6VWefiC3XoE132UwWqi8btZSypTlJqqkt1Bz0ekCJTmjpqyFzpKD3hmQ7iCZVTvKk21bUT1iOB4xeh6il0ckK8If52fKUwHZVm9XMOBaKX8tccijMunDc40jMOTycof9VJ5ZSxqvq6vuz6ymg4vB5C0U/Pi+6OdxR2poNo4EYpBKq7yq+jQHUbXu+RaOGu1RdVb8cTood4QjgaHNPDHANpQYYSVEKugwtFaNdY1ajnTgVWV0aVVoVFSMFI8d8N8l8F7c/DSli5Cr34FjyEFr/yG+GmO6064eFotDoUC0jUJAaZwTHw8LjvFavbbjg6mkqgu2vFdzBaeu6o+GJEPas2GR53EKt+DFDK3jlR9C0RjdYu1CflKRy5DEL+MxzpXvVPeTDwqPbUtYsryGU9o0n1kTJycFSax4FqQ9c5Bc4AOype9Y/XPAxDFz6EQ7/BKHZSrmB1XNHU0VWRhv+q4w6GEaTQ1K+ETiipPoPlHobV4HhIAkjn4hHVW6C4ChOfOx4aCRVf+TlUmOvvg3EqyIvBMCt+BYcuh+5XI/8NplGdlnD4z4UP3h8ep3JL9RLN1Naqp8qrcut8NByNDgJHB9FSR8U9Nv7w4lXC7cdr61GkP/vSEPJP6Ogzyq8qUS/NKlRYNbo8Xb1Ub0cPZ+QpXGHC4XV319WoMEdLOTUuPaHujwbH3BEhNR6qeR8lpgxHSsAqdppA5XJHVVSdSOgINBKOCGxf9TeJHYof/pcyIZaKKBfLyPFmiiF95RKSVDwFhvt4rjilYh6lAlEeZJFPGwPzDtNTKrQ7LE2ypV1led870z+Wh+jTsUza+nnkgd3WnvL7qCwCVC4KZHqnAkRLtb1Dtbk606i0q4DuOyZ018NxEFR52iCO5uWyoxQgn6iP9E3xZkECjIxbKmRQLuUYhXRxSPorfonxioxn6YyABSZt+TACk2Jcr23yQt4XVswh+MtCvzdUSNqr/gJXL3Ws9wJ6VmmKBo6mBrrmwbJRBYhiK3X8EmlCM4e/PHKFHMutejMi/wrkoYIqpmdyrIEqxfulUoF10zN6UuhxnurXT0wquvIQuRUoVBqVg4KPLosuPJ5wPKD+9U7gaOXA0VACyJ0rLXfujtV84lCgtFzeQ3KI50T1uSLLmGeYMMuG1bVoVCzmkCtmjB7GX9bwpIZuW92YuM6JOhUpsjzLEI00XnQvngijY+Xg0Io+eOECFFlK13uR2skoJ5/eCarrXo3uWUeraiiykCUxNAsgmVEUD5TyZiCLT9SGeRpqJVVGcko0KaZZQnrSxJL1gEoFFUf0c3VyyCBHJ8vJy85Q0U3WMZAcaD+VQ4QTFwT8Q++kqR3VnqrPzwPFd+DOXf2VhsJEWyevRoMhTqwCrXzUNkpuAYmgOsPTCa5y7ujO3y8YiYzz2di8UHXF6IeyaU848LpMoVeSwCXzOCvIJ+KqAdnSniqTYNL/CncwTXUweR4KUdrWaeyC+RD9AZbfz+flnQRPz9yLo6dATPNuaKo47jl37q5dWseACC0aWKdinUk3WWLdxCMkjAyJrML5y2TYEdlZPcqpUXggyHI1sGsvQTF5pSkMDfQIsWI3VGJ63dmhByxv5afyS5G5urwfcMJN6QwaXjx35TCoLhDPB5IDKJBfMhTQGda9yLLrVoqaqSiaCqXcJIGp3MrZLHlJ6oyCjEhxTmrxHhVenunobVQhdbfHcxlydU7P89IUqcVWjEoEGVYsJ9GVX2VXHX6eYHLt7tq++tqFCZTOO9G3+hnHi3qGIfCzzGrTFJV+J/tiJ+Mn2cA5VlBK38c+qvKLv3I5clJevVjXDCFjlEgXxyAWZj/VmgpTYSKxTvSYBRANPME9eClwJHPABwPsy67sjm7u+r2C1Z3PO7pZWtagHniqhbzC9jabuRLur8iSXDrJ2ok2amsZQYxL+hXyMspVCaXHQzVWwVGXVfd1UF4emSo3Kge1m+N5nTsaOKyGkcKqofo557G78NHg/fXcswEqDXE0hwK79u7D2s1b8LW77sa9Tz2Bzfv24UgqjYE8vbcclRuJKqslJ0XH+Hkes5kM01LHI/EVah2IqOtCCqVML8q5tHl9phDlPtCy9EzpSlyCxyhnL0jAyCuTMpJwTaazeO7VV/F//u3f8B8P/xQHkzQmMrTK/TFkfEFk2YkHaH0OpDMkmSdgcvkMBZk6JkW50DwbopQe0e+jz5NLoUj007v20WplYyHARgswX9oR6s4erXliaKU7+eBa2qHAuigvYtGY2dRdVHAr31qP/++f/gX/+v17cTg9gAMDGXq0PtKEBlZIc1asI+tSpLAzq9n4TnVjQqSJn0ovQSEWK+cQIp9JsJmaNCOKTzC+5zXTgie9FOZU45kK5VIAh/cexFPPv4gvf+eb+PGqldjY14cj5IUchXQpSUWfzsHHc384hFIkgKw/T8+O/ES/jGYUE+F90iVAmoTIT5EK6jrI4zDTg6c8Z7jRTvTS9TDwQkYXtCca5L1KsEuhmFFHvrZRDF5n2ad62X/6Mln0DvTbyFOZfONnX/KX6e2UeYRem9BCFJZdxVZarh9QK+jocUGFn4QSeJVzyS8nx2xk0x60B84IGFGxVWvEkc7PClAjqEF4cMgKEkkSHtsnTEDj+IlYfNEl6KSF+y93349vP/I4tvcmkQ1GTMlJyPi1k0KGApStG6KwkUUpNOHJDMR6spbCoSKixGCY7OKjIJFCC5AxaFR5SlDIP6Zp/MGiiFfOKlAPsNpVOiEVkIZUiv4g5i1dhhXXXk9al/Dlr38bT65ag33smP0I4UBvPwp+dshYTKKFQriy602APMkQQwluE+yKIYGdQzhKJRZhp/ZTkAWKjM/nJMyYb1Dtw6Ko8xbZ5JSXgx36VIDyNVlQlZ/Ik6fnms3kEY3XY8rcBbj21k/B19aG//Yv38Ddjz2BLYcPo5OWdr8s7Zq4Ju7o4UkVSeF7ikoCR8IoQowxvRgVYMAWbhBjARSD8u5kkKkt5Kt4Rym3kp9pnLF8R6+Mda9tacLyKy7Hoosuxutvv41//O5/4P4nn8NherC5CHkkGkeWHSvD+GnWLcc2L1ChFancIJQ7Jjqxn4oPAjyXUvPLKKKChAwhZ/kYz9JQEjIeVUGFXrrn0BHsFBLO5S1gcWzkg8ZbigotzfY+1NePNJksWFsPf20DUnT9i0UyeZ7eUyGEgD9KTypCI5Ph4h8ZO+L/Sj+wPkFUXf2iTcnrX55i93jMMxC9fqThfJ8elPwcxRM/lXBMCUZSXmeVQhsBVLtqQkgVpQolCtQBRBuacMX1N2DJ5Vdh3YEufOcnj+GlDZvRw/bNULgOqGG10IBuf54dQk+rsb0hSjKHkKEa95bw1CCl5k/YBSmsNTAg8eIpQHvA8OwEr3YUDCI2iW5zZOwQgWgE+7p6UKJAWn7lZZiyZAnue/olfPvBR7F6y3b4EjXIh0I0JErsrKSXPBb+ChJATNFDJemd65ctyUrXAI3mRjVIJ4XHvOXNqVPK+FDjEHTHjTydClCuymt4fpKh0XCMciFkc0frd+7Gtp5ezL3iYlzy8Zux8eBh/Pi5l7F25y7sS6fQU6CCCoZoIIUR8IVpgwdlK1kdxXhS+3RWWN+A8WGeRMrQGBgg/TW0XrBhLT/Ilsb/GgqX0XCm8qAUbikewUA0jMdefx31zW341Cc/hQtXXIZX1m3Awy+/hpV7d2NXLoNu1iGnWkk60wjwfp63L4/DMyR5NGUmg4i0CgSYh0ZiPOXunjKeNWNBvOPx2iAMXujkqDsnFypZyVNiK9p5kfVIZjPYc+gQfvjo47j/sSfx6sYtGOD9PJVYyUeFRvRT6RdJEym0Mj0/1zs07F3Nl0O1ET8o1GJVUDSpKDbeGozrToYePi0w4u7+w70zLf3Xp2pWrFgxOBk+XNkNv/7AANvMhmisQ6s9JBr9SPG4cvsufPtnT2AXrZ/miVMwd94c1EYCWLPxbWzeSobJZm0nCV+IVpCGBiw9piWG4ak3NMB+wxsZHov+MDLlEDL0UMqBEO+RqdRhzPNQESjkafXI8rFr+0c8RaD3FTW3eu6559r1CW9TEYX1NQXPpEk1SlTSI+DHgy+9jAdfXomDfUnMXLAQs2dNZ2cM48U167B91w5kiwXbMy8eiZoBIc8kYOWjsGK66nZKUzQtMDxH+vbwGQ1j+tmpfcxH0t0vYac2V3kEeobxVTQJd+HgvZMEFfFKkFDy8rQCKGf+ZXmWpsJ57NWVuPvJF7ArlUPLFPLf/DlWv7Vvb8eba9daueO1NSacRIRQgIpNydAokzcipSVppWHzQjiEAQruI8xZaYNxZSBo0YysbeNZ41v1bVGpMpfzPkEv1Wp1tdumTXlUz60dTx6imRYX9ZFf/uE//gNrd+9DL2nTPn4y5s2bjZ0HDmHD3h3YsGcH0vRemuubEGddCvRWEWbeogmZJEBFr6OMqoKYhsYBfXr0ZnNU/lRuvC6xjGZy+khxosdZAv330FtFaYE8qgHVj1U3F3jywUqivHmiadcsy12OJcj/ARwaSOH19RvRm84gXldLL83jj0DIjzz7goxqf5AtTZfLRo2YjjfKRJ5UO1XOxZwezxpFLC9rN8axoUgvwMIHj+8RRuMHhesdU/FT9V60DofDiIptOJzVis1AjWWShW3ipyzwm5Xz+o49eHjVm9h8pBubdh+gi+/DlGmzMWvmJPRninh93VpseHsLLZ8impqbEBJTibuYlDphnulkSZcUO0uKrv+BbImd7hB2dQ2Q+WoQDAcohP0Iip58KMDnPItQ9GUHcSQ9RaQ9JYpNE9iGIL1CDPKjn+7SMzQWVu7eizd27sPBriSFRgQzF87HXNJ66+79ePOttdi97wAisQgitNrVGYPsvDIeJLg1SJQn/QsagiLuzhWxaucedKUKiNbU0SoNIJvL0yMK08Jk5qJzRSDYMIyVxLN+Tza5xRtGCv2szSsBvKMFM4iE0c+SvLptJ9bsP4yNh3uxdusu9FPpz5g7GwtnTUEuGMVTzz2H9Zs3IZaIIxaNIkKBrPJrla6Sk+dX9AeQpABP0vg6QLq/sf8gjpAOoXCE9Nd8CwU9lZ8UnBXB+C9Aq/7MU2wqX47xj9AzefjV17Dp4BFsOdiFLbsPsj8WcOWKc9HQ3obdXZ14bfVqbCP9mmrr0dzSSB4p2nwSNBxXDrLPBmlUBjDAuufDQewdyGA9ZVySNAnFNbfLctmfDAQn5F1ZVX71Ty+OF+zuDtXtZIHo4PEQyyRlrSPLUmLZc1ReO7v7sKd3ALMXLcDEmVPxyppNeO7FV9HV2YOG+nokamNU5FRs5bwN0ReKWfICy896Uq1belZfervKq8j+JOM8z6ppiFIVVX5WX2MaF8jLQbq9NxiNHxT+vhWbmM+BzrVRrz4+KcWml+RGSmykxD8wYALOq7Oai3aMDdW8te8Intu2A5loDXpyJew71ENBsg2NZI4V5y/E9PnzsZJK/8lnnsaBgwcwb/ZcWs16mZVWMY28Ar2LFDtxiunt5/PPbN6Bv//eA/jpS6/jYDqPqZMn0JMLIEoB7aeFqUXBGh7TqksthDABILKeItqedMVGyupXNEVCQ5mCRXOKWnX63OYtWHO4E6WaenQnc9i99wheXbMRkxfMwLmL5mLyjOl4+fU38PjTT1lKMyZNQ1YLQnxBJhRFVzoHfySGg/0p7E9n8cPVm/DP9z2M599czzYIor2j3VY7FvPe4hF5ezZnoEFIaRYK/SHFdnLpXa3YPJHgCROFBjWkTdRKv5Xbd2PVrv3oicQxwGL29g1g9VsbkWgbh6Vzp2DBecvQ3duPH/7wRwgFw2hpaTVlH6TyzmgxE/knFw3iMOu6M5fDetLmL//xn/DS2o146+2d6GhtQwOVYrIrQ6WogUzWm4WzVboqTZUceK+8cKIVm1oszWd+unIVtrOOR6IRHMrmsedAF9au3YILli7F4tkzcM6y5Xhz/QY8+uzz8IWCaG1oQSlHelCRBcIJpNnvMvRcutkCB1Ip/GzdJvzrXffgUab7dm8fpk+bjIj6JWkSZnlLWfZUecZaGk8Fwp5qBpVsJIFGW7w2ZMB7I9VxgWsZb/EG+1O5REVNWUNPfO2evfjm/T/G0+T96QvnYvm556BEQ+bp557HyjdXYcLM6fDTqA6QzzRaVSxlKLeYVklyR14t2SCjecYgsqzMAI2cFOuaZD6aofT5I7b4y/pKnkYUG8VHWuVpcJQD5vvZytT3QobR+EHhJ9xje+utt2wT1EsvvfQXRrGlWJ01ezvx7JZtyEYTNhldLIeQpyewbcdu3vcjEg1g4qzZmDh+HIl+EFsonJubWum9NaIYCqGvWMaRTAYv0Nq++8UNeOil9ein55YOxHAomcRGphOlQGmmcKllfK3QIl+QKYjq/BIwRtdTQ9uTr9jkXbEjVGgdLHn2oRTbi9vpnRzpIn3CyFL4+HxhHOnrw84D3djf1YuW5npMnTLFttDZumMHOmmVT5Zy47M5tQ2NiG09A9h25AgefmUNHly1Gf2RRgyws+/r6cMG0jpIBdhcW4taejYhVk0tbd1QrrJobl3VU20nFzxVdrRSc5Y3hQcFpwSJhsJX08NPRSiINWyWLaKfSnsjabW9swv1DQl0tLWjsakZW8in+/fTo43XUsFH6JRQKNHz25sv4M2Dh/HD197E9598FtlYLfppend2D2Df3i40xGvQmAgiHopTVPso4Fh/tXuFBI4H3isvnEjFJtBc6ABp8fDK17EznydtYvQmIvTc6YHRa9uweSuSBe1MFEJTWwcSNTVYu+Yt9Hf3sJ9OQE1jo3l9vST5Lir6DQf24Z9+9Bgef3MN0rE4Oqm4th4+gv5UGo0U/vJc46RjoKhdQGR6ij7kW7aRvfjOENXAkHXjTe/iJIOUh7LRCI+pOR4149zPcm060o0XN76Ng9kCNu4+gt6cD/PnTsfCc5cglc/gseefxa7D5BXWK64tqdgcESo58X+JtCtQWfnCUSpK0on13k+Zt5me/gEqfPXVMpWY2jFCJSqvX3NsJI4IYMPidkk6vBcyjMYPCh9TbMcDKrbKLjPFLocU29p9nXhuy1Zk2chZDdVUlgxpoOetrdvwxradSNG7mk3rbtGiRdjBsNaGRjS1t+FQmh5eJo17nn8Rdz35PLZ25ckUEfTSmytEY+ilwjtCL+/w3j3oaKjDzHHshEFyWE6rjyodxJjFCmhlO9lw0hWbGN+WlKsjSrFp/ztPscmAWH3oCDJa1UYhFaTnW2bH6R7op6d8GOu37rRZjgWzZ2IOvbcXVq40ATV55mwzMrYe6MRdjz+LHz7zCjYe6kMfldqBftrlFGy96aRtxLpv1w5M7WjDxJZGRFkArV61dvc0DP+k1CTeTz69Xavau4sihtVO5aFgobBIsm4rWec1ew5SeMepqKKIhCLI0qMvkk/2HjqIdZu2oC+Vwczp07Bk4XzspqV+sKsb8xfOQ4Y8tL2nH/e+8ibufe41vLJlO3qKfipIzR9pzjGMZH8Sm+gB9h3uwvmL5yHMZ8wDMINKpeShwgPvlRdOtMcmj6GP+MirK7GXiiwfjDHNMMutl7lDODLQh20H9mLz7j30RHw4f8E8TKfhuW7NWkTrmtA2rpWC2oc3dhzCveSVe194DXuyOVtsornHQH0j+SWPw6Tvnq1b0FJfi2njx5vX5mdf1zytrzI/WT03y2bz2lH1eW+kOi5QvsrGFJuhz6Y++qlYNlExP/3WJpRqG0iPLHbsO4LNu44gXSriissuQOuUSejt6cLDj/0MPb1dmDRhIuridchSqWmkCdG4Dd1nyIdbewfw0Mq3cO+zL+CZNW+iK5tCfVMjGmrrTKHFSBe9w2vtyD9TbDx6bx0eP4zGDwo/HsU2xGG/wCAmMSBz2AVxiFSeQpP40WvZWmmVpjeRjdTgYCqHF9ZtwA+eeh676BWE6K110trZ05vBy5u24RsPyhLciK5AxBajaA4oT2Wlid14czOKspZoJWp1oMam85qfk/mklW5a7KBSDBbu7AJjvGpakyayxiUsCqx/fy5PAR5CORxDV66EQ/RWXtq4A99+5Gkk6V3UdEzEfgrmPQNJvLBpO77xyJN4ev1WHKTx0EnBnWbXilOQadFOnt5LIRpC48RxKPGYp72gxQFWChoqnu8kPPkqTelLCNroZ6VtbYDWPFmN6UiyaPUdSTIYj0KUxBlIF1AIxTBASzxPZZek8jf+++mT6CaPLrn0YnoiPhwu+fHGvoP4+sOP4p5nn8cBGkuI1SFfCsEfSDD1EJLMJh0Ko2HaFETamsifTNtPr0QZSsGegeBK5g3/+RCmxx/JBxEokE9YtxSVdZoC9wB5aAe9sYeffQkPPPoiWsdNQceMmey3JRyhEnhm7Qbc+eQTeHL9W+hlH+yWkqprRCacQNdADtHaJvhj9Yi1jqMrE7O5K/V9Dc0JNaRi07QqRgWsSNUBJxmU1VH560ICnhgOBU1J96mNaZT3sy9sPdyDp97chDuffw29NAaWXnE1Fl5wCd7csgPfuvs+HEhmkGN4D2XVIfLQNloQT+/Yh++/vA4/XLUBazv78XYyh2c2bcX9zz2PV7dtp5zrRY752q4vGppkn7JiWIlOL5h8GQPBsc1hzCJlZ/c8LNGSSZFhsr4gSmR6DYus27ETq9ZvRInCWdb0c2+8hR88/Bhe3rgNe2hV5uK1FBpAOML7enGY6rG+rRGz5s22VW0SbFpVWaRwKrFzavm2N47v8j07QOQUWK3chdGY1WV9tWinnMnaKtMSvQa9aJoqFBFtbqfgpYdBgbx570FsPNBlnVCGxYPPvYwHnnoOr2/bg3S8gZ5aHQZCCVJUH6QdQDwexaIlCzFxxiT0ZPpxoLfTJsJNMMmIYKcvE3Uk4QfLeNKAGajuprAqQV5ZhBoL8IZHnapVPGGZQqNIvhAGKISzFLBdvf1U1DEcyebx2oZttm3boVTW5om+/qOHSJPt8Dc2ojOTQZLKMKIhTXqxPtJx2uw5mEEv71BOw3G7KAjLZDu9sqLB3TNTsQlEM/WMIAmmFcR6lUGGZ4H9MZUvsk8mUCD25IoI1jWgO1nAht0HkAv5sSeZxN9/72587+GHseHgIfjbmtEb8KGffTZNeuaJGsqdNXMuxk+Ygj1HunAkmTIvUQtx/IGQ12YkD5vk5PPKewCZRQOap5d3T88yT+MlTU+2Lw/sG8iYof2tHz2CH/zsGUxbsBS3f+E34Es0461d+3Gk6KMiDOOt7hT++SeP4f+750H8bMNWbE+XkExQ2bdPxHam8cLmrfj2j36Et7aR55iXHEZxrgPH16cTfnEVm6gvYcKDWYHDmsO7reGqSkPJGpJFouFBuuqFYISdiC57MAx/TS26KDxyZIojOXagrgG0TJmGhkmTiVOQyuWQyyZpjKdw7tIFuOKyi5Aa6MaOndux5q01ONTVZQwZZAeT55ZhB9V7TDbUcXSxPthQkQYS7KbYqq5z+RxCoq04kj1Fk9EBLWiQxUlhnaXw0msScSq5JDugOuzB/gwCtK7D9JTrJkyktxJAL2kHennhsB+XXbAEC2dPwbYt60nrt7Hx7bco/LMVJcJ8mJn3ThyNFFNwCjxFBFfdKwdbUEOlpnfI9BM9pMyCFBpCe99O0oPKv5SnoZTKUMGFEG7tsPeTiuRBrQTNhkLoZv01BDt+zhy00BvrTA3YCsgg70eKAVyweDnOW7wMvVSKazZvxBYqtV4qN1+YVn6BSi/kaHPmgYqlXTvj7JN6sVrGYiqkVY1+notXEsh30gTKhxAP1bLflbG9r5teWgFJEnVn9yHEOpoxbckCRNub0JlLI6mVD/RwEuS3Cy+6BHOp1HbTi9m5dRcO9fQjmcmxdYAkFWWOtC0zn5IZRMOIpIZ0eJJBWXgyqwqsOF6ZdD9XFk/BFpQEa+oQSNTBn2hAOdKAA9Ryr2/YiX+/68esYwoz5i3Fxr2HsXrvIXzloSfx/3z133HPytXYSs//UDCKFJW95r739g2gWFOP+PiJmLZoMQYK3o6TPk2hMC+9QKDXeU4JEX4O/OIqNoKRX7zg8YN16CI9Jy1rlZWWJeNHKWu1W4W2sCnRuisGae/SkwjS7C/kfMhleB1MIEgLKZ3LIBItYiOF6L6+Q1h43lw01AIdE2oxe9Z4jBvXRIs4jaeffxr7Dhxkp8nTY2ukJR03JpUyKzN9HzuqDU2dAQxyIsFITeUToMfgK+lLy2XSmt1B+qyYQ42vSGVGZZPPIF+gX8u4JXmvQcaPRu29wXShjIG8ulCQ7ZPDFglnGgcrls7GvMntmD2lA42JAObMn0FhlMHKN1aji5Z6H72ZUGMz/BTysvilODS/VuaJ91LyqQPlJi9NxoxmHG3ZCAWQLUMn84lGLBrKhQLtKW11pTV8OSo5XfN+gkxFGZLNaoVpGL19KdQorFigwdSLAwf3YOXqV7BgwUwsnDkFk5vrMa2jHa1tTYjWRvHG2g043NlLfi1T+IUQqaujx0MjjopRO+icyaB+kmNbqj+Wi3lIptpOGPbqjA+RhhaSwc9+SU+fBmgwGrY9b8v0WPt6ktiyfTt27NmJ+XOmYVprM6Y21GNiYxNaxnXYl77Xbn4bPVltxh2i0NbqP09IJqJ+BCLy6uRPe/zjbb+lK16IbGrDUwhmiEnJkl/EO/YeLMNCpEOUfUa782gVZ5rKOUNeKeRo/KT5TLCe3lwd9vUDhweS6Gcl+/IlPLd6FZ568zUcIc9FJ4xHTkYT0wqV2TdJ3w4akJOnzURd23i8un4D9nV3m/tcClBSKSuWSRSQJ3264fSX4HSCSVoRwRv60VmeqMEYa6RgmZYc2SeTosVLzpVElHWYSVKwUCTRAg6EaqwTabcHtr0teQ3GaU0nItiwYS3jdVHg1iEWIfOk+rB52xYbsw9o9Voozk5KZmMhlJ+6iJnrEmaDIeoxZwtQaZXY9awTUmmxblnSX4ZEhHWOF5JIlLIUViXSR4tINK8popMaVHw2D0fPgy4IQ0hDdrr6SADnTBmP9S88jzZ/BvNbE2iP+7F91xas2rCeypFCzh9BJpBAOhijBRtERE1J8kpElYJsR+YtWosdTjbIeJJS03ColIlaWQLKRFKJ9SqG4KemzyXJR6xfOEjlVexFOJSlwMhRoPIJenC+aI0tstEOUGENO1F5+yig/PkUxjfXor0+jrdefxmBZA+mNdVhXF0CoUQIz766ksqQtJfy1GpCWuTawivCttEKQL24rTmk6on5kSbnTweoJ2SoTORDFUs5xEiLYCaNGBWyuEnlztDoVEv6WEd7MVvX6QLqKcjDxTCa6poRD4exf+tWjI+EsLi9A1PjcZSTKWzZtg16lSAbiSETitIrjtprFN5aSG3LRW+ZJNLenJ5i09ZsNHqZ4+nrpWobFop8rpfONaCurdR8mQzrnUZYG9mrXVkfH5U11TyypEN/OYw+0FikB5rh8xkaTXs696J9+jg0TWiljCINyaSBXBbj2J/mtjRgQn0Tsr0pbNq+E13ZHFIl7VAqg7xImnh0kVKzvnWaxRaL84sLpkOqUNwpMWrMQYxSWRW6uxAlkyQoQWrDFMjJXrr2IRRiZHVyvIaQ8nxYc2RaOSXmmtQ6DstmzEdTPoDGAXoKh3uxbd0mHD54xHbw0Xi9NiDVS8VlnxsCI1TKoU7jLVc5u0CdQGv/RGoJUb1HQ7LRM8mjTOPBN9CHMAVVub8PSA8gasutSRPRgp1V1miQAkv0KdBbK+YLWLJgPhr1sVkK5BZ6Hl379+HArp3o6e615d9gZ/azE8sIKZPm3k4bStMDozePavdTRW/lozxVDjsyhKWy/zZvxAgRYimVRZR810DKBejF+qmETRFTcpT7u+jIkhbkyYCGyPNF1PJYQ2E8pWUcLl12AeqouBbMmIE86Zrq7cbevXvsZdw8jYQCvUG1iNcaXv29sph5dcaCVtvpvc9gOocWeiX1NCSR7EeAis5PI9TvZ6+iGyfUrj56EdneraIxoJ1Zli5eiOlTJ6E2GkH3gQPI9/Xi0M6dOLhnD1MnPUiEvLZg4/PaPEH8KnCjJ+qVg3xiQV74UOCpA8uykr3AnUoRu83VSzIIeSzTSC/RYCwFHLK2FHQytPSKSamQxaH9u9HXdRjNiSiuOG854mTE2RPbcP65ixi5zPsHMUC6U53bZ5A0Qm6FqNR9sChVZTpdIF7+xQQjPv9p7kLnsnIkPNkZZPH0H+nGioVzccOFF6CZllp9lsqNAreOHlsm00NreYCmMhkmRm+LnSln+xF6gnPB9DlYcc5sXLP4YiztmI3mbAxxX5yWdQ07V5QcEUCR1rUJeTKPOouKMKjUiJoc1/nZBnK4bLcQ0tn23yvSJ8tmce15F+KKc85Ba9CH8exYCYqkQG4AkSKtTlJHS9GFQVqJ1ka00qPhCNra23HlVdfg2mtvsMURVA1UfjQWqMT0Imk4EGOIhj5lgXq0NaYXbYmiub1cO3iumycPXB4qR8iQyppHU7asnxR+MZmn51XAteS9j1x0MSbRw6jL5+DLpajE6IWUs9R8FLyFFPlQniz5h8JFnqA84XE0rK5augxXXnIVkn39ZgQkkwOkeRGxhhp6sVn4Q3pGSoxtoHx5NvjVA+KZCJKfQVay2JPG52+6GSvmzCNdMqgnXSKZPpR7D9MY6GaV0vCRqAViVhqbfbZYpgfDfrpg8gRcfcH5WLJ4MVobm1FXU0vPrkDBnqd3Jp6RCivYXKyGyDVP5al6T6GZAeCRzWSGTjSYrNc21AYW6RSAZ4Q4YN4si9C+j8YbkbAPMc2j+MgvxRSLmSJ/ZEgTrTamwgswPEBvk+XWuEiyv5uGexhttXUYoMLftXYNPnvD9VRy9Xht9Tps3r4LfZmcbQjQ29Vj74QGaCgMVbeKaU4RDd4JhmjzCwtsEDEo0QQtBaeGGCY31iFKhv/MNZfhy//5t/CxpQtQ13UA8e5ONMVoKWuind4bsil7sVrj2uocatRVq9Zh++YjmD+lmRZ0BLWhelqZNbxPtz9DPtM4VCBkC1GKQq8UBma3szdJ5jgheNYAaaTFMRIF+hCkzqIBP5qopCbV1uCXr70Gf/a5z+Lcjma0sbPV5vpQyw5Zpvemz85EKFGi1AgBtRENAn3y5sVX1yDVdQRtfCbOTpiil6M5BZ/m5mREyH6lt+bLU4FQ2WmGT0zv9T0JKxkQUmwMNcl08sHaVZ47hbQZMSyDBKZyl+cfiofQEAthHPFjF5+H/+eXvohPnX8eZtbEUJtJoo60i8b06REKYyZEx4XV9CFHpZj1h/D0K2vwoxfXY/L4dpy7bCnitfVI0JtNplNIZtO24LbIZ4uy4CWlyWyiicpimyjz/EwEKV2NpIxLJDA5VoNf+dC1+IvPfBofWjgTE/05tIcLaKDgDpaSpvQLpQKVkw/6WE2RPKbhtR888SR2dfegvaHBXq/JpyX45c2xHxYp8EmLYCxiC1MMjV8td49XeDbUL/VPBqqeo2LRzVMAxifMm346zzwsU2lrS3XtHBINBjQ7CF+2D/WRktZS0SDK0mvLkx55KrUsaUGDyOdNgmgYt6O1xUY85k+bjjkTJyOeowf39masW7kKh7v6gWjChvH9pHusoQk5esp6T1AgunhHEcZOTjucoqY4A6Ga+IPaw2MSY2UK0nF1tZhIYTKrvgafv34Ffv3mG3DB5PFoyKTRxGdqKZRrGC+QSSFKxWh7RUZ8ePvQPntZ+Os/eRFb6PklfSFayUGyED0JvZ8W0oKIgK1cyrHzOatwSK6qWRyeAVxygoDdz36qlo8CR2NudNDoBYcxrbEBRVqDM+tq8Ns3XYubli/E3LY6JApJxChsAsUcgkR12AC94xwFdI6deNuevfjX+36Kh558DX3ZPGJ19aSxaMv8qDxom7Cz64LKg+6ixJO1sshKReCJh9NHZ08ouDLR9pfGo+JW4RsjQdTk8pgRj+H285fjd264DssoVGp6uhHpPIwaKTjGL9BjCcXCxkcD5MG3u7vxo5dfxlcffQFvbd+NgWwR3ck0QvROzLgoUpFFwubhWb5GA4H5I17gmQose5T80F6TQB0V0gVT2/A7N1+FWy5ZhnYK7QYK7Rg9tnAhi5pwEFHyggzWAnlHW4yt27wV37n7Pry0dhNSGX2mh958KIogvX1pfPFKmf2aKt/oKXTkMKPT/hMs0KOeeq8pNsW1m6cCvHwNnQtJngkU8xjf0oyPXL4CU9iXCgf20atNg72LMorKzoYohfL8iSo7//eTPxK1jbj80isxacIkLJg7D/FQ0Ib+SRxTatowOpciHWk8mimk4ZejwFHq9IN69C8kGFuQCWnE29Ebg+HRlFyZVo8fcYYleB3JFxHOFnDDsvn4pQ9diY+few7mxtix+gbQQsulXVvuSEkxvvaYzCYi2FfM4qUdu7DywEF0s4Nl6KFphV9ZngSFiya1C4xvY93MQ16bEzR235pGx7MHjOb6z2rZ7hPSPBqKzOcRp8BaMGE8xlPhN4VDuGbJAnzumhW47vwlmNzaiLhWXaX7UMpqe2rbwlX2KXKBIJIk3ItvrsH6HTvsBfgS0yhVFkGIlnpHTnso2lAN6S5amwBiEcyoOK1kphklr0B8aOOkFDRU3GHyTIwGUAcF+LgoFRw19LKGevzOtVfgN6+/HMsnTUQik4Rfc77ktUw2iQHSo4/PJ6MR9NLreG3nLjzx2lp6LBRQNQ22e44WhxTovegDufaqg1BlYEmk4PSepsd7ZyaY8ieZWhpq0MiulCDfBJMZXLtsEb54/aW48YKlmN5Szz5LYzObRS1pq62hi0EtkgD0Fl8yX8aqdZvQlcyhFIpDTltOdaYAFzOIR8wAML6wHimWNdFgYkJBXrDdcAbbqeUj5qeDClMpkBYWBel1tsfj7D9L8UvXX487rrgCU0MBxHu7UEsjPEh5pe3BtMLWdlJhn9BXDkqBKPZ09eHJV1/HnFkzsWv/foZpmsWvSQH2Nc03SsmF4QvHEaIxYIuNjDKOXxxRTj8cw8FyxyUANMzjzgX6zLcgnU7b0ftIZNG2yxG4Md6R8EwFlYxNOyjcjJGNUcgy5OB0qt+GwKKkUi3bdNtba3Fk+9tY0NaE36b39tnrr0E7O0ygv98mWqWeJKBSjDsQIUPUxtEXCaGbDKIOpRFI+8SIeocNAUm46HvJnrBV9q4sRSrK07nW6mRBxd6t9Af+kxLXHztZDXmlhh0ulEyha/s2pA7sxbKZU/G5my7DNZeci7baqA2vhJG1xXshdmDtq6gP3+sF2+4crUkmW5DFLRpTuOsdG2WhBSohvfjNc7PC2UZCvRSuuU4TSsJTBcqLvGJ8x1MJKZ2X5MLqdQ+JESq6EOshYdUaDaNwuAuZffvQRiPp1qsuwaeuuxpzxrXCnx5AmNa3Xh+27bBoaKUo/VMU+p2ZIlIUSBlWtmBfbKd3plED0isUDJEm9PS0mpL5MzqRhBXBzkBQ//TTaLFPPQXLCGvEhPRqpbe6f+M6RAspLBzfii985EP4+GWXoJFeWquqTH7SQhB9wqimsdWUWZKdcSDvxwCPBQr1FJWb3mWU4AYNWRlDGvIupkU9gi22oTyT0lODCTzNd1rAeIbZ2/uP/EnHhMnrtdrwmTJpZjyBSyZNwecuPg9/9NHrcM2cWUiQDujtZz/zIUE+iPIocadlWXlfGFsPduGBp1/Ad3/2JA5mc7bPrQYr88zI1gNozNtHw4j8mM/J4/NGGrThsb5wYmhGgRXxtIL4+SjQ0l6nkDKaEKqEaa89KTvtkJ5KpexcVneAlnBey2o/gOAt2pC16jWcCRbVn5inoI3TWg6HtRihiIO7d6CdFvP5i+cjl+5H98GduHzZNPzJb96ByQ21NhwZIs1KGkZi5yuHw8gwjd6BJDsUm58Mpw9jar4IWRkH+qq2VlJKqEitKURfwaUnQgbRcIgY5DT2nRMOUmpa2WjDb6QxGUi9wjCgYaBMFgnGiJGfptbV4KplS7DuxedoXQLXnTcff/CF23H1hctRR7r58hlb4ecnnUvkSR87smiuFar5Mg0G3ivTai+wrWJUaPUJKkV6QgU+J8VmH3ml0vAMCa+DClW0kw1qUzlPptSUv8JIHfOcdE1DyPuisfoY75Cn0j3drEsnFi+YiSO7d2Hv5o24dMEM/MGnbsFHzluGdnq5tAlIP3qo6SzCTEhzjv5IAhlfCBkJJxM6FNOkc5DKTPZbNplGmh6PWNTKU2mbM2mZfzXoFQlfJIAcFbcWPvgLOex9ezPmTxiH5TNnYfVTjyF3aC9uvWgZ/s8f/joSfX3oiMYQouAOUKF3dvbay9ZpKvos6VKm9xGI17EdaPRkKcck8yi041QSYRJUC5e0uKaYz5lM1MIn4xMDI9ggnCpqebzqDR+bwhH/MnN5UPr+XD1vNBTLmEI+qk/n0ETj5teuuxx/9plbcen8cxDRalvyQDSnoewAouSRLOlTCNWin0d9UWJ7dy/SpEEhLGXPvJhHSXKeKEUmPaAPlkqBiE00RKtfmfmaS32a4RjFJmUlRSXPTIy9efNmHDlyxBTYli1bTMGpUronj03h8uZcRxgJz2yQUNP0qRhF595wjOZvJHAKFCqy0gLsRDSkKRhTaGitxUNPPoL7f/gQYvT5/uI3voiLFy2it1FGPdMIU6GVU2lb2ZgIxRCTlZNLI8QEwnUxIBqks8YOlOxDMJuiBVVCDfNiNzNZLzVnX7c942l3fCAnSisARRfVzDqk89qM8j6E1ClIu3z/AHz0wC5ZvBg/vfNurHrqJYyjsr9u6UIsmNSOWo000lAoktYZCirtRC7zqkBakiUpv9masRCiNDKDxTRyfd1mVNQwQAJKxoNQxoSnWE4NSABJqdmn93XOMI8a6ooSIEEqNQ2lSrmJHxWHJWSd9HoJJRGuv+lqbN28Dj+86070H9yP6y+6AOdOnIDx1FQSZB2BCJrlefWn7YvK2posSMUXjEbtGKZFrw234/RiG2iFN9Lz1dCF6T0V4wwGtVeB9bTl/NoQgY3tpzHYd+Qwgr4CbrzqCrz5wnN48uGfIpHNUvF/EpMSCfgzOSopv32PLGRfP6AHS37SB0Yz+awJbT+Nz3CMio59vUQ5F6YBWhcIso/LiWYbURZoNa81lZrM+Fatp7k3IhtLIacGPJ6RQrat4YhSbLbSln1IQ7ShTAGT6M3WU0537diFlkgI1y+bj6sXzcXM5ka0RUmHVAH5bAEpKr8klX2SXmt/rsQjaU06aQGN3LoA+TEgJcfrIhW/vhuYI/2t30jxsy8JAjQizwQ4ho2dJ6YPih4+fBjf+ta3TJGNHz8ehw4dwiuvvDIYzw0zuuMHDVR5NQObi0djTZ55rBkOR02piRYlMkldbS16u7txaO9e9HQexISOZqx/4zUUenrthcSZrS20gLII6QXtdB4xMRit4jCPJVqBYXbGYjaJfJLxcylE2Qu0AKWBHSUuYUzmCzE/dSDrQx9Qmr4TsLqDKOmu9/g0FKgNiXXUnFmJ9GuoqUGE19s3bEZLPIbc3n3o3rwJpc4uLCIfTojFEKEF3UweDVMRaFGIPiWi1Y1qQXuZnoZDgEaDXuANpNld9V4cvTgtRNGqV7/mGMzepXFGWptQsnKppKcOhvOgfk7RmaEl4UmMxqOIJmLYvGUzldp6zJ48Efs2rUfPti2Y1diADhqXdRQ4CSore6+LCi3MR/2SRfT8fMUcSqkBlKjgI+TDmEYNersQTPWjLki6kYfDKoMIcaqJcBwg2mg0RQtCbCUjjZ8pEyfayP7WTW8jO0APnXXQy+npnh7Mbm9AW4SKXH2M/AD2vZxGTei9y2XVi94yhPTR3xBphHQf4jRCm0k7PRMnbwaoOIMU7NYsMsbs6NCTG/pg66kincva4xSeDSo3GUL8sQ/pw6FaSFKmV9Z1eC9mThmHQzt2oHf7Rnz+Q5fg09dfhYVTxiNWyNo7k4kojRtxohiGho/kn1hP78GpjxSp/G1Rk+hBo0IGRVhz1yqL1VsTJxVv1tHqNIL61VEgJSUvTAJdQ5G7du3CF7/4RfzJn/wJrrnmGvvgqECemOIICpqI5nOj4ZkIorsaxJY4V9Be3mXjegNmPPPRyqXgDIfCaGpoxOyZszB/7hy62ym01cbxiWuuxIS6Jkym0BnHOOdMnIrpLe2IkLFqNH/BPPzqHLQE4yG9PAvEySR66VYvfLeQznPa2jC3rZ3eHhUiO6neX/LT4vJs9bMQZNhRCPGPqDdovBdhtcmvtnTys1PVxGuwcO5cTKXAGjjUifNnzsT1S5ZiRkM9WvhMCy3tc6ZOxbzJU0Fz2xMqTDBEF0jvhcnTi1B5xcvySIAaCsIWWpvzJ43H1PYWCnAaHETtEKk2oliw508liP/Ue5SvltgPIptdvGcxKDiEUtr6QvasyVNY/g6UBwbQRDp97IrLcd6sWWjj+fSmeqR6+nHuonmgHLc5qKIW2ZT1MnaK6WZRS01XzyRrtLAi1YdxjLh85lRcuGCuzSGLJvKCvdY5E0F9QmuLvfGVoIQsaVMbT2Ae6TCxfRy6Og9j0oQOfOjaK9FWn0ADtXUtfflZ7a2YO6Edvkw/mhIR0ohGlN7vIl3KJRqkPMZ8edSSZ2rzGTSxYa5avhyz6Qlr6yx9qVof/3Uz36bcpAiIkhkWeArJNii3yCdWFNJCfci0EQuiLemCYT8O9xxCtphGQ1MC8+dMxYa31uPJRx/H+LoIPnTZhVg2exKC+bTeFmEdNaerL8xTpqczCLLOWhSnMe4y+5BnaumyYEOzUnS6re3NgvRstd2b7fQvWpxmOEaxmYfCCmkoUnuNJZNJU04abtRHHgVu+FFDkQI9M1yZOTxjgUWTYtPq6kGkYDQU1xYpJAOso1YRsfNIudUmEohRYV1/7gp85uob8dGLL8e0mjha2bAt/gjOnzMH01tbMamjHRl6CWktSaegyNB7KOoLvDyPkhkaqejOmToFX7j5o/hPt34Ci6dPB+0j5sPm0NwHi2dlO4PJ955BdarUSwdxkE3LkyYB8pT29guQxgEaFBNJx+UL5uC3Pn0zbjx/MaY31Nniksn1Dbh00WIsIA1baupQF0nQKy7QScvbUEyQHnZ9JIxs9xEaEmVcsuQc/O7nP4Xf+PhHMbOlxd6Fkkgy4UiUgLDCVMp18kEZsZ3ZP6yNRYQKD8pzkmCRNW4eHHkvQCtaowJB1m9OWweuXrIMH77gYnziymuxaNJk+FNJNEQjmD55HBYsmEHryY/+QAaZgBYmZZlOnt4bDYB8En55JBRkc9qb8MlrrsCv33Qdrl12DmLSqgXN/cpC5/kZCiX2IXkJGi7U/o+hkFqTqoV9dcLEyVhx7kX48FU34IbLr0FHUwM9iyJaayM4d9YUzJ7Qio66GHID3eSVPoRZ5yDvx6j8In4K64EexOjVX7RgNn799k+QPhdj4eTx5v14CkNDbiyDdVChd2I/yYxTxEPiGTfCIF6xvL07DCC/0IjTUG2RjB1vqsXUBTPx4tqV2HtwF6L+PN5avRK7t29GfTSARDxOmUZjkkaORpZ8+Tz5kLxJxaVvFmrdgPZti2joOsp+Kd1Jo1GvAUQjEeQorzKUbYomg0x67UyAYz40KqUmkOLq7u7GU089hdtuu83CpOzWb1iP+QvnswK0XqjFtcsDCmQyVsr6J2mrSWp9xFHeimhdcZDZ6EKPCTSHZHccP/CfdXKiTdD6PNdWnd8SqYA3L+H5M4b8N3h3KNq7ByUicM/y6M0NekE+Km0JGV1p6yKtPDNGCEXpldETY4E0ZxTRIgYqer04PHP+DNKul4zCzlNKYTKtpYG9u2hlA0umTcDHLr8Yn7pgMZa1N6ODjNXIZ3ypFHwU6HpBVzvba687K4PKYgU7+XDSPzTqGo3Jap7Jtb1ykaIxo4L1l+EZ0AIR5h/0h9AoyZMrIcYwGQfqPdFwHLX0mpvq65EIR5GipR6n5d0WoxjvPoyaQhYXTpuCX7nxaty4fA7mt9ajnZ51gplJ2cmisw2FqTj0crYJBxXE4UmEoSxYR0cE79I7VI6ePCU9eNTu/GGWV0I9QiOrjopMH3mMCNlXNedRU1eLYCyKBefMI20S6Ny/G6FMCtPr6xCj8ssc3IcLZkzDL113Ne6g0L5gSjv5L4o6pu+nEabPKilzH40KDbGdCDjRX9DWwgW9h6cX7QOBsHlSWXoQIpI2EK+JxHhapECmxx4ibfiMdqgJB8OI1dTg4sXnoLO3B8XUAIp93ZjOPnho6ybEcil8aLmWyF+Nm85dgLmttWgOh9DAxglr0YQ5Z/JKqDRIG69tGGZCq9KOakBjLOIpAMuxkpeGrB0tNYWiGwXSRhtB1yRqUN9Yjxr2mSg186c+ehMWTpuKjkQt6RLCQP8A2iZ24PV1a+HTgjYqsQQNw/bmRuw+sBe+KA0r0tOXTdGjzWFRRzNuWDQf182bjZm1UZvjlPesttG0jV6tea80GI0fFP6+vqAtpnORpdgeffRRU2x6cVFW9Oo1q7H0/OW2uEoftLNdMshXal4tDS2wxfO0qgMaB9d4P00LrQZU1hr7tbk5Xtmb6ySAFKGeNcFGlLGot/81Qaw75v5ax9c/U3W8P6TY9MxR1Trq4h3AxRMjOmasQiMWUY2lzXa1Ia2EijE0j2pIvZCt1dkWlTeEuhlkfa8+ZxYWjm9C/sB2zGiIIti9H7decSE+e+UKLGdnag34UMca1LISNhxGJWl52vBTpcFUFIWdIjjpik1QobdXN9KKR7W9BSucYUZLnoicYfKPn9Z0OCR+YOeSUCGNNJ8WIU6qi+K8Ge304uJA9wE00gpPZPrxy5ddhC9ediHO7WhEI5+sZ1q1zDXCdKUkTHBLqTFnoVegKjxJ4CVf+VllGWCVH0ILrr7FC7umuewXMlDhops6gYRJJBI1j1+vnbSyXy1uasSFkybYHJyNKrBPzm+oxZ9/9tOYTyt+Ii30OsZNMIk4eTGqSX8lagpNRpWO7x9OpGJzNLOpEpbPXm0ghiP0JIIBm5eVIqulMZSgBycjVMOE5SJpRkKRQraq79L5c9HAR4P9XZjVUodEuhe3rSC/XHEpplOgjyN/tTCdGhZNuwqJ5h5NPBRfqhzWJpWf0U3R3n113ju4PHRU1sLKpckr9Q+WJ0SZIg4P8bwmGEF7tAZLpk5HG5VdgnHUF8KkZTsVVYEKa8vWjSgVMshlkhTDZTSOa8e+zgNMIY9aevzj2Aevmj4Bn6VR/pF50zEjEUOUSk3pWC9iPpJjKpDK8l5gNH5Q+PtSbNUgxfbYY4+ZYpNyka5Z/eYbWHzuUha8YvWWyDJ5jefr5ccSUnJTaVFqYldaXgTS7hqmzujdibELtBr8YTKcMQzTIKqTuuLpUyLy2ORum8tdCdeZraSrqojOhq4IR138HHAPD8cKjH7La0grs8pXdTPEOgXKVOys+/j6RsyYMh7jmxtw/oIFWDpjFtoSCZv/CVP5aZd5fVdKAskaxzpH5UiwZEdotJMFJ12xWYU8VNKqpUN3y4HOvXASSesdqyxjoz69LBkbWqGl7cwmtjVi6vgOjGttJq3nYdmUyRjPjqehFBlZYcaRISIjZSj1Ss4uyOGphOF5V3B4kIHCWf7B6wq4hUY2tFksIsY4NeSjGhqe5y5ejI6mJhvuvvq88+iFBG2RUpQ8Zkqej3oLRiyFQctfND4RcKI9NpXMKKDn9GgFlaL6o9Cde7zCOrF6tm0af+KZeirCNnow86dPw/RxHVhxzjm4YM4cJGi8RwolNNJz1TBnhArfOET90fqoej3TqtBoMHOhOz1VMCy/kbL3asyjnBLSQPtseqbcIOeLMDxhXyKvTJwwjgZOCOnefhSyGUwaPwF7t21Ds76CMGUSPnzeUtx8/rlY0tGKWvYpGUV0ivk4/1XQLXYSDC/Pu4HR+EHhx6PYVL/jAtk+Rz3ENGXR5Hnctu8gNuzcjX52HC0XzYUi6M7kUAiGoV03tO+aVtwE6OLrJT9ZUTZxbwmpc2noUtcK9wo3vMi6VrhDu69HhacIRstKQ5FlYjxCS4YWo9p6ctsEzJ00C3OnzURjTd2gog6THuEAacFIXrtUmNA1kl14p2PgiSzXJUUp/deQlIZNYkS96za5ox2LZk7HPAqspob6QVpqWF1WvoSqG2o/m8CNsqh+DjQ/rjmQ+lgCC6fPwBwaLBq2FcS1U45oY9G9Z/RflDn7qEP6UHDLeIxQTtVRSMuD6airx9yJkzFvwiRMa+tAmMJfi7zq4xrepCdTWbY+ktD8oIHqYPzBKmmnIx3VpbThs0acIvRKNXK0qH0cbjpvOX7tIzdhfNGHpr4kLmifgN+8/sPE6/GRxYswhd5/lExiK2hJTx89ZXnNQttBh+mdCTwkSfEuQQ2sziD0QgQ67UsnsWvfAew6fAg/eOghfP3e+7B+3350UYiU6PbqK7/ZYMi2PyrQBdZn/23ojSQgOUhjLZiodCsSWTmZ+BJTDUM2j8U1lIWqQpwhYB/2U5lY7zC9Uy3dj7CE+syG5kc05MhuQ2uZ93htlh8J6I3PD4GuVFPv7BccjAziBk+p6dyxrYaDZWGWcgXzlLWE31Y8ynKkgVHQ3AtBgt+GwNU24qOzDJzgEjpvSAu7RDXNwZVoXPoLRRNGEfKlLU5xdPgFYDGfhprKpAdlixaChHmpF9m1jVs0T6FOWmgI15b1k78k981Y8B43cHzzQeGf6nLaOdmiyIrpiwV6N03b+IkuWvEpxRbN5ZAgzkjU4VJ6Z3/5+c/hN6+9BH/6iY/iprkzsKQugRbKqnAyj2A2TyNBc41KnIE8kQhzSq1KPZw28HrBu4WKEPaEbqUCrFiUWnz8tAmYNHsm7vj1X0OotQ3/65vfwjd+9BDe3HsQBwdSSLPGvWQceXMFCphCSatvyGxEbafk04Qnw8skMg9Eqjti0SfUe06eNaA8xaeGXkSvJCLw6YJKEQRa9irrUItnImUN9wRMqER5HibtNO6v4UeVXd6beWx8zijqmPED0nlODYgWtnaRR29xvtjWfDbSz16NkJfMaDGGxWg4aV5EAl2emkAKTopNHfyDIpiOB1Q31VF1c96bQPMnMqwStKoTmhookGB5vZCbJe+RbqTq0dTwroaHfuBB1ZGk41Hvv2mrLL3EHGM/Dcvr1xAkI4izZFjbri9UhI4Mjp4fRN5RmT0kAVh8+1o86ydvTSSxXkVeaIhGUc++E02lUZst4ZyWFsyIJzA3XouOAnkoCdRkgaaI9+qSdvGhFKci0zRUifJZ6x8GxeBph+NTbASJFNFmsIl5oTdfenJlPPrSq/jhM89i2oIF+LXf+z0U6e7/87e/h6/+4D6s3b4H2SKJQAKnpcwk8Mk7fnY2nzqcp9fkhzE9fcWa8YipKtQGX54/V8ndKCkbweHpBS2OUR20as9Er44SurSSbSJbyoxCSApN6DjBOoxh5XwMqkBmlH7qgqLNoISiQC+gSIEej1J8k65mfZKgYQoui1kl5DUUqXP3isrZBKqX6ufO3ZCk5pNsFS8FlpZwi/+i4SBikYjRYYjTHF0dDN35oIMood1CTFlppRLlhF4V8MkQ0KIb0qOcp5AmPYKaMGI8+yCn4pJ+jn+qj+78TAdX1mPR3av0JimlQg6Bct525on6CqgL05TM5dEY9hYY1QSp/AOkm/s6gJ7h8+ZsVMghmadxuONWKicBjrsMXh0qNRGoYvJJyRQHenvx5Cuv49s/ewKv7TuIhRdfjOs+9lH4ovX47n0P4tnX1+Bgbz8VGzV8RagX8lIG+mhiGVme63Mj2ry1j7Tr43k/sZs6a4DRpdz0rI3lKg26zrYpKYl8KqGq9h4ogKiXi90Qhjwxe2mxctvbFUOoIUgPFW7gIo3B6FBNIzunMA/RO9b4PkFzRprs18eB3O4t6rxqD1tFx+PZBk5Qufo5RT6IjKOhNy2ukfdmu2ewq2gj4aC8WUfPQVDA2UMnRwctaNCuNjJptMsNmYXVJFbqb+9P0hORgLZV2owjiVJNS4E7flBBLeuNd3hotalUScotFIuSFuSZsHgJiCfCjEhlJiUvS7wyVKYvkiPsfU+y0tGYXgXFX4rqJXvaQPU7LvC6i3fmjrL96L3apyGyFOYb9x3GfU++hHueeg19vlpc++Frcd4l5+OZ1evwL9+7E6+sWYeeZBp9Kfpg9Nxs13ESyTYmpaDKELuZ8gubt+MffnAP7nn2OewfSKKbHlGW2aapAKnX+KiWlnrzKXqvznrtSQdRYOinRj0KFYMWss7VEaTcpMQ8ODquVhPZiqJK3MEOVIVjMAQVsg2dELXkW6eenNKAJQW9XXv0dALfe37Is/mgQTV/CNz1McqsEmbh/KnmespQ9yqGgBmDFaE01Gv0xFAeH1QYTg8Sg6iZfPlrUl4MEx2ccuPR8z48Jag4bouqo9L5gIM4Qqa2twxLdfLqKBnq0/oAVVGXUmRaLqvJWL1mU8GydrPRi9+klxkJlQfsRwKKpRyeElH8DlDh8uMA53dWwMqvhqe8yJNA2UAEaX8YO4704alV6/GNe3+GH/zsFcw/bwk+9ZlbEG9rxX/8+EF8+d++YoowrTmSWIjeWQC5aBC7sgVs6M3irqdfxd9//348v3UP7nnuRfzTAz/GdnqESRY5xTIURFRTIMzfhJtaRIU5uaAsHBpU53nUjZ8P1v6M7/hgkBeOCfhFhyqCDPYahwITRd6poOr0FxtICA1LarjeoRPvjk+r+NWxb1XQWQeqvdjDPLMKajjNmcVnK+uoTY9WPI4AUm469ZS76DIc9U6xPrkl9BTacDrxxhnGNceh2BRV1p139KpWqR4vRR/NtWVJiWIoDl9NIwrReqR4/sL6Hfjbu57BG/v7cP611+GqW29DsaYWf//d79vKyV5aAEl6vW8nU3ht7wF8/7nV+MmqLdhVjGBbDjwG8Ore/fine36Ex16nt0dPT5OWqVTSdndXKfT9sqOJffJgeDMO8ojO3bU7Jxq4h6rujdihBk/GQCCO89AJZRJIPdONd1TjIBx18QsOTgxV6GZHHo6h2YhBZwWYF19Br37iKCe4vUVpCtNB0s2LK5/mbAXV0quph96iLG+Bljt6cdTzJKM8OSWKeCjq+O0/KUWB51HU8ZeOpxdU+uMCCe0h8Cqg/1r/AX+Q7moYOWq5DLkmKWTF0/EarNy6Hf/0w4fw7SeeRl8ohI9/7g6UG5ux4XAn9vPhV/d14Z8fegJf+u4PqNTWYHsyj95ILfJN7UjXNmB3Ko+3qPTW7diFPV1d9tHAQCTqKQcqNX3H7FTAUNN6eBQwwJRaBV0ku7YI3lHX6lQurEr0HAsjBv4igQhQLZx57jpOhb4aSjkaFTgGRi836WGGgMPK7QoMkrEKzxZwVda2d8IAZdOQChN65wqzl/4NFc977hcCrK6kAVEbwYtGQp1bWOUnZS/6hIg6unjegDdhkL+EXtDpgkqJjgdGLrENWfsDyJfK9Nooivwh+KMJ5IIh9FPQpKMR9DHSG9u34aHnn8M+Lfyoq8W+dBaPvLoK3374Eby6Ywe6qBh7QzHkahqQi9Wih0qvPxBCpL0DkxcsRG1bO8qhiHmH9s0yMR/zDYW9pd0nHZSfwwroVKJ3NLSoJJspOOJI96uSG4NjwFHIwzKpNoRDdzzedDgGHgxRx5HGo5t+R92twNlHO5OzlEluk+mR5K7CTPdX4sl+OutAbW/tP6zdKxeVtSFH0SpAz0FfzzDUOdFfojIzZGJOgFUO2g6xKui0wXtQbCyyiFD5WWWIBRJBobbaj4pGK4vy5SLyNH3K+uJtMY9iNEYPLohdR7psn0hfIorthw7ibXpt2zq70cfnc1RQ+jx+gc5vLpdFbWML5i9ahuYJU7C3px8/e/557OvqoS5j7lSUQX3K3aOoCnDmgsoorMDRpXWsMPw4DFwaI+EvJAxvc11X49kFIzX7z8NqOowUdjScvbRzMFINRwo7a8FjgMHKustB5nCip4KewqdcJ+pnD1bd92DwpBLMRKrjVOMpgnet2MzKYy31Up6NxMoFLYfsyj5Fx0Lnc3mEyyXbukaRiv4CSmHtINkDxOPIF6NMqA6+fAQ19OL0Yu2OvXuwYdcuzF2yFK3t41AbDqKm3I/6/GFce+E5WDh+Eg6/tQvbN+/BQXp3PeEAMoECwsxDKBPDhhlYleE7eJwqqDS3oQjq0IW5RrWdUkreN470zpW+K6W1Wtp9RRxVojL3flLrQlKdzzHqYBqjoeLYOgFdn3VQTdVq6rrjIKXPSqhqZkPHDtVHh7IvB9Hmj7TVUWWDA9JLK9m8o3dePW8ymIHwbINq1qmAuzyKc1zAUYFnAVQYRYrKExKS595LENqX1xMeiuiBZL0+e6P3/44C0YU0ovj3UDrBUDe9dZJu1HtEPnLhw/EEg5rx3YEKr9j+SnewsVWvY3hDgmU0xMII5HMopvoRpoKiBGc8fexQQx8hCt8wBXWE9fd2nS5rc+RSHn39PVi3do3t83fzZRdiUkMCH75sMdavfhUbV7+BfG+KSiyOjJRoSNtyqTz8k3K0Eqh4RtmTD5ZZBatOjTTvgG6XFDW44eA9txzHa12pN1HLGywaqe2PvhJYCBN0d46++0EHUceb1HboG8Sjf78I4Np2+HFkEFeJw7wFAe7c477R8CwDVcl1wgpSbAwP8qZl3YVIZIHEswmOEg46kaajCSR094Sst2S9vagupVcNoolDR68KnVzQ4JzbaYTjKwFL7upuwBMloFcetBs26FHVMaBW9mJfF3zZDKkTQJEKrUzvTq/+l20XTlqNEvJ8tjYWw5yp0zBz/DhsWbUS+zZuxsLZs/DwE8/T4wsiR5fFrM8iPRh6O3rKe9KBSkA0zjyDwWkzh4OgC03NDtaEKNbwVJ3paxkV+g1qxYrppXDe1yist8KrEn8MzjowXvBOj4JBnuFNoRY9VKO7L7aoPlaHD4IuHI7B2QfH0ba25R8Vn0yhkcCS4i1vi0VPYg1xFeE081GlFO8OVEUJTs/H8EDb9GhoLUL1M6mpAS2RICL02OqKOdQzLGxaid6b9qixbaWdj8KOFwihqbERly5fjEuWLkZHIo55E8Zj17atiDU1oTedoV4M0XLgs1pxWZT7bI8aqDwi/eDFmQyuoavxKGCAVa76pvPdZDUJNWwgC0t0KJo1pb3f3BzuMNtqDM4ysP7nnRo4LlGgBhjN5GNfNKQRKHQPueEhG1mqxgqMEjwGZwsMMguhcq6Dh+KeYczAf9o0WrzkzXNU4QiSxuMbJ9uPS62cFHjXJVDBvSqRFFVEUmcqZbMI5DK4cvkS3Hz5Ckyrr0G0rxtxKrh4QV+z1UJRZsVEREJPMPMs4KOX4Ue0pg7nzZ2Kay9eju4DBxGPJ9Db2wt/NIp8qWhvumeYRzASreQ6HFwTnaHAoplBUMFq0KWHbjjNIZnEuMVjGU+5ufOhMA917cGxLDcGZyMMcYrGL9jqxhJeD61GT+FVxx+GQ6wzBmc5jCR/PDAOgl6Y0lFg6wGEHmN5gQ6G88zPuX064DhUKylihPGq6oFnIdZEAmhJJNBAx+rSRXPxR5+9HZ+7/gosGd+KRvaceCmPaDGDaDmDSJlKEDkjcIFe2Prtu/GNu3+Ef3/wWZQjNchQEfams+grlpFiRvlgyL4GgHAYuVzOqOY6ow6DqAYbsdFOP6h8Yhg5r07kDIIrPFFspCaRF+p9rU7nVFuM49Vz8MRAjaen3JCBq76Lcjw4Bh9EqG49cRXPLagq3N124G4NDyc43hzh1hh8wEFt6qYshhaQD8mbPM/1Tc08hcrRcQg29VFBB8N5qHJt/MNnDYeCTzkch2JjAVlCLRLxCusdJVgDRX21t4xxtQk0B4CFHfX4xEXn4osfvg43nDsPM1riqCn0o86XRKycRJgKDqUSkoU8QG9tT08az6/djG/d9yi6SN1CIIJwXQOC4Rj82g+S1Cplsvaummhr35Ji5lJwtpN5dSOcseBR7ShwQVJqdouWE881glTU3CLDNNlfZFiRnCYVVtQmmYysugsD2pKMXq2+2O2WCIgcXvu4VtIjTE+fBqrAUdc8t3atoIPh19VQHX8kHINTA0ZpNXgFda12dV/V1n/XHtowfLCNbJiS4cTRus9gXMV7jzBSGu83zTF4byCSe+jRXyNEJlN41Eegc2QEYZr3TLm5uBpd05FpmPyphhGa0caR6PCYUc50jB8VVgkfbH+HJwGOS7ENwVBhpGNCAQ01ssK5LOIUsMF0GrXFPMLJbtx8yRJ85sYVmNdRi0ShF/W+NCKlJALagJTPdWfyyEZr0VkKohNhHCZlC6EY8hTkBXpvbkNXf0gfSJTE10cltQDFy/+D8UVkR6/hjUgaVJpAK0sL5KQc66zh167+fhzuGUBvJod0Qfd9yOR5n7qoVNYwJZlNc46qfwXt23YVphmOgrI4tQIMNdoJbVFOVTwHw6/H4PSC4xaPY9Re4gUPs7k8e6C3/ZHxEXkjzwjetw+l6NjO5A/jQXuQPFPVvkNnBIaPxAvvlR+qnxu+CfXwdN9PPmPwziCySlqKuqKxWEDvH6fzBezv7sbWA4eQ4r0MLWaNqxUoZ7KMlC0UkJOcqDwnDnRGklJzbeZQUOD9PJ+TQnSr5k3ZVRQb/1m8QfCSOmHwHhXb0aDNs/XZEPpWqImE7cN1+eQAYuxQvQf2I7V/B+647hJ8csUyLBjfiOaQvIW8PYNghISMIOWPoA8hpHid9QV5n4QgYYrssPbZDb2Pk80wBgU40/Xxvg3WnZAanGwYajGNZstOcuApFtZHtBAGfEhlMti4ZRvuffgRfP3uH2FHVz+6qdQyfDLvCyGZ0ztunpgr6ht3ZEzRQ8wi5SVFJYZyqC3HhCJWJkdFSToWKOTkDaskSmk0qGbYahyDUwdqH1ulxjYc5B0e1M55KrBkJosMr/WFjV62bc4fRNYfoPXtDS9pjlpqT58bMcHCn31VQkmN0JYjtfGJbHeXljOsRjofgxMPZe3WT6UlkanRHood+1RYbzqPJ15+Df/x45/g/qeexbYjXegWXzFmwR8mDwVQoqywT4aRb3J0LpiaoRScvqyiD7NS0hhKnok3xWO5fN5kj7jO2nUUFjIe905PCByHWvAq4ul8gbv2hDP/IRSk8qHgbIzFENDH+1IDmNBQi8yh/di15nV87OLz8PnrrsK89lY0MOtQoYwwFZrPF6aCi5ng1h6Q8lq02CQcDMHH8yIFfYh51UYi9iFJeSakHBuH+RqRCSeSKicBPKe/qpiVBvbJc+UdVUluu48WbSgex7ipUzD7vAvw8uZt+N9f/zaefmM9jlC55QP6gkLQNoLWtmLyZIOhsOnEYo4KS3S331ALCaXgpDyDQcUnNRlYIO1yBcY/w2k3BhWQYlM7qkEJBV5nyThltqn2aN1+8KAptR72wc5slsqNhoyfHht5LEdhYy9r87m85qoHOeNo8Djn5EO1knRKTVgdPgYnGEhbKSDPOGKnl3Ej4zYUwQWUzYsuOBfPr9+EOx97AnuTaRxMZ9DHNklTbhQYV56dfQuTT2d5XqDjYV8aF9rSEx01OkDDW/lQlkmpacTNBj7Jf6fq8z/HodhICtJDxar2OOyMhdXHC1MDSYQoaAf6e/HW2jVoooJrjyawbNZsvP7003j2kZ9hXnMLfu+2T2EclVY4mUWcys2fzSFKIui1Afjy3pwRT7UvWVgKjgQJSnFK4ZGY+vqt4nrej8isUgyV6UwDj2YVuvHP5mBdkXXNm+Zd8VKsoTHtTtIy2hDDb/zp72Le5Zfj/hdexL/d92M8v3mHfZeuFA5TgOWRkuLnMxoq0DZmPhoXTjg4JtK1MJlKIpvLshxsLypIbX+m4al3Eib2EvwIOAanENQ+Do1LZCVraEhfry9jX1cXVq1fj7t/8jDuevin2HjgAAbYroeowArsPzkpwEp8fXvMx76qlAyZprW/jhYyOpyIdnf5mTFcARfmcAxOBki1CHWmPi/ZSdkbpCyI+rFq50E0TZuMj332dqQCIXz569/EU6vewP6ePgxQznRlsijRIM7yee1X4tPXxiW3KvyoVJ1i85PHZDwPZJJmfEmhyavTkLiM6GNa+CQ0+btWbCKIsXV1ISxAR3pa7ERhCls5ILFoFNdefTViVGwbN21Euqcf09rHY2J9I3y0AqJZavNkEpN53RyNIchnQ8U8guU8or4iEuEAlRlVFr0PDZbJa4PiMO0506aiub4OQWpZeWzehxPP/OELox9p50hmdCRaZ+YvEJaL741jp1jvx6nI/u4/HsBdz7+JuoltuOHTt6Fj1nQ89OyzuP/RJ/AiBVl/PkdGK6Of1rmUIfQRQFnmliKBQV42pA/zCdGzU345PSernfdt/lLzHoMFOxoUv9qidjgmgE4hsG30hWOqJDaIGsrR3rO465qaMHnqNNx86620rAO4/6eP4t/v/zE2bN+Bfd1HkGJbB9j2JXlusq7JK5r3YCNW0hkCa1dlw6MscocnApRmNd+4a6HjKYdjcOJBPOQ3PiJoqociUwvUcsTv3nM//u+/34MX3liHy6+9EtfedCN20UD6yp0/wAOPPop1W7bYNIb257V1AJRVXivpP9vMlKW3k1SRclxyKBwMkz0DNLrprJDnPM+NYAU4uXBcHptADxxVLmpjfW1WQlMCUmOuEVZIL1OPb+/AhUvOxYJpM/AFdrrrLroY42rrMbWtDa2JGiybMxPTW+tQRy8tmqeHUkgh7qM3VsrSM8uixl/ykPdndzTj41deRLwUs8ePg58dVHNw3gpUNpYE+xkLo5dNd6wR2OJSPmp4P71ZfySKnV09eHrtenzjJ0/jubUb0TFjMm76+EfQS9X17fsewJ0P/cSGnwI0DmRJpTQ8YIqHXhyVvj5MniFdkmyfXjLyPT97FKu37UQ/r3O0qDQgpYUGUrgexzk2HbxEiZa/UJ6dIdOW5SVLzOJUP+Cw6rQanW0n1HX1TXc64v0xIJBLKBjEMKKP6CKPO0hF5vMH8daOXXhpzTrMO/983HL77Zg4cxbuefBh3PfQg1i1+S300VNP8aEkhVKWfVNzrEfzpWcoaqhTfJgjysvLkJ+ylWs9wbv8T+Q9lcE1kddMVjKDivisgO5697wzLXLRvB8VLUOUtlBfBrG5dZ4PRq5CBVdy56XyF6pU8kU9L2QwgpDxvbt2+gsPZa2sJmqXEMlqOQUSmwxCPhTB7t5+/OTF1/HNh57ALp5ff8vHcOW116IrncWDjz2JB5982jbNgL62zWdlQsvkcSh5kiWhUyT4xn0H8NDzL2DT/oPIkU/1cWjd03C41xaukTxQ2Ilso8B/J1TOj4Hu7m489thjuO222yohwBtvrMayZctIHG9A0huaIqE0DOYLIEg3VmFaGBLW8CLjNccSaKurtfmxUOV9iEAkhGA0TGIUsH3XFiR7DzJ+AY0JKkVq+Gx/DyKFJJr9OVyzZBY+edE5uHzWRCyoq0FrwIcIuVxfEWDr2NHGb70inoFQGQQQF/Eoy2mwKa0TM4wNH6DHpa/USkm9umEL3uhO4lAgjB4y0+Zde3GgewC1ze1YsnQ+4rUN2LH7AF57fTUyvD9xymSm5TOv1lcsmFIbYH59tOg3DWTwo5VrcP9Lq/Hc1t3oraEx0dZitKsj3cKVst19372YOn0alp27XCGG+p9NpxGORGyVky1EsBssM4WQfc1BV16zel4pA1RfdRjVzoHYWPOCOtoziqsIRBbdW2I8/D6PBoMn7w6y2jSA/OeGWsWTeg9SR4XpnvM+xbuKr3CdK57mIgVp1t3Fdd6E0tBRYQLnYbj7guo4OirdPD1xr5+QpsyvOp6L667lJbnyK0ybGGspto7aWk1D8bZtVslvxssbO3fjWzRcNnX2INbcitmzZmNyUyN27NiHt3ftoWFTQktbB4q0oGNSkmS0EMsykEwiGA6iWGCd1Y/ZEAOFPA2fAFKMliePHMmw/cPsvdKtKo/mT6yR2MaML++PpeKl13LW9pUGW/3668imklhx6QrWSQZXwOaHV721CS+tfRPbDh/AuMlTTOBpuCdAflV9pWDzuYIpbjGEhl5zGpnQXrHMwaYi6CGIo7QLj4SsxzP8r2AKV41ipHkpPmTqngF5HKD2EDq+cG2kcwcKGw6O56qf0dHqRawG9/zw8J8Hji8ESl+ga1dWwVHlED3YwQLqr2rISvtodbVo9HUqtIP+GFDbhr29Sazauh19TG/i5MlYMHc25XQIP3vyKRzu6kS0JoqG5nqSmVT3h5BmWxQDEfQVtGApjBe3d+I7z72Oh1a9hbcO96Bh8jQgrr2pfOQxbcFYtG0Ymbnlb/N2DFd1RqODwg/Qg1y1ahU+/OEPD4Y5HA7vQbG94Sm2SmJewl5nrcYAiSkiBknMIP1d282eqB5RFPJZMV59XRznzJ+JyeOacXDPTvjodUTI4GF6bFcsno9bLj0fVy2aiTmNCUymsKnXy970GPxUohLMQqUjOqlEI5Pl9EOl67OsvKBgshLzz7sko6kOPHiKzYdXNm7FG0cG0B9JwBeKkmYB7DvUjW17DuIQFd7MadNw+QWL0ZfOY9PbW7Bn317MmzsXUQog0LgoUkBsp0B6cP1G3PXySjz85mb0huqwl53+td278eK6taiLx7GgsVETdAiG/Lj7Xio2pnvuueeqVJIzdixRgfX29dnSX4RDONjXjUS8xhgzl81TyGiYgW3hRbe2EFrlBJV6qvuJgXVtsRUugugZou4bfQi2BRQj2CVpM5jWu4Rq4SOFYjxJRaFwoVMsOtd9J8QUp0ClIoEg1LWe1bkEhRMiula4ntdR4O67vDOZjClI3Xdx9JzydvnqPETvuTqOQPkKXHoS2wUjAuuh+zIqrBN5iu2l7bvw9M6dOMz7b27Zge1b92H6tFm4+MLFaGxpx09ffhUPPfUU0wpjQmsbEpEwlQbzJK9oftxyZuOkMllkeW8P23UtjamNBw7CX1eHWDRiRqoEk83Q8U9rxW0I3MoupUyaUX2wxNZear/Vq1ehmM/i/OXnWf0K5GN5gYmmJuzq78MjL72Ap196iWVsQRtRixIC5KUg6yyTqZinOFQ5PWa0V2Hsc1VUvr6iN+NTpGLLM/8My+wvUu5oP1oBi5Hye/fDpJOXgorrzkYH1/4C0d82h6iA2lk8ItA9F08gQyhCI9DqKkOQcZ2RNLyNq+HdlKkaquM7nnRhylfn1XyoW5KZLIGdq8RqLT6FJAO+9vIbOBzQAr4IsuSRfho6O44cwlvkpc7eHM5ZugArzj0Hm3Zsx4svPo/a2ho0trcx0TBpHEA3Bdfavd145q0d+Pojz2BDqoRUbRM2HerEmq07sJXGVUtTA1prEzSs9GUTKwD5h54f85dys9KNQgbV5zQotqMT1pVDa3OeGNNbYEWo2ykbv5hHUySGeRMmYMbEqYiws7bFanDVsnNx+4rzMbu1Ba3hMBpIgACJLaVnrwkQtVhChFG6lnQFz3Sw+otuujD6iAHZiXmQVU5nH69t3II1B3rRV9b35qjoQxQs7NDyng4dOoIXXnvdhhsvuPh8LFyyGC++/CKCiQTiFFo9tHRX7T6Ebz78KB56fQ32poroZr8slEO0wNlJ2dEHBrqxb/1bmFnXiBkT2u29wnvvuQdT6LFJsXm09OHQ4cOIxGIUH3489OQTONAvr7EF3XpXsaaG5Qoa/dVJJHDUyU3e6vlKY3hDXBR3FEp0tk0oe4zh5VGRg57ArqD2IPX4hFhp7+MBlWNgYMCUhimGSucX6FyKw8WRIBIorgSR5op1T3wtgaa4ekbo0nOCTsrJCTaFS4gZDZiO4uq+E27O+3OKTPkIdV/x9LzCCxVvTUeFySuWdxYmhogBlsNXYH2oiOTp9LHt1nV247k9u3CQzxzJ5uybhZt37MJrb67H+edfgMtXXIjDR7rwFg2azVu2oL65EVG2aziiOmtI0GerknOxMDalCvjZGxvwz/9xH1a9vRMP/OwJnLt8GYIsk7w6efh69cDKy7z1PqXfFJtajDyg1rQ/KraVK5FODeDiiy+hvaV9X/V1/bIpt9qWVixleGcuj/t+8lMc7htAXW09GhNx5LOkQYTemV5RYFpZLTDj85pbt/l10UDdhveLFKwFehR+f5R8rPddpcT4s+Xt4lx6CV6ItZNguMwaDq4Nq9vE8Ym1SSXcpePiqp0dr6kNFeb4ozr+cBgt/J1A6bqyOHDp6CgeVRxTtKSCSmUGAq3Gsp/GnOhDhS/F9s1nX0ImFEOZAki0jdOQKWQH0Me229fdiRdfX4UJU6bhBsqb2kAY99/7Qyyav5Qyp84WKj2xfiv+/fFn8eimLeiisdSdooHEcJG8TBnfc2A/8jSIZ08YZ4sKw2xDgeS35n4FqkXl9BhQfU67YnMggSemlFVnBOWfBJvAJjFJwBrtLqJOy/vjamsxd/JULJs5A/PGt6GBDBtn3Cg7UZmNFNNL2nqO6YkgbFHe9dJVsg7PVBgqo/6zHl7bMsATBk6xZYlSbJu60kiHRAEyLzuJj16Y910tMnTQj137D9CLO4y29mYyUR51NAIOp3N47I2NeOj5V7DxSA+6/SFj2JKfndK+n0dGT4TQWB/D3AkduHDadLTEY4jQar/37nswTYptuRuKDCAWi+NAZw92HjxsL2++sXUbthzpRH8yhQgFjQ1Rsh56GVjtnaMAsA5nlaPwkYVdUWwawpLCklDUzzx31tmUomrJez4KST3jPqehb0VpiFulOR44TIWsjtDc3Ix+vezOax0TVP4SQhJU4qM4vVaBFMvevXuxm97snj17TFhEo1GL4xSaQMpJIAEmwaE4iivPS/FcX9C5BJvACTunxHSuo+ikNNTPtm3bZmlpwZVTpgIntMyzNYvBoytkHLB9irzfxyjrjnTjabZNkteRuiYqkRgG0hk642XspSEkZTR/9kzSoxE7D+zDxi2b0NDciqb6BhpIfqR5fyfb9LV9B3HvSxvw1Jtb0O+LoI9KoqBXCXbuQ5keWltdDeqjMYTURkXRULwpGcAyWtW9PqniSrGtomJLpZK49PLLaFjJ6KFRQHx+1Vr89PU30JnNYOqceZgwbhx27d6HHXv201ugmopHzJMsUwmKtsEQzyU8yEOm2Fl90U/COkv+GCBqIwNmSeVPpcM4mtIABbhI6LcN2K2A1kaunUYDpS0UiFfUdjqq3QTVPOSUi85VVrWfztWGrp1dnsKRYLTw0cCVTc+Jn8S/jv+Uv8ojvlMZdG3zjx4h+JCkQIG0UxqkG9vw359/GbkwDQPKCK2PUF+117f4SIbPavn+jq1bqOzy5KEW7N9/GLPmL8CmvYfxNJXaD19ciU19SfSEoshTpgeCNGL4XCQaQhO9tDoaKTM6WrFg6iQ0xsM2lSRwHpuaxnSuhR4LqtfxKLbR0jlxoByI5DXKb/6rMIF+6mwRNog2Sq4l3esYaVzIjwm838H7tWTqaKZA5eZDIkzBYozkpTWqav9AgLqjGpX/KigGUqhDCXsJ0Ry9rwIj5llp7QaQ8QWtE/eSL3ootN7cvgMb9hzAAI0AvXfy+JoNeHjVGmzpT+MwO/oAbdU8LSzyI/xkOs2zTJlJATd+HPZ3deEIhU44EbNM7SVgdg4/05XgUDkGqCib21tQ19GOGYsX45pP3IKWmXPw8qat+I+HHsHTb6zF4UwWeQqefj6bo9cmC8zbbcCrjY42+Mz7vGGdUvNpWXayNK1GKXJ2fwoi3a8gBaempjWM5Imv44Onn34aX/7yl02wvPTSS/iLv/gLPPHEE9bR1RHU6QWpVMrw/vvvx3/5L/8Ff/Inf4L/9b/+F9atW2eCSwJDzzhl5DqRhIUsYSdQJPicAlP9dO68MCeEdM/lL9T122+/jf/8n/8z/vRP/xR/8zd/YwrOpaO4AvGC0cB4hWkJ1Qd4WzwkGy+dLSJHK8EXrUMmW0L/AIVrbSsOl4NYu+cg7nviJdz10JNIsW0/dOsn0T57Ft7cuQNdZIwM09h85Agt7ufwtcdfwtObdmJPngozQms81oBMvBEbD3TiIVr1L67ZRG89a+/OWcasm2e8eHV0oCKy0CwyBb94gvdFBxm6WmKulb+vbtyMf/3JE3jwmVdR2z4BH77lZkxbvAB3PfMs/vWBHxtvDVB5ytPT3FpXLgW9aG5KnQmVWV/N/aQoSVI8yojrZbkGwjRUTI9piznN6agsXru4tnDH0UDt45SV2l3Dea79dRSozavb092X8aRjMpkcDPt5+R0vuLI5flM5HL/onvKVkhWavFV8KTXrad6cpHqVK1VIfZZ15IMI0YCmSEYqp9dJQsSAbZqR5PFlGtxbuwcwEIlhf6GE7/3sMdz1xDM4QDlVrm+kYU6+D9PbUxmYZnN7B9omTkCQBnJnXz8y+RzzZblFE2El/xMN6h4nH6xDqgcKvQDrm+oYBC3p1zycHH05zVJ4QRI1yE6neYASiZFL01/QQ0qjAi45++6UbnnBZyRYR69ANUMNlpoHhQ2G84FYIoqolI6WzOplajJdkUKiEIqgSKtZFlaSHTxJrZj3h7HnUBeKZKqa1lakCmTHCDsehYKGdTQHtmDOfEybOhM9vUls3roDh/rJoFQiWtDhZekpNCtFpSB650k7ExxhJ73r4Sfw6KtrMHXGVFx63bUIt4/HY6+vxncefgQr6S30UnhIseXVSbzHDZSUp55UV62mUkcJIMlO0M+Ok+S5rj0xJGEpvmC7M0S25XsBeV67du0yT23Dhg245JJLDJ2QcYJKSmTTpk0W/6Mf/Sh+53d+B7/3e7+HxVTiiqf7OkqASJDJq5IAkaCQ4nMCRihwwkb3lL47SnkKdO2EkdK7++67cd111+GP//iPTQj95Cc/sXhOSEk5CrQKtcigPJm9wKO+BFUMMIykkrLQ0upgiWXN0VIPJBAK0xMrUsInGnE4Bxxhg2w93ImH6clv2L4drRMmokjvsJv0/cnKt/CDp1fimc27sKGrH51UHL2UbGnyWT8Tz1GIZWkU1Y+fiDp6fMzMtrzLajjU+nCFh6tAIUJTyayvLoxupA9FPZvYZ0PjgVgzXty+B19+4BHc+/pbiE6ahFtu+ShCtc14fOVqfO/JJ7DqwG6WX4uBGJ88U6L3pTln4/9gBAfJ/28c7sM/PfBTfOuxF/H027uxl3TO0vDQ10NyOQ0Xsyz69y7Btalw//79eOihh6y9pKyeeeYZvPbaazaM7drXPaO6Ko4MlMcffxwPPPAANm7cONiOJwqUp6uP8hWfakRiJT1klfXQoUMW5niVkcyLHQK1m9CDYjHPumRpd9Ia1sYY0TiK9PoLmgophhAO1MAfrkOSbTDAPtBFWmzs6Ub9jCnomD2dgltyJoOIlGIyjXAsirmLzkFNYyPWaw3AwYNmzKjt3ZyaeMK+vv0e+/g7wVDNThaozESz6IQm1SsVYcWKJXph1Eq+inZSGwQ0/KQwG3os0tMIkFAR22XDW0FTIYylO4QngT4nFqzeXiHtvzWu18DeUn/+KnFky+RyGeTILHo3hBreBEqZjKO6axKeWgfxhmZ09gygpqYJO3fuxSsvvcj4GVx28XmYM30ywuUi2urrcNGyZTi8dx82rnsLe3bvBw0slAJRCkbNJ3nNwmJYO2nY0EJ4HmKewViICjOGXb0D+OkLK/H/fuMuvLzrAC688hJce8sttJAj+NoDP8QPHn0MG/buRS8NES2CMSYmaucLze3ltajFH0GWHuSAL4RD9Cz20/rvpBDtZ47aKYN+CpndQ9rqNkymlXeiSzX+PNDQYU9PDzZv3oy2tjbccccdaKXC/9rXvoZf/uVfpvC8Bf/yL/9iXrGEjoYANcxxzz332FEC4a//+q+xZs0aS0cj9p/+9KdNSN10000mTCQw/uf//J/mcXV2duLll1/Gb/3Wb+FjH/sY/vzP/9yE3/Lly7FkyRIbvpey/KVf+qVBpSiv7zd/8zetLNdeey0uuOACe0ZKV6A4Qo8jeE0W0O7r8nDz9HQL7CNFMr5aSxsaxOixRCj0C5pPJW1z2TKSeZaTPNJNeh6gMOxkXTdv3Y5IvAY9Axnc+chT+MEzz+HJDZvRRXGQURsx/dqGGmRy9Obr4xg/fSoWLV+Gnkwa+/v7kCffSTjZqmTxoQwSXrtyVoPxlP33eEzL+tXH5S/00eDKR2pwOFWABksffHUt/u3ex+ktxnD9TVfjkhuuwZbOLnzlnnvxE5YxxWdlxA3QGOr1B3GA11rx+8j67fjHBx7GT9e9je+/+Br+7adP4rvPvIiXt+/GAONrWFZ5O3D88058pHtqY9H/lVdesfZXuzz11FN4+OGHcYQerjx2KTK1o/PcxU9f+cpX8E//9E82baNw59lZWzJdKSWl5XjAGTq6lnGja6GLpzR0340uCBXPDYvrnpSpeOe+++4zHlUZxI+6p7S024zawRwAG5bViAX7mfUvr50S8bhNeaTYznpnrURjyc/28ZUiCPjjtnitFEnYCts+yuithw/gre2bKUtSmD19EiaRZ8bFQ5g/dSJmzZqFvYcO4+3tO20LQHl9mltV+8vAlYQ7mUAWO3mgoot8GgrQMmJjcAo5Q42X21vvtA4iFNiMWGLvLAXZyDQSNEteDuncb98nLdET8OaX1HmUsgd25gWe8TBUapHdoULJXBp+Y6NrjzUNB/pKOVo/9G3KKUSC9CxAaZVNMi6tQ9GCz2laPJ3MIBFNoJAi61AiTW5pRksIWPfik6gppXHdhediIoXT1jdXo/fAAeQG0kxTQxVUNDT7C1QwsiVFU1vZyDLYQg+GCeQ8ybruz2WRIXN2sxds6x7AA0+/gv/13R/jubd34bwrr8Av/fZvoofx/+0Hd+Nrd96FHQcOI82i9lJ45ZiHBEw/BaK8gf25EtZ19+NL378Tv/+P/4yvP/ks3jzQ6Q2dkhypAjs5FW5Oio01d8NYwncLEgpSNhp+7OjoMEUnC1ZzblJY//zP/4y77rrLhNN2ejCyrjWXLGUnAfO9733PLHIJEaUjBbdv3z5Lt6urCy+++KINcUpx6lqC5R/+4R+wYsUK/OEf/iGmTZuGf//3fzcl+alPfQqLFi0yofid73zHBJXKIgXX0tJiZVAammvTUGhNTY2VQfEkEDVEq2XwQzxOWpBOZu0SJaZsvoueSYDCgzY6YvGEGQTari7NRuxiJ0nFoyaUcqRvKU/ByTbZzzrOuHA5GmdNRaiOVjlpHPHl6Pn1Yt6cSVi2ZC727N2ONWtXUbCRfwp5GphSrD6EonqBhwUZxWtTeeWhaXW0VjrKs9TCLxk9ts0Xrfoj5PtAtBHZAXq39Aw2dnbj7378I/zpt+/F5v40bv3ErfjMbZ/FqjfX46EXX0IXDbwDTO/t/gF89YmX8edf+R7+5UePYN3hAfQnmrEvGMebAync+eIr+PJd9+CZtZtoCIQosOntVbwXKayfB+I1b27KUwxSMJp71TysjJcbb7wRq1evtjb/H//jf5jnLUUjPlA+8sLFKzNnzkR7ezuefPJJPPfcc9amGiaXQSTF941vfMPmjhT3+eefxz/+4z8anwllZP3lX/6lGWPyGmUEKW83qvD7v//7VjbxiuolvpFBpXtNTU3GtwoXSLnaK0UUtPTpeS5+YkOyUehbmIwOk7blIuVMiDSqicvrQIE8Ytsd6vWQaA1pUqBzFmV8XtMgnTG+Ax21MXRu24il08fhkgXTkTyyH2+ueRNHuruQzmcpP9iH2f7ysm0LL8czRLWFNYd4+913758LXq1PFoxaWBKQtZE+ErJLmnCVbSos0qwo0YMTTWU9ytEXHqvpfz6DnjkwMjEkq01olzStTqtbgozCoyYcQKKcQxM5LpjuQ4DWczDCGBoqkJerZ2VqUZD5KbjCVAQJMmATGXjBlAmY2tYMX3IAXXt3Yfum9SikNULOuHrO6KgFK57lZiVje1jYIEld63ggo0LvNGXJpJkgFRWZdFtnLx59+XXc/exrOJjOY+75F2L2eedjb08/HniElveRHuSDEQwwUQ1rHGYn3JlnB96xH1/58WN4fcdBHKEV85OXV+O7jz6P5ze+jYNUehl66NrUVx4pRSJPVOrjB3Xu888/34SCm2uQktNw33e/+10brpFQkGK58MILMX/+fFM4GrLUMKZAz0mJnXfeeYPKUcLpv/7X/2pCRMpNz0ugSWBJCEkY3XvvvTY0JIElMMEiGvJZnQt0rjQ1bPXggw9i4cKFmDFjxqCVrrx0X+eytENMKswmCZNfgkTvXTadA1EaiZEw+xR5plTOohAosA95w1VqW0pbZDWkXfGwzNAk3xzu7sHLq1chQkE2Z84szJg0ARPbGrFk/lTUhot44/VXkEuzHjRstArXeEXIJIe4Y6gfuvsKcaGDd/UMUff1rJ+85CPf5llHeYpJCr0Uy5ah0O0iP/3w8Wfx/cefQ5JewozFS7F930EcTOXw+u49+Br55cevvI6dqYwNR2qBVHeuiFxtPRVcDZL1dSg2tdKYCpun54wjKwbp4XA00D3XTlIeelaKSGGTJ082vpB3tHXrVvPedH7w4MFBPtCiOw2D/5//83/MYFm7dq3Np0pZfv/73zelpZEAGV4yapS+PC09p/YXz2kYU4aVFKKMsPr6euNZPaN0tPBJ91VWKdNzzjnnKKNMRpN4R2UVaF2DiC8FV6ZwLZOfaD9DXxGrJw8Hs2n4M/2I+WhQS8GJVRipoP7IU9vMIV9GOFtCIldGgkbrfCrtGhpV8ylzkE/i+eceRSbb5/EHFZekmjfCpqNkjtf+Xkt4vGFeZOX8RMF7kxjvC0hUVlRCVMNO8g0cesLWI0ZBRBExLMzrjPQpDIfOK3CiqXJSoNJ61WAM5lmEYXZqWbOqsSyn8ynkPnT+Moz3F9CQT6HeX0IoQ+WWSwG5jL2IrXeKjCJMR8wqXHrOYpw7dy4uvfBiTJs6xV68DYeDyGrSlgxb8nnCyZqe9B0sFA8SOt6pp/o0kCimE9gV42tSWAouF9Tqpxp0Us++tGEzvv7oM3h2/WbUTZ5qixMC9U145IVXbcWV/Mxd7PAvvL0dX3n4aXz1J89g5fb9KNS02GeK+v1RrN61F9/8yZO482ePI6n+p6Ixb3n8lWIdF0ghCC+66CITFBIasqj/7//9vzYkqWFBNzwkASDhIMEkQaE5lEmTJlm76DkpKAkNXUtRKe7f/d3fmbV+6aWXmhDR3Nvll1+OX/3VX8Xf//3fm9emIUnFlUJ1QlVKUHkqb51LMGrIaN68eaZYFVb9jOKqHiUKbbIC6LxD6zNljnjvhtKnZbmofShYqBYCeTZrFnl6+mVKLC0UMELSQzLLWXNU7D/5Av8HIogqP6aTTw9gz5aNmNLehAgbfc+evVi3fpMNhefJO76amPd1APGJl2IVeFf6b2fVDXZ0RAP3vFbA+uWds745egl5vSgeCLPuERr2CfSxvi+Q/s9t2GALlI50JbF68y5844eP4+Ut29FLGh3J5m3ITHN+GqYnARHvaEfrrDnI0sM4kvK2m9OOPGo7oVNU7wSKI4Ug40Lt4eLrXGlo6Pqqq64yw2nOnDnmYYnPpNikdOQ1aTGQlOC//uu/WrsqDc33jhs3ztrfgUYQFF/KTvmp7cVbykeKSUd5+n/1V39lQ+qzZ8+2xUZf+tKXLL7uKz3HN+JnKb0tW7YYP4t/tDm60vJADeQ1klb8azP6z3z4Glw0dwam1cfRoJ2fejvJT+QpH+krpPUUiYQQZX+O0DitoYKro3K85twLcPPFF2LGuDYq3lrUNNaij4aQ9V/moSkF8ZszpOWcqP3FACazKP8kY3R3RGZ5j2DZn1pwRHUoO0ILy4dQ1+7nqTKfnOdBVByvWQheEt7xjAY1mjVpBbwCWx3ZwOxJZnlr4Yys8tZEDDdfuAy/+aFrcem0yWik4ElkBlDrK6OWQkAWlal9Deuy/lqcoZ1BHnvqeSYawJLZsyj94shRUCQpQKINdTxnB2d/0ucrtIzeiRgTVoYe09G2tXvuyoqqSUwb+pKCo2BkmXuzRXpjASqiEDbu24/HX1mJux56xD5UeN7lK7B+5z5aywF0shN886Gf4d8ffRrPbdmDg+T6bLweR5I5KskorfUwDmVzSMciGL+AAokaWzlHVZ5U2rI+XpBQknCSwpESkyLSMJKU17/927/hb//2b82Tk+KQQunt7cVnP/tZm+/S5LtbUqyhoWuuuWZQUUp4CCXQNG8mISUrXvlonux//+//bUJHlrqLK4Gmo/KSEFJ8lU0CUEOf7hnN4V199dWmKCWo9JziSVhZOxtYY/AnU0MeW8E+8qsNDYLZFOLkhDCoDPWleg3rUyhZO7OBtam4xvU1hK39AfXZoukTJuMjV16KBA2g9gS9m77D2EM67TvQiQI9Jy30aWjtQD/bQd8ErHBEFejq2FAHrtQCxXCxhRqd0VybDb1TidHF5F8QadK5S8OA9NTUI/p6MvCHanEok0cPFXOguRVaEVxgvKbWFjJ/kd5sAW0NDViyaAHqyOvb9uzG7kMH0U+vIi2vhBmLng5/Hng0917jkBJTO2iYWe0sY0fhGmbeuXMnFixgnnV11r46yvuXQtNzii/eUp5qbw1JaphSw4YCKSYZQOI78ZTjERlhGmqUIvuN3/gNU3TiG6fABFJeOnfxxZ/y6pSeDCUpQ3mTCtemxHotQ31bP1ZNI46I0BaopUyYWpvAr1x9KT531UWY5M9hHLIYz3sxPw25EFvLp5EA9lcaUDkqcA2N5/Ml/OjBRzBh6jRMnjYbPezPOc3ZB2kEkW8cr0qpeQ6Kx7UCawFrFC/WiVZEJzq9Y2FQILIOQoVZkCfQtWuFMMhOp3FboQszVIcsMm6BnVnIczoe1PTWV2ntUaATddT1mQnqxtWggnpowo8/DbkZqcikssTbEjX2ysOHZ0/Br1x7JT539ZW4nJ4Y+nsQKlE0FSiwaK3rJUsbsiUf5cn0B7pT+Ntv3I/vPfY6OrMU8KEEMsEIujQkwftZMrcN9Uq5mTXvLU7QkK/oJ7Q20n8ynkSZSloJqbQhyxuKIFLfDF+sDlk+nGYh8loC3JvEX//Tt5Ar5u0r6Ov2HcLffftevLX7ILb2DuAwBbS8tz6SxB+rRyhex2MC0xbOQ8v0yfjp889ZifS1Ah8tyRg7s7eY5fhAw4kSDBIGEjxSVBIysp6lwGT9avhIw0Tq+FIsWu7/uc99Dl//+tcxYcIEfOQjH8FXv/pVE1JCLfyQ4NBch6xzCT5Z7ZpvkZC5/fbb8c1vftPua5hSwkoCUYtCNM+mZyXgJIR0VNvPZZt+8YtfNKV42WWX2cpMxZPgVBxn2Vu78LTI9tMeizZkr0VWbMNeCq9ls2bi09dfhwnhAGLJAUxgnUL07DV0be8k0biJsZ2Caida3QHylzbdbghHcN2cmfjkFSswa1wTJnY0wUdvPFLXSu+capIedWcvPcFILSVhtCKgPO6VuPJpgkZ4DI+PDIrl+EjroUKsk77fqKFVSk67qWHDEunZl85iIJmnp1BjS88D8Vps2L4L/poE5i5dDB89vFIuS4+jgFkdbThv3hwc2bUDOzauQ7Kvm95K0vpULEIZwrYSLYVqt58HBaapdpLikRcmaGxsRG1trQ0pSmHIAPrQhz5kYU7ZCNTmjzzyCHbs2GHzcl/4whesLd2wtUYMlKbClI8WF8nbd0aS2l4jAVqpq6FzKUvF1z0blmb5VS7VRdfiPYXJWFMeylfxNXwu5ao8NOogXVOynVhIFPKOWlLvm9YGSpjf0YJmfx43zJuGP7/tZnx08QK00piuo/cVytLQovcWD/sQq4sBNIAykQCKrPeLGzbjz//2q3jw2dcQrevAkR1HWN5WtqNo7BSZxy0KY87WxiqCHTW8qb6uc907QXBSX9BWSTW57dWN/+xod7zTSgWPQXePvcDQhelBnhvwQp1donlocE0q4kyESgUMvMb2frriNQWMXVDoZ7PeNkzRYBj1/iAtcXZ6HuN1CVrOzWhpaWInp5Jip5ODr5dVp00Yj3DIh66ebuyjYunJ+bGvs4fKjH4cLcODXT22mkkCUcvEtRcTxRvqSLlLZ87AHAoz8iweuPd+TJs6Ceedu9SaS+Us0TvLUhDu7kti5dYd2E/LPR0MqWFRSDN9di5fVEuC8zYHE2HcKBn4/HMX4Y03N2LctGk4OJDCvv4+HM4VbOl4pK7ehobq6htZH69O/f3d2PjWG/RUI1ix+By0BwP2Yr6fljhNTdLHI2A1370TSBi44UPRU/NXWjgi4ST+1eKO8ePH28S+BIYEgIZ4dM9Z2lOmTDFho/eStLJSClJKR+lKGcoCVzpSToqjfDSvp3gKUxklYGQ9a5WYhI8TrLonoSQrXcOlUmpXXnml5S+l6YSVhJLFpwbIkQzex0NlxGmeVe1PqzscY3pBWs5TcAFpVxuhQmKba1/HPtLP9m2lIRSlIA1QybU112FcWzP6uvtwaOdudB/pxMTWBuzvPITD9Ba3HOrHQDFCIRiGn541SWgbjoepKM+dPhHnTJmAGqYVk8HB9NQDbaiTbS/rXLyhPisOWvX666xPGhdfusKMJ3mL2jJuM/N9fcs+eusUvBpJMLnHCK5d6cGrXSIh1quj3T5gvGvLVjQ0t9F468buA3uwcMFsTGMbdrBN/fQeJJu6+3vtFRk/+THC9rlw2gwsnTYecSYbZNrD+WY0PhLN1cbiH82FqU1uuOEGM3jkdTXQO1TbyTjSAiLNjYrn1H4aCnz22Wfxgx/8AJ/4xCfMC9cCEY0WyHASb8nTkwco71zPqK7iFSk1GWUyhjRXp/lgPav0NTyuOTZ5aE5pCd0ogHjszjvvtPldgQws8a3qEo2yPSVMRWf7SQaYKGBrFOgYkOfYr+u1spb9bTJlwuzpM/kc/X+2ca6P/KSN6dk/9V7rjoP7EKitw86ubvQWy9jfNYBoDftx3o/u3gw97wjZwGtPyagIDayOmjjOn8M+FY8iQf7QQnjjHcYhy1hbjNYeCj+eF7SPUWyyIhyqQX/2s59Z46hDKkzvSdiWS1WJqfPp/sjgKR0Wo3IkqBKV0xHB3aw+joAihlJ3QWeuYnOl8o4qpSup/ouuJKjRNKBXHNjB9VXsMBlMLzdnyjls3b8H6WIW41tqsXTubAoWigh2ihLbaPI4+nZaLcZOvSeVQR+VkeYbElRqITJrZ08vyhR+RQpesxRCflMYDaTeRdOnUbE1I8py3HfPPZg+dbIpNpVMtNVqpowUW08/Xt22E/uoUDPhkNE6yDJoSzQ/hU7YT2ueSlg/vX94xYXn4O2D+ykgU1izaROap03COCqKPDtvf28XZs+fgTA7m7bs2bVzB/r6uxAOltixivg4O3Yd85Ylb6+JiLcq/Ob4biRmrgbxo/hSykZxq5+TIFBnF4r2El7uKHCWsdLQuUD39Zw7V1ylpTgKV5hQgkbg8pQQU1yhyqI83X03n6bnXLiL4/qb8reFD1IcgzyjWQvWka3g176INCSiemeRPKBvF54ztQMXLZhLbyyA/bTey4UUPewiTRltmlXEjPZWzOiYQIWWxJsbN2I16b9yxy57Wbu+dRz2HOy0xTu2a1eW/2SM8LqmlMfyqeOwhIotXqbioECEKTcWxsrvTRK4UooXXl/1un0R/uIVlzCIipp8rTbdzvze2rkfvSy/tsTSPfvqsvY61ZG/COtTIH9MHddGxUQlffgg5sychggVYbqvC7U05nL0ytbpPcSuXvgi9P5Bg6AUQoHGn+YKL5w1HUsmdUCtohWfVjLS3EH1eTWI9mpX3Z8+fboJU7WJlJ2MEBkwMljkaUvhycOSkaP48shkrMghUBylpTTk3ckw0jCkXhmR0pFyk7GlvBRHxo14RopT9/SMjjKylLaML+Wv+yqPUPwi/hLvSYlqKFLKUcaW4z1tx2ernRlXNbYRMx3lHTBddl1LP0DZsWPXbvT1aeFTDnNmT8F4Gs4xfwn9e3ahifw5hfKmt7sXtc2t2HGoE12pPMKJejS3tOPgvkNMm23oi4J2Nb1/cWuO6WbRQW/vollTMSEeQ41G3uityfHRi9wadTLeYRlGAoW/r51H1AhCgVNYQp0r3E2Cylp18UYrjEDk81DnQzh4ohJ4fWIIXdjw8Or7fFYHb95NA3leHmcueBXyaKEfq1Chgd7Tk2JSFAuirNBiEo2J+8N+HOw+iETEh2njGrFjw1rU9B/C5y89H3dceB7m1sQwIRFFSCZyhEooGkKGVlVOKyiVVjqLsIaglDLbkJKSNKSw1I4utKq0v6M5jHxc7UlRyZh8Vk1rzetHOlswoVPMa7JCi1sCKOU0QUzbO1BEkQq2mNb33mptzkzba/XQm8v4C6hrrCPP+LB+3ZuIlHJYSiFzyeJ5qG+IY8fOrejq7gKULstlljs7uJxKiUgtKihSkJABrUNapxyFkUcCCSEX3z0vdOFSIuLt4UfdE5+7c/e8nlOYjg4FThnpKBq6eA7cMwKjcSWuju6ejrpWXlJmLo6u7Z7SISqVKM/C5TANC7YfLWx7TYOGShNFSAuVWDsF0ng/PYyF0/Br5JOr504m/+hDkSl61Un4qQzq6eH5qFT6onEcoZDcQgG3+UiKbU0vRfN1NKbMtKGg0z5viqsVuFqFqTIENR8gxaattYxr1WIebxvjVIZaTCGzLuIxrd6l4ECMfDilvgYzWupRT/6po7KNFnKI8lFboyuBx5++BhAir6lraCd/P73USe2NuHbxHJw/dRKm1CWQYDmSxQzSNREkA1HyTwLllBbEkA9JF201JzBWrgLXrqOBo7vQXQtdG7v5LbWdi6tz3Rc6o8U9qzZVHHffPaN2FkiZubyq+cHxhEDPCVyYi69z3XN8o2uXro4eLytf8grbQK/7BLXsX0v+lQafZU3hK3iL+TRsOWf6FCSiAbz+0vOoL2dx80XLcePShWhjO8V6++DvS8KXY6NSlkQam2wj7jR5UEa59jH10XOL+CO8ZpqUA3m/3oujAUl+Uam9RWniMC0SJGsR5aicKPBqXwUiijS8jtXjubp2q37UsArTPa26cQQ/blBF3gfqoAo41PUHDqrq48BdZknvbD6LXCaNIIX+pMZmzJ82FT+kZ/Xyk09j/uRx+JXbb8Py+bOQH+iFn0xHw5fMWUaeCksv8GoSQ59oz+eyTJQ38/QcKI9ieXbKVBYRShzqHVNsQsEgg/GoFXFR8wR8tHop8CmYfMl+xGkN6l2kMr0uaimUAlSoGX36pYBa3qunYg3kMoiTl+bQsrtgygy0kKX79uxFsqsbr2vT1T56EmR+XyhOARYlX7GsRGtPlkVzrJ6gPH5Qpx8NxbcnCiWEJFCqhZFAfUR9ZiR8r6AnjTY8Y+6DV3pXTPt25tJJ1LE9wjQ+Du/djTdefRnjWhpx1SUX4aNXXY4W8lCbP4gGsQV5JUiPJ02hU6JxlCJvZAp+iE20r2gxGKbX7yljN/el3OQ9mt+qUQGqIX2GpuRjPCpKr4RVoEvVmTSRwaJv+WkjZSnDWVMn47dvvRG3XrYUcxojaEYKdeUM+TJJxqfQZPm0MEbzeOJH8VqJcmbvEXr2tQlcc/UKtDW3oEy3QLT3h/U+pubb6aFIofIZkTrAc0/8Hz+M1HYOh/PB+8HqNB0P6VrnUkpCp7SqnxkNJI8dX1Yru0qDVFDAY+VSqk0e7b69B2h75NHZ04NZ48Yh1z+AH991Jzq3b8OH6XX//uduw1J6XXVRLXPTNm45G6pM60gW8CeCyIfolVMs5Av91Fhp1ESpPzRHRwaKhnheydodxFeVyxMGSvMYKNCicq6txnylvASyKkQwEU4dV6hrHcfgvYGj43AaqqEj2nON3tLsKTOxf/du/OhH92FCcxN69x3A7k2bsX/rdkxtjqMpHEQ9BUADWzNGAaJhRm2PoxWQ/jgtwZCfVmyKSoxCoD+JpkweE2nBNVGpBXmueRoaU54VxYztdQwKEvYGemdBFFIZTG9rxkWzZ2JqNIYWMn4wRYatbSCz8EENW1BY+ShcNEmf6us1D7KJFuKctg7ccP6FuGD6LOxbtxHTxk80YVTf2IpwXQuVYZkljyFDjw/yQEo0mFgMjb9rbF4flLXhyBMITpCcCKyG4WHV8YbjCQXSXEZnjG0jw6KvvxdHDh/GJZdcTKHox1uvvYbLaVj83//0R/jEucswIZJAbiDDAubpjBWQLGTYBgJZ9bwXiCOjzXClrELy8KnA6Z1pUFbLvSmtkMkXeJ/Si0aJXiPwhkmPrZcbCtOQOGtuPK3618SiaI4F8bmLFuK/3nEDrlswhd5mD+IDh9FAJVfro9FVpmFNvtLz2oVGK3zXbN+F//6v38Abuw/ZC/zaI1OrarT7f57eW07eQSCPIo/a3T9IpTyCyn1XMLzNTjcK3o2sdXHcc7rWUKc+P8UAD4dBkvIhFglj8rh2XLx8Oda8tgpvrlqNJdOmIUaDdcvK1xBIDtiWh7u2bkOIbZOIsE3SffbemjpsgLwmr2yg0Itk9jDqmiMI5vsQzfRjCnVJgHzpp2EsKFZ2mtJApRYOaSU4m+uEwTGKTUwkDe+UmxSXc5ONwSrh1fd1PgbvHaqZdZCR+dOikrpErTX4jZddjRuvuBrJQ5249pJLcMsN1+GiRXPoGcURzmYwb0I7ZjQ1kAlTZDoJIbn9OTLdAA3kNOpoVNfQou+goGju68MEHlfMmY15EzvIrJrLEjNUmJ7Cy1NsMnJyVERZhCg4r1l6Dj579aW4fPJ4TKUVWTrcRX4O0AqnZUgFpB3fA1ohp2EoQiadxpHOLnQePoCl82fi07ffiu3btjMLP7q6+zR6RqBFGdRWPvq+G70EiiF1OzGmFK0GKwZdyRMEovfJxME2fAccDUaKa2hUGYJqimhnElnmeRqh2uVDu/CHqUh6j3RiXGMDsr3deOCeu1Do7sQnz1uO5dPGoTlCA6icRoDue17eEftxqUyPrUg7nB6bLcFUM5L2/nIO/iyNW3lSWpTBe2F62NqcW7Nh3nupR5epGmxXHR01H0ewpec8b2IWrf4i2qmifumai/C7t30YK+ZOQTuFY6KQtlcYxE9ixbKGFfl4H3msh+ffvu9HeGnlOiQSzVpnQl4SnzAPWml5Pq8NHmxXFj4jj210io8MI7ZBBQUjtfv7QcFIeQiqw44H3vEZ3arC2ngCxWyebpb6cRmf+MhNmD5hInLd3bhw1izcRJmjlacN0QguWDgP111yEdpra9BAY1aeWNinVwH6TcnFa+hpJopIde1CJNeLKTSsp9JAun7pUkwkPwaYn63yZfuQhcxwFQepKCcKjlFsIqY8Miktgbw2eWwKl9bX2LKOblLcEX8MTjCQKbUzgzaK1m4kYTLb+LpGXLjgHHz+k5/EeWSuWgqzWmq9ac31uIpKZ/m0KVjY3oJ2Cp9ELoUa2rnRMi3fXBL1pQxa8yksqI3itgsW4j9/6kbcceNVmNjaaIrTUyJsf7GYmE5XkigUJK11tWhLxNFKYXHNgtn4s9s/gl++4gJ8ZNE8TGHkWiq9egqqaC7N8pQRjYVst4cMuWv3QD9+8OyL+ObjL2MVlVq8vs6EqLbW0SsDZV8I2XyZ/UmDTlTHPo3zK3/RYPDsuMEJg+F4okH8X43VMPxeNb4XUOlHqoFSU1/UJ4Z0v72tDVMolLL0qvfs2INW9tVyZyfbKYsaCplzZk5HkMqsMeyzua0wLQytZtWnpfQagdpfksFHpRMoin/0/mQW7fGgfWWjkM/RyvaUCdljqFAjFY6g3f2Zqicv+JNXH6GMqWUe4hkNkR7ashGRVD9uvuwi3HHVxTS4xtlWTWEaaTYsKSWlybYEBXBtPQb8YezvSdFLi8IXThBj5lmqYEUqtgI1mug8yELHSfLh7VWNpwqUl5PD1fBOvKzw6qFKd+3CBks/7HlNdWjIORHVQjDKfV7OHD8Jt1x3PX75E7dg+eyZ5JM82mrimDWhAyvOmY9ZbU2Y3daCGvJDJJlEC9tHC4yihSR5pgftoQIumzkVv3r5Jfidm27CjUsWo5F9X4PYeuVAUyXehhEs1QkmK6twLIig8tA0x6ZdET7/+c/buz+/9mu/ZstTRSS3YsgRbgzeH1R3GKOrd4KClj1TCUjwRMjjWt1VR+aQVRXXEBEli74oFsyksYyK7XduvgE3UPnUDvQg1HMEDfTampBHE722Dy2dh9/+yFW0ji/AudMnUFD5mAaftSEBBxULnAE6apmw5tcStJIn1CTQ5AuikQJtNhXdr195Lv7oIyuwrLUB5cP7UFPIIETLvkRhqI16syF9QiSMzRSwT23biYdeXYvDyQFvojgYsHkXW1UgNqQS1wviplgZolCLpyKdweCEhhMcglMpAC0X0Y38oPyDbCcN5k7oGIeZkybT6GnAxQsW4Isf/wQm87yRnnYiDMwa34aL5s/BFBqqbVQy+nxUkEJGq9j0mkDYV0QNFVtdOYXGUhKTEn6mMwMXzJnJhk3REGIcCkM2Iwo51rfIkoxQ5Wr5IINZnC1hrWNQfE3MDyTJNwVMb27BxtdexdzJE/HLH7oK11xwHiY11dNzy8FHBaj3O31Mo7dAxRWpRS6YsCHTIpWbrRNVPjLGxM88WGtUFJvXMmc+OB4SOMXmeEnn1dejgeM/hwJLt5K019uHrgW6HwtHzMiNUb5E2bba1i9OmtaQ5nrlWp5ZkPJE1K6jYlo8sQMfX3EpziefNRcKqE+nUZNOoZlx2mlQX7dgLn7t2mtw86L5uJD81koe1WsieuWEJRt697iqHCcKjtFIjglVUb038eMf/9iWm2oCUy+8fuYznxnsyMaojFfdGGNw/FBNw0FaWhgZiRayhJWW/sckgBgo1HtnEiyyfGPszPV09VuoSBa3NeOLV1yC377xOpzb3oh2Kpt5DQl8/rrL8SsfWoFzp7ahkcJL3lxYX3jTykYJtKomVFfwmN/jBX+pQKFSNMUapwBsCgUwjpbd7rXrMK0uhF+7+Qrccu3FZPY0IgV691Si2vIrTUbWp0/6IjXoCiVwpOy3D2FqYUuR1l2Z6Kdg1UIErQAtFPL26X/JohwtPzF+AUNL6V0nfT/gaH0y8USDUnR4DDA/9cUQ+URgio30DNMAaYjGMLNtApbOmI0FM6abNY5AHhEeOhprMbulCZOpWBqTafi6uii4ytQLOfJGDnXZfgqpbgqsPiwdV4dfvYkG0fVXYEJjDPWRAIVTnqpEw4Rl8qHkxijlI0jpmsyQV6jy8qhy+wJR5AoB7NnXiY5xk9DS0IrZk6fi7u/9AMneASyfORmfvOYyLJs9HQ2BMqLkCe2jWmTdslTfKW3kTS4ORmvIqW4BGzmXcWxpC/lNmz0bQ51gGN7m7wer03PnAtFMDoYDJ3ffOyjdUVpJTaLFH8xOzpvWuNqiMYarL+tFerVziLIiQoJK0U0kI10+exJ+96M34NMXXYLJ7J6tqRSumj4Nf3HH7fjiZStwXnM9WvM+NLCtYiUa57SYtexE7WTGM+tjH40elXveGxxDJUdgEVDKTO9N6CVVvTcxdepUe3/DxXEN4I5jcPxQTctqeto5Ue2gUM21iiE0Ba9hIBmm8m00cCfUPJlemG2gB7SwLoZPX3I+/viWj+PPbrsFf/zpT+HW85ehIxJCA0VCvJxE1EfvigIs5POEkzLx2VHeGjlYQkg/cp8+T6K5G82LJMjp2d5+DHQdwLJ5U9G7fy/2bF6LCxdNxv/7W5/BhXOmIVr29jCSIvRrHi1UQwEUQzFcy9M6FKmAS9o5JZ1EOdNPQZRGOZ9ETTSAhtqYrbwrieGJWSpVluoDBdXtORq+F9BTg0/aRSUt/pnQ47ntN1o56kvSUTrFcRIwSiqGzJOhEUNmCtFQSdBI+YNP3oZfuvxKXDFnFgLJTvjSR1CTOoKJviwuntiEP/rkh/FXX7wNK2ZPtaFLLa+Pkk/snTCmoZVxzHqoXKOAK6fQzslTGU3HRuKYNHUG1qzZiG1btmFSSzvC+QIe/MH30b93L/lpJua0NSKeSdGoStmrAr5Uxuaf44laZPNF9PZ0Wx62IXQ+gwbWsZbxQnl9dZ+G4ZBueNfg2mk0PJEwUnoj5Tf8ejSojnd0XJ0TR3j+qGd0XUFJAckHl44GlbWQKEpjJZovozHnx6KmWtyx4nz89k3X4Mt/8Hv441tvxcXjJmBeIoE28l+Q8fxFpkN5oHfXhpqDaSpdE2Ze+icKRlVsQmchOByD0wyS8BUp753yv4RKhTe0Ni1UzCJKL62hUMT4cIRWVQxztRUQ72nvkbAvTwGnTVOJfJa+kjGwoCp5gtrbj0KuMolCpeZ9ah8UJikk072gwY1586Zh/Vsrce/d30Eok8btV1+Omy65GBPoSYaTWZT6klRpQQTsszoBDGRyyBa9HUvkOlDuIEIvQmUL0dvLJ3uh1VvyGLWTiU/Lzq08v9igNhqOQyceuEuv5TyU9S1fTqiBQM9rooen0ZZcFtMbavHhZYtxxxUX4cpFszCzMYL59Mq+cPUK/OmtH8XV9JoaqSiaigU0h8JUkPSN2Haaj7MMzB0SjxzNPQ7M09bPFGElsAKaa83Riq+tTeDqKy9De2Md9u3cgUYaYOfOnokpLJvezWulZtI88rLpU1HPvDQ3F8mTt7IpehI+xDUvRIUbTvahXttADfQj0tuF8YkYJrfV2wcxqsg0BgLHLKPhUSB1xuar3FOzaxfRBLtwHe8kCmWMZ5u1kidmtzSghXHGkVfqyBoBecxq+6OAfFj5WWqW8IkFY83hMFypOUU3BqcQKkw0EhiTEb1Ni4nmXYlN9KImkVIsTGGkXbsjZKwaRtYXyrUE3+wTa3XGL2tIKWhHW3koZMpD2TJFf2WxNB/U7u55Wmva3qu2uRa79u+wFY8zxo9H19492LjmTUytq8cVi+bDR8HTTs3ZzOciJVr50qJFKi8pKmVD5ab9LsO5NCLZJBKlNMuZQ72GnJhdhM9pVxNVVNHH4F1CpRmtKXmhd3DV5mG2ZYQXEYqkoM9bHBamYgnQsxmfCOH8SW2447IL8fHF8/A7N12PG5csxPR4BC3UCo30zEJsq1JGQ9d6ITnMRMlk5DsvM7nmOloJfj4wnskT/mk9SJG8mQgHMKGlGefPn4VPffh6fOYjN2Le+A56bzl01CRw0cIFuOq85WhmWZpouLUEyzSYcuSTHBJ+Gk3JLpY1i7ZMEkub66ioL8Fv3foxnL9guo12ePQYAwcihyHbwNCu9V+GShVaO6mdJSM0bKgRHd4S0HiOircYTe/CBtnPNUypFdJakOTnfXvrcciyIp94MkuySsOdQo0KMXHiiQMWa3RwymxMqZ0ecEx3TJtXwk2xidEsgof5kmalNDykWQcfQrSINXypOToxpvddJJ2Ty+xDg0IxrqVsMDQYQYuLlr2xCZ/Jk+/7qIgCsRgmTZyCiU3j6aWV0bV9L2Y0t+OCmXPQREU6g8otSu/rPFrdGrrKJTsRoXeXz6eh3SS0+bXmBjUZHWd568pUYL1H0ExhtXDaZPiy+gQLhRbjaAi0qmhjcBwgHtFLs9o4WbtNROgxh4nBUkAOuG3fVuIvQAOinoppaXszFrc0YtG4VnRQ40RyGbZjHrXkMb2/FgzolQDa6uQdD/XxSAk6JyZHgRFuqU01NCrLP0Z2jFLg1YR8aKuNYtH0ieigt6U5tQQjxikwx9fUYnZHBy6aMxMzaiMI9R9BKNtL/k4hWOhHY5DKt2sfPrRwFn7/5hvwBSq2CyaNg+2hX9QuKmMgGoxKh8pNJ3OEQ5ElYyQ3fNbeOprmINqcHPlLQ9xge+XtU0l5G76U1VKKBChi+BzFTJ79W/ucSjnqpw0Y/CXv/ESDincUVE/SO4VWHTYGpwZEbbOZRmlzrRjUAJANAvHcFJyQ7lqBQqcgZjGmoZVlhpcsJXpBRE2ta2ObcklSj/GYmaw1/Qx0IFrWlXta0lEkt2jGK0fUV3TH1zRTCE7Hf7r9C/jSb/8uFrRPQjMFYA2V14L2CVi+aA6iUVrWiTIypW4a+QWU6KlFWD5NIpf6+1Hu60EzO8cN5y/Hb3zqk7j9huvRoi8HqLTFki0tt3KMwVFQaSLDQTjqgpcUImkZFuIS9l/Ndwby5Ai2ubbi0jymWCBPjzlayqGBHnOsvxv1tLj9qQFbIBAp0WzKk2u0DRv5Se+u5YRsFfESYxIl+I7JfhCMryo3nRDTE8VsithPb5LeYLqbPJGl91Wysui7gwEaOHHWoZhiPG0Nx6euXHIOfumGq3A5FVhHDb3PQi/iyGBmWx3+y69/Ab9y47WY11jPulBZ09tMkI8iWvlgvWkMhoPJGEP9yoPXnjSopllFuam9JUvUjPK+tNiLSo12E/wRai8aKzrXptb6yrpe+RlgWIrHNK8VJpllDr5wKMMTCszuncEptTHFdppBjDSInpXjDUBWAivhbthAC0B8YR+CETIkm67scSKjyfmXF0ZU/Gpwl4xvjKdTNbvyY7rhYBh1iTp6gAFayvQCtdIp6MO4hjq0x+vQmogiTKu+vb4BdeEgprS2YsXc2bhm7hRMRT/GlXvR6M9T8aVRT0E2MwHcdvE5+OM7bsbvfPRaXDFlIiZE9dl5LYjRnnYBxEK2fa1KNQbvAUQ5oQkRsYfxDkOMKUCvOIJELEF6e68J1MRrEFeY2oE8FKCr7aOhoTSC2oWkwhceVNIiVg9gD4J4pwKDdytyRE9Fw2FE6ZWX6THWxBN2Lb6LkIe0U0k8rD1Q/Wipq0ddTdze56xlQtfMm43/cvst+P2P34hPX7gUf/TR6/H/u+M2XDtnGqbVR9EcDaKVvFpLqZnXV6F59FTvGAiqW0rtMBx0Xy3r7tp1hW+sX/JnMoGHQonGKvurdryxfSLFZBWQwtOnlbTFmUK1oEn3laqXx9CJWudEttAx9bIKVBVOMKbUTj2oBdQ41kBHN4eBVJOGrYU695hFKivIMKLeR6roL20koSkRG5qs3LdFI2RE3RefGqPyp1MtlXaiKsD70pWap9E9bcAbZ8K19NiikSDChkCc6QdkrVGZ+umR+WmW6dtyMxob8PvXXoW/vPEK3DitFa3FATRne3HphBb85nV6cXMFLpnShCnBMtqZfiMz1eczfMQAhZM6kVb5jcSXv8ggSgyio40LqIBmXWOknz5D4ic/eO+IMC7PtVWahqc1TK0d3W0uVUxCzwwafnaohifq/TGdasm3kmGTV3hPPONMrKrMK6BQvYJgKzUVUCpRYfpNaYqjgpE4QvqgqO03GWI5o4YBKrcwlWqIStX2T2TsUMCPOp7XUx61ES+fNA43zpyKOxYuwKJIhIZT2cqmF7lDzJMpI0KFqfEy1a96zcAvOogCDkVb8Yr7eW1ZQUYQKo4MH8kX91NoJEYDKKQNmDV7G6B8iCLmi3qjMgxJsA1qGS7zVF8QIXcZH1gTDGXuoa5PECi5MThDwbW9gbsgVp0ehYIh5mRI1U1jUP6Oue+YqgKV6INYDdXRhXa/EmnwvHJtwo5CLFDIo50C6rL58/DFmz6Mj118IW5avgy/ct3VuHHRfNSVyogVimaJi/m9XQdpSFV61JhJ9R6g0g4ioYSINW8lbPAeD147elxhV1I25vG762r01NbQcx4q1BOCuvPuYChmdWqeojs6daEX28VUDH3OKEzU9+VixHjlKEWr+wLvaZWLZ1Z+L3wMjgWRZjgOBy/ctbXDoZjefVFcPV+jQjofatVqVLiBy2womRMGg3mMwRgcL4yqdIolWtcaRozQW6BlV9KCEX0VPIEPLTkH1y+ch4UdbYjntXGzHzUUmv684vDZSqI6aPpPI6hjym0MqsF5qIOeaiVsDMbAwZhiG4MTCprLseGeEo/0xvQyecIfofKKoKEcQCRZQE26gKaiH4203+J5IO4PIaThMHp4el6LYaoXx4zBGDh4JwU2ptzGwMGYYhuDEw622EhKyhSb5lZKVHJF+HI5NAR9qNM2YbqnXSQYz3bSFVaBvDSHYzAG1eA8teE4BmPgYEyxjcEJB213JI2kRQJa1aatnSJUb/LeioUslZ4+CUlFpgUNWnBCpVbWOwkGElBjbDkG7x7GlNoYDIezRoJoJwV9cUCgr3wLCvQIcvQS9Nkd3de1vAl9tUDXAt0XCvRRVe+DfCVDxdUzOlcc3at+VuDi674L13Pu3D3v0nL3dKzOV/cEuueeOdNhRHFCIaOXuv0BTRN7YKqKSi0UDiAU12o7aT3Wz2b7y/CHGT/EcAkoReZtN8k8lMoYjMEYjMG7g7NGsclqk7Lo7++3LxKsXr3alI6+LPzEE0+YEnH3nULRPSkqxVOcO++80/DVV19FOp02BalnpBiVvo5SOoqv+0qnt7fXrjWvpLgKFwqqlZpAeSl/hTlFqDx2795t4fokkJ75wC5JVpn1CkGl7Hr3TUu1A1rurToF/CgEfCjQU9NuGEV5awxzX+v2nvOZbtNcmxYUS7F5qY3BGAyB+ofDMRiD4XBWjflIwegDqH/1V3+FDRs2oK+vD1/60pewZs0aUxpSMDU1NRZH9/TZHSmrf/iHf8Czzz5rSkbXEydOtA+sShgLdG4CuoJSSvpisZ5vbGwcVFxSVLqvryJIQTmlp3Q7Ozvta+NKS2HqkN3d3fjOd76Dv/7rv8auXbusXO5TQE6BnongqZ8qhTNcthwTwQP5oHkGOsxR8eVU1wraKkgvKu+Wqdy0mOTM91zHYAzG4MyCs0qxSXFIucgzkiJ77rnnLOyLX/yiKYy9e/fi0UcfxT333IM33njDPLZ9+/bZvaVLl6K1tRUXX3yxKatt27bh7bfftnS3bt1qaUnprVu3Dvv377fhw507d5rSVDryup555hlDxXnttdfw1FNP4b777sMjjzyC559/HmvXrrW4///23gRMr6M8E33/fe29pe7Wvu+WZNnyvhvbgDGrAQ8EAskNTCaZZJIheS7J5M7czE0uZDJJJhkmJBDIDQMBgw3YxruNd0u2bMmyte9rt9Sbevn37b5vnb+6f7W6ZUlIRpLrbX065z9LnTpVX33v99WpU0dEKNK699578fLLL6OhocGQmrZrv0hNebLEer6ilrsqXBkV0tI4MnoGf4+sj5m1ombVwcHB4UxwURGbSE1koKhJEdu6detw+eWXIx6PG8IQ0WibiOo73/kOtm7dijfeeAOvvfYa9uzZg23btuGJJ57A5s2bTXfkj3/8Yxw5cgT/8A//gK9//evo6uoyBKduS5GQznvooYdMNPbkk08aMhN5qStUpKj1v//7v8eDDz5o0lQeFI0pj4r4pk6dar5KXldXN9Ilqu3Kv9ZtJHg+wtLSuDzEjeb9s+rSHmg+l0KVM1NycamZDKSA2l0LS5DmnQHJSBzn4ODg8Pa4qIjNDuwQIRQZ9WipbkGJIqJ58+aZaEwEIyKzXZRHjx7FnXfeiT/8wz803ZCPPfaYifRELoqo1JWor4krilIX5re//W189rOfxd/8zd+Y7kRt0/pLL71kujR/8IMfoL6+Hn/0R39kiPVzn/scfud3fgdXXHGFyYeITfm86667TNek8irC0zVt3nXMef38QJxrpQqtWhqy67XbzHMzMtaIcKPGkeizIhpcYt5hqzle6xIHBweH08FpEptnao77oyE2kcWI0CjJOHPFkzI0M7yGc3viHWfOG0nRO3XEolWtmtLRwHDNJk/KMmmZYeHVNHSMnkJpKIhmt9doPEU7Ijh1LYo4FCkdPHjQkIQiLHUfqrtx5cqVJjpatWqVIRyRigZ96BmciFDHK9ITWX36058220RGiq4++tGP4s///M9x9913G2LSdn1p/L/9t/+G//Sf/pOJBnUNdV1aiNBEWCJHG1nqmjZC0/XsoBb9vhihYSHmi9ysNyPaZpdVqQV3nRl04oiOGC31No3squqflbGn1B5rt1fXDUY2WrE6qWVVqoqsGdLHFyVyjqFLjJHj712/xx6jjaP3MF7ej79H3Yn3d1HBFk5VzJ+WY7cb4apOGU/433j7R9dUpvo7fv9Y+aVgvIyM3FCN1Bwweicn6s1xujMiPHYkjbOH0yI2z/AwA1zxPiGnrDLDFVJXiRSkaIlHDOUy0Fd5hkhFaUquUkSxUkApn0OFpFMp6oa8ZlGoirk3sZR+aOR72Us/y6OGuSYxn9+Q6D0ppiGl0jfCNAYxw/UciUHkIdIQ4SxatAiTJ082ZKZnaQ8//DAWLlyI5uZmE4VpJKIIacqUKWYUpboOFcUtWbLEEM2LL76I9773vWZdxCRy07M1nT9r1ix0dHSY67S0tGDx4sUmChTUDaloTySmpc4XWel8wZKZjcpEdIIlOPv7vEYNG9lVKZMVUbMVu82g5jx7Em95ROyxLBn+6f/jzj51UH+MUIesaklqS5Zqy/rxnCeJ9M0743g57pzq0gN/mYbJIyTmyFEx7+pRmT23jPpfFbWZs4kRg1sDu818jXxEmJuC2iodzjxzweyZbNdCyZj7Gc13sSpaP74kdY/mBMpFBt1Skf/J1ozcq3fvsnf8j5soWvA/6Y9xsCm1GD3bS1IyCpuunP+xJTv22F8SmJEKy6GSp6g8lDFbLkaBRnPs6cJoOcmYS2esGOOuz5nrPHO+Epec/Ts9A4txIkyEVmSTJamkRF6hINLMdJrkk2Plk9ZMI/P7aeZ0H2pc3K9P/yuakygN7yatqND09R99wsTONq+i8wpPhaE05fFb0xcj+YhMPvjBDxqyUXR1++23o6enBzNmzMCXv/xl83ztkUcewdVXX4329nZDWO973/vM8zUN5hDJXXXVVWhra8NNN92E1atXm+Nmz55tjl26dKnp0hQpzZ0716SrQSf33HOPef72ve99z3R1Kh1hxYoVaG1tNXkdDxo4ouhSS0t2EhH0ROecz7B8Na6Mt3EMjt99hqQ2LlSWnogyzarWTaakw3bviIYZMevVw2vFwvtttbMqNnldp0ZG/84upCfjiT4nIj0q0rkq6Jmt+WNO5FDpNYvq7/FE+T3unkyua0XHKQ2Vkz3m4sfoRAIC79jaq5ESGFMKo8U1Yfmc7vZ3GtKlUtU50s3o9RzZbtls788jNfvHEyjUc8lIAYwVDyo1ta+z/WEhHzN9Qnq1m7Qug79mzRr88Zf/T7ROopFmw7DVqyhNN6K6TdGgHx0YwJo3N2DqvLlobZuE9mS9+QpupMSohUxfItn52ah8oQCK5DkN8dbtmfd1yWWahsmy1cgABHMlrzjkw3sl4P0y6kTjpF8aGq7GrC49dSMquhIUKY3t5lODF3R/IhJtF9lqu8hR2/Vb3YV2eL+MoC0bLRWNab/O0brS0Lk2DUPe3K6l8qDrjIW9ps2Xxdjf5xq6n09+8pO45ZZb8IUvfMFsGy+/FwRURVJILit6V47aYb76q7qjaDyK9Na8RK5Gqkard+l0AhfekBYPJimK3aKjapd2v0Vt8xxJxW7i0pyn/6qEejYgHRIsSVsdleHxDIZ0lbocDPBetYUug88jNn0jS9/Rspn0TlVGWWZmi7dHqehZqPcZfw/GwFXXda9mDxOobSPf+MY3zGsven4tKK/SbXuMzfN5B9mhGluk2zZ55jbPXJsN3vaqaJN0R6s6ymzwbrNaOKPw9MQrYWPDqudNhJPtO5eoVpNZlsq0U9QbZaZQzFNvuEodkJ3w7teDvpDv01f5BW72yqZ6hEnPu3tPvNd8tOZ9CGc0HUFlLpGeqFdN+vS1r31tZJuVsahe/dSgOlYuTT5Nk2HFcGO+UEAql0WJCptobMQgG9FLmzbhew89gte37MBgKk/DEkRen1YlqfnZwLIFbVOqSpSM76NHqY94BZimGUnABVcD5J9Q0YcgJcATpAAlFqS+4iroBoLiKEaB8qZUyCIbQeQiiJgscYlo7Dbt13aJnsupgHSM0tC6Ii+ti5R0TJEEpP22sHUdnad9Ok7kp+32fB1vjxuv8AXlR8doqWPsuXa7w5mC5W3KvFruLEs5TZruq1QuoajuEO5ST0M+J6dHx+tA25XiLe26hdcYvS0S7ZX6SbSur0nbCMa0lTFiWrkRHnyWIH0ZT794t2ArQ4G78mRzk0cel9eUZmy3FW7TRyD5P/dUhb91jL7ArvtQocjY+Nl2fWq/1W26v9qyOIu3c/5AhC9DLitTrTfvnr0/U+PqWaIu+axUy9ErvZqS8U4cgffTK0fphR08JRl7bC3eZvdZha6hdpIliakzukQbnatwjUsfbbicRU/nPXiaIeH/JgzzxGdEZSgC9Gy3FZr1c3IvqrXTgJdtu2aLOBDSlEhhRmBBDHPPqutuxNU33IJcLIn/+b+/ix8//nP0ZPPIB33IBUkGNN7+iD45p3SMCfDSU62SzUx58KcxEFIm06A0lS6jISqaRIUiXZPBkhgPtEoQIh8RjshLpGKJpTbq0rMxjYi0v7UUqWi7HV2prkwtlY6WIkJLhjpW51lC1DYdJ+i3okUdq2vq3ImgY2wea/Ov9B3ODJ4Nolkx+qFGRbUqSU+8ugmqrKlbRZa3jtUTAMGLcHRY1XBJL0zkZw3VqK5KLMZuG1lnEkYEL+Hjt50l6J6sWEiXdEmfXwbITz0Lj7SZIgleXzf2LGmtAZaI0L3sVncbB1NLs1GiAwxUHp7UbLwo4OmQJ7x7s8IiNeIVgx6xyKhTU6o7fFoeV0hWZ2r0Rpur0KqV0ZXqcRL+tvLLgvcxYpEQ71O6xN95tgfPmVOZcH817yP3Nza/dlvNdvvTUB3LTVK7/xfFaVnP0et6FWVPVsSWUQRGI/3Kps144tXXsC+dxZW3vRcf+fxv4DA94r/93g/x6LoN2NXbg0OaroqNyzyKNjdEBaCYwSdqdNSLIgtMs1PkWJgZkkaahj7FQs1wW577VKjmXCmRWp7xlT2CEUmIMERSxWo3oUYoainC0FJGQEPyLZlYYtLxNvKyUFr6rQjObtexIjV1eVoy0nEWivK0Xeco7Ymg80SCWhqjyzROdrzDqcE6R5ag5BGr6srUnTyjtt5UCgOswxzLvETDX+BOj/s8My0YHde59FoD1E9PvLQk6prTRy+DVdG6RMeYbjsvGQ+m1dfIWYR0slakSxLdz2A2gz46cHluz1FkkLzW4mXQMyxc5T4rKihl0biTPNjHk+ikeyda0IKppPRQwpPakrvwQTWhsDxlqY219iCHiVaEUbBENoplqePMTv3z/swPI54WelKFWbUlLDnLCnEWoWpP5bPoHhpAWnbOr543Rf1sL8y3oW5FZNymiN67E96gaSRctbdWWwRml9dOgmxTIYq+9mHI7SzBctMpwV62thqkzGFGX/FEElneeJ43/sBTz+Lvvvsj3Pvsy+ilEVlxx3sx9dIV+Pm2HfjWw4/h+U1vYefhw8gURQhMjWGqRmv5fPQIWEAqMNIBhkhqR6k0W4aPYWN/D7pLRQwzE3lKSSN1uJQClnwFVIIkRSkYN4pQLCwpiYBEaiINkY5IRNtFgpaEtLSkpu06XgbCnqc0dJ626Th7rCUjHWfT1VJp2PfWJoLO03H2PAtdo/a3w+nBGBdrkGhbNBJQIyDT2Tx2H+rChm3b8PhLL2LLgUPoz9Exk6NFZSpTF2WuTdPjbzVa01yVFOujQj2pUG+VtCdsoOWiIb8KnTs7DZgZJVxr1EZOsNvOHqQrgvTF6kyRDtpQKo0NW3fg52tewbpNWzBAh1JRmy8YYjuTg8e2M9pUvGyxvRrTXaHwnpi4Eh7NstZNueqaKocC758uKO/5ogLvs2RG/I3euzRB5VbgUoPjNCVcjsJaRzpfMM6DpXmvlmUdvfrxBp3olzTT+7OQQ19WWVfrTsebOuVvU6f6q+47V1D69rpWj+SUD6ZT2Nt1BM+8tAYvr1+Pwz39dAzlDAYZfASMeO1Fdpx51Pm8ez1W0uMl6Qhv0FxDkOp4LUzERv3RfRfpHkjO4j2eJrEpOx68KvNgCoXip4HO0RAUInH05st48c2t+IefPY1/fWYNypMm4caP3IX5qy/Fs2++hW/cdz8ef+5FkhsLUEOPETKFRN+YChNEigozwFJY09mJv/rpA/jLn/wUD77xFtIspFy1LKQ4JYXGjNjUV+uvEowlCkGkYklK+yz0u5ZwLNkJOk5iyan2OG2z+22adpugbTZys9fQfpv2eNDxNi3BpqdtDmcGNS/bTqwdVm+APE09c6pracHm/Yfw3YcexmM0/IcGhkhufmQKPIYNt0C9VA+AZkvRMwIZfJDQvMbLtCllvbai7Wq3upgaMJ0v7uC6YiMer8Yt0fNjiekC1HK0/ZwtWB1TexSxZWlsI3Q4jwyl8dDTz+Bb3/sB9hw+wjZXRppknuNSNJajU6n7ZQbN+aVChq1QZKX7YF6Zlu6rzPvSGYpQzLMWbjN24GIjNQOVh4SaJJLRP/7MsKyGCgW8QCN/oP8Y7ZEPKRWRP8TIpsSImMae5ZijE5XJq7xYJ6oWUzVKr7pahdnCDVrq2W+Bhk1Epi0aCDcWNqnaNM4GpDN2KXKzvU1Z3m840QB/vB4PPfkM/vmH9+O1zdsYvUkH6AhS5/TKVZb3qkFYijSU/wLD/JK/6JFbtR+7xHvLS6g3uUIOeUaCZZalyNDIGCgvNl+ni8B/IarrE2LTpk3mJefrr78BiYQXtajgFYjqulpTZWZIMlsP92LNzn0YCkWQDUbpxQTQPTCIvT29aOpow+y5s5FsajIR2mvr1iEcDKOtbRJJKarUMMgCyofCOMZLPLdtD773/AtY39WJA4ODOHCkD8VMAe1NzWhNRkzF0+54s8SzsQX5J2PkcGb40Y9+ZF5ruOyyy8zvk5Hx+Q7pkvSTbgcNtCdlPSMIB5ELUeJJM3K3kqjHi+s2YN+ho4jGEqirq6cuKlKTCafXTjLTqEE9w2WBeETHdLjLlI+GzkvlSvm8+fSOGrW6+XxVh8e0lJFiZONVmZrtIpGzU7619VQkCZnrUmR0t3X34tLLL0Uo2YA3Gb1t27ELyYYGJOobENHnguRM8f70BYZigYaYRshHAg6Y22K6yrwMVoieOTcWgn5k2dZE22ZEpTlK92LleLz++uumq/3aa681v2Woah222ryfT/C6IL0a8rpnee+sviHarV2dh/HgM09jJ+1SkfcSjEQRr6szjkKItsuQGcvC6ozgV52YNS9NY7iqyOoVKe03r2BoF9eZrtGb6vmj59o1omb1F4XIzDrW0iH9lm6Uo1F0857bpk5FvLUdew91YRN1KJUrUo+azaQYoRDLgHlWhuT8VIJqA54TJJpTT5z2mtH0vEeNkdB6wOidHEfu5DUQDrGgRsulltikJ5rSUPqkWaLsNitjcVrEdh2JLZZIMCFzC9yjCtc/sjYzn+GOLZ39HrEFoshSSiSbAsntCL2bLXv2UPajoakFy5YsweIFC/Dyy2uQoFLUT5qMYSrPED2FZzbvxtfvfxg/eOFlHCzk0cfteRLfUDqHPpLbzs3bkaQyTW8nIZLUCpU8Iry+/o6reIfTwsVCbGpQplHROAWMYVZjocYGfBikRr68fRe++7OHsad/EJetXoVFyy+hR9qI5158GWvXvW681MbWFkQjYUNQamsaJh8IMo4p5o3XGWQjFIFl2fDybKxZpq+hQ3o2rIFU6k4v0vGqiAir5Tj6v7TUy9O5gO0l6CdR/dHffxMbD3djxoJFuOnmaxCua8Srb2zEsy++xAgjj+aWZoTCYXPP6vHw+YMkLDbqMu+G7OXzkawDQTMSOcPy6ysVMKCuR0YocrILubwxTH62PxWUDGKt3lywxEb9KfFPOdWIUENE/Kdn/kO815WXXYqhYAhrNm7EC2vWIpZMop4Ot0Z/S+VkEzU4qcyIXgSndJSm/le1a79stnwGjTBUFEzTbsomR5snCTJ97h4J7qU1prRsmZ3ForP1chyZUB/6aVN/8OyLeOjFteiYPQ+XX3sF2qZ04IXX38RTz71odKa5ud6re+bLp4Em/FPpqSUGaPsV0pXUfcm2lOFxCoD0VY+yzmEBmBG3oSqpVe9JebDdooLyds6I7VoSWzyZYEWpWlRJFP5j1tgGgiQ2YNvhY3h5x34SWwSFQIyerCq3glA8gWNDQxgYHsTWzZsxQKJbtmi+ybyep7VNbcPWnn489vobuP+FNdgzXEAuWYeUL4RArI7ekhie3hA9BR/Jb+70KZgzrZ2Epgf2pE8ZFDbKatU7nAEuFmJT1OR5i1RwQ2xaU0MC0vQuu2ls1u87gBc3bcZruw4g1NCEBQumY8WlK7Fr/wG8RHIbTA8h2dSAcDSCvLrgaL2VjLxqNXgZLT1T6c7mcJSpp5hmfy6LMhtoScaPpCFSk8E3Is3k8dLPkQjnLBWvGr+tK0tqQg+J7Z+ffxndxYp5ThJNxjCVbWbesuXIlIp4jk7lkd5+875pgBGZn2Sdyml4lp4Z0ikIhJlgmL8CGGQ59jPZ3kIBvakMMjTGQd5n1B9Bblivxah7XvflwebhwiU2GWf1Q6nevPqS4Zbz/v1HHsGhgWNonzcPi5YuQzdt2fN0isKROK0gtS8YMdqn8RNhva/LCEhde0rLGGrzjzrKdZpG2n1NZpFHRl1z/JPTpEcgFtam6X+77oHrZ7n4VB+K3CRyzvqpw09v24Hn39yKTQxKhrK0vfNmYvU1l6GuuQX3/+xRPL92Lerq6+gkNZk2otdI1N3Ou6BdZomUQsjxPuX8pekc9bI8jqRTSFPHCryORlvqeuZWVD5VWFJTns4dsR1SxHYj4ol4DbGZGuI/VXoAaaa/lcS2ZvteDDNaK7Jh+MjYiXgDMpkUQjQSeudDo1+O9fahlM0gHo8hEI/jaLaAB59/Hs++uRFH6SkOhhnxsdGUKiHkWZjhaD09g1a0NDSisS6O+TPbMIcNMsa0JHrW4Q9QGca5SYdTw8VFbNJRERv/0xugNMwF2qcUZW//AJ7fuh19jFI6B4bR2T2IvqEMnacSLlm+Au1TJ6GzqxObdmzHEA1YXUPcjLD13vlicpQCnak8f+cY1e0YHMbjr6zDzyl9KbppkSjq65PUXTljfo2WNgTrYz6MkZT3r8ydpeKtJTYLbTtaLOF7r25AL38PknTXb9mOrmMDjAR8mDV/LqZMnYK+wUGsff01dPb3I9nYiBjbt+KEGI1zhU5lUc8beXwfy2bH0aN47LXX8dT69TjK4xujSdTRYY0HwwjLMLE8bF5sfi5kYlNtK9by3j/UoBFG/Kx8OUQPMuI9yjLVjC7z5s3HnFmzcGB/JyP+DUin0giS5CPUjRCjLj+dd+tyq8fOu2eP5DSDR17PMfXKFJ0F9QFzs3nfUnpsrm+Olu6MKS+t1/w8G6jVJTlvXbzvp3buxf7BNDIshy7q+qYDXeimQ9TB4GLR0iWIhHzYsnsn9hzaa+65uakRYZFVkbqTUTkyOAkHMcRyOMjzX9yxAw+9/CJ2kqjkBEaoQ+FAkO4T77fmuaLNh5aScxSxHfIitlpiMzXAA3jzRWZQEdvWw/2M2NQVyeiKmZVLotH4qrSiRo/xGJ0boXI3MC2NNIwkoti6b695gN+bzZMgyfKhKD1lps3Ib/qMOZjSNgWVAv0ZejZdB/dg1uQmrJozA0myfph5MI2FeeBdmjyfd1A5CdXs2Z9jcULuJzpwIvwCt3/xPGOrEhvLzkRshtiAPJVvmCqyfziN1/bso9eYYaRF8gklsGf/EWzeupeGPoVZC+Zi5sxpNOyMdKiXWze9Se+0AQ2M7NQQ0yyXEh25PX0DeOCV1/DAq+uxdtMWHOxRd/s+7D1yFFmSypQp7YjSUEWZIzNsnu6sKVMVq5WzDNN9w3QVDXQzD99dux7DJJ4Ko0xFmEcZXWzffxD7Oo+Y7tbly5ciGY3iQHcP1m18w8y3Ort9Cg1zGFm26yzLrIf5fvT1Tfjhcy9h7Y5d2MP73H3gCPazzDKpPJ3NejqvERK4TLGnN1Z3Llxi053IzvFPBUqzq4htmGuv796LLUe60Un92XLwMHZSGul0X3/1lWihUe86OoSNW7YwkuuhU1SPeto5PU/SEzR1S+oZmt4t1Pu86pY7Sgfrp889iw2MjHwx2lc6RoqWIqwz0Zp5HcPkhbnieSY7FOVN/84GautBdSToOWoX87jmUBfvs8uMeB/OF9AzPIzdBzux/0iviS6XXbIUM9he9h06gA0bX0NuaAjzZs5liYXoLDLyY9R6hIHLi9sP4IfPr8Gzm7dga9dR7DhwCNv2HaTTVURTPQOXeJTt1evKNn/Mkp5NCtp2OsQ2qmFvi2qfMNfMbat0KfJA9SfSKerpaqWIWDzIEFwtOae5tNigqA50nUuswLKfkZhcZ7+6OZQpRmOsxl3bt7PhF/GpD9+FJe0dqB8aQL2/gJbGMGbOaMXevXvQSYOxv+sIcgVWMglTr3iHdVMaeTOas/MPtdniun4qt8p1rZg70M5aOV2cyTkXGahVRif1v2cFWCgaFGEcMqGCIn8X2FAroSSGSzGkUY9+XyNe2NGF/3nfk/jJWztRv2AhPvbhD6GpbjKef/FV5PwRHhdCH/3vnzPK+7PvP4x/fmY9nt/eicFYO7rDzdjji+OFrj7849PP4ev3/xRZ73KGZPVCWCFAob6ebjXp+Fqp/aG0bdPW7UqPPGGb1XDhcohOYgilcB1SlCPlMF4/2I3vP7sG/+vHD2P+qlW4+Y7bUUkk8L0fP4TB4QqG2K47ScpPsr397r98D3/79AtYf6yIg6UG9Ibb0RebgnW9WXzj52vwn7/1r9jSeZT3RcPLIld3lAhWMPGGzWsVY36ep6AHhAjVhs65hqUjR3NVRNCoVAhpfxJHinEcKMWxrmcY//zSq/iv3/0hmqfPw823X4N5q5bjGUYmf33/99DJc9NB2kcNrGAkNjScM5FfL0njpa5u/MEPHsD/WLsd/7h+N/6vHz2BZxgc9IciJNEA8nqtiWTiM13b3ojUPItUI3uNap8l1EZqFvql+1UvmwZeZRlkZIMJElychBzF9s4+PPraNnzjkTXYNVTGe9/3Qdx2xx14+dW1eGv3fvTR+euLhfEMy+c///QJfPWx5/DgrsPYXopiINGB3lAzdlLX7n1hPf7q3p9iHZ0mOQ4Zqk6B5SS91us1InRps+euchvF4CQFoGyfFkwDNQlaIWGVVGFFJNXnks8idayblZGiIuQZRJHc2JhL6ndVFEfjUKxQMVhZ2dQw4jynyERnTOeNdnbjmadexJRYAnddew1WLGCk1tGGta+uM6Nu9K6H2ikY3uuphXqhTWXoLqSHFxi86qqtqJplrTicJqQkMqla6idLmeI3pl4643XzVHxBEk0EGRqqTCCBdCCOQf4+nCvhyQ1v4Z8eehSv7jiI6268AX2ZIrpSWbxFQvsfjz6H//tf7sNr3SnkG9pRrp+MQ4NFDPoTKJMEB6NJlCZPZprqXtGled1CDqVi1gSPJoCsZu1UMFYthInUwsy4wmU1SEWIBikUCHF7iCQbwrAvggG2wT4app5KBLsGcvitr/4dI7K3cPuHPspodSlKwQq2kJz/9eUN+MpPH8JzR7ow3NSKgzkf0pFGkl4cXbSsx8IxhKZNRf28uSjFIsY50/UFkz/+ZzxqrloRtM97FuP9Ph8hF0gaY1wheZt02LVFWda7tmWfBsfVYchHZyHEKI2R/6a+Qfxf/+t7eHLzYTTMnoo7PnG3cRb+8u+/hjX6Yj/TK4TCyEfD2MWo57uvbMBfPPgYXmCE15WcjMOJSdic8eMr3/kJHlq3Hbu7h0z3p5ch1mpZOutFUucCIjcbrdl6M/pLYld7KZKo8qEocorm/SHkglEcGi7hjQPH8IMnXsd9L7yBGW2zMX/ZMvTm8th6bAhP7DiAr/7wPjy5Zz928/4HG1vQx3bWT13KheqQCycQmzoNsY6pJMuAmRUoyAgvoN4+5kWDb6oqZRTIjFat/jA5nECJTovYlKaR6m+zQlHXQlAjxtiaNFZsEiuujt5JJEf/Vu/AMGca3q/L6QVHHwsmEIohnKxHnjdQ5jGFbBorli2kdxzD7t070NPfjwOHO7Fx0ybzgLW/p8cMpeXFTOMxYjJB6M6rebmQMJpl3ok8pqqY31YusHs6X2BLsFZh1RCk8KZtSKp6VKTTVOSOQiVHv2wY4XgYoUQYB4524sEnHkcPPewC9ftg7wD+vx/+GE+tfQWDNDKlMAlicMh0+yU1qIoNM0BSmDN3Fhoam9DZfRRZY4yYuJwxjXJTY615jnA2YAySltV1g6pyyTRrj/6XWdYLEGWSXDBWjxSb5lBeX+QoYcfuA+jv68dQJoPNh4bwV9/6AX70yGPoGhg0Eymk0hmEwnpSVEI0GUFHRwuWLV+ASW2N2Lx1IwYHj3nXFKrXvpAxUp66DylNjaXUJL/q4g5qQJsRGuSSLF8QeyppRvFP4//99g/x1pbd+Lef+BXM6ZiHvYxUUjyui/XzLy+sw58xQvmnJ36ON4/0I8160Gsl6eGUmZ5Qjv5Tzz2DdW9ugN7T1TRW5hUAXZvijf0+uwU8ojeE0afqb7UVj9y8SpUOKU8FI37zkjqiMXQdO4ZnXlyDFAmtRNt+YCiFZ19/A/9y/49xqKffdOFrhipGJwgzmNHYmFgMmL9oJhpbEjjQuRcDQ4PIcb/sPZuNIVfbFTmCU7ztmup6e5j61QV1z9ULmFVt5JqPBNXR0ICZjXWoZ+RWX8gjwSgrqsypMWsEjMmxmptGCzE8Z4itETErll+ClfPnYN7MKZg3f57XmHIF82BRFwvU1ZmRXOamucV236m8Tb+zyd0p3vU7jZNmq1p21aURKVWNojmcHrxS9P5qoWqwVaEgzhxFtSkHSDZBmvx4xPS9pPNp6l/OkF3XQD98IR8GqI9HUykENX9oJAx/Ig5wqRGToTBJK+DHvAULMGvaFBTSw9i3f78hA03VNZIL00h14XNUt7U6YwqB12akYYStxcQb8oTpWObzjEfCcbYptkl64Rm2NY1yVKTXU8giyUgsoi950JkMRaLGIEVpdGN0Wie1NmDWvBkkwQG8ueUN5Io0yAFbshcPVIQmsrSaIyPurRk7qOemHrEF4VdXL936gbCfkawf/bRrTz/7InYd6sHCxctwNFtmtN+L+17dgG8+9XNsHkyjB4xyYxp5m0AxmzPjDbI8b9a8eZhFGxhvajAkUqF9lO7Y62r6By8nZxe1hCZo3VxP9ypDKyeNudAUdHr9Q86ePx4zw/hDSUZfLAs5cmk2qu5sHoeHhhmVhRFtbDBlF1E7YfRXYsDT2lSPxUvmwc9C3L1vJ7r7jqJQ8KYW9PLBwlV7MdxRzdBp4LTKx1QmRQVsIELR/UrYwH0ksnlT2/FrH34vPn/nbVjS3Ih4PoVIIQO6I6x2jY/Ry3xBL7JmSno3SJ7urj170dDShGuvWIVG3nR9S6sppEyhCE2hVVbhhfXyowjNe0FUxOb9Fi2M5OqCgHJr6JgFYUYCSXhXMkJeZ4NE286gVt/lsCU2tuRU5vI+A9SrIBuQRmFpZFPFjG4qoZBNcV1d4xoMFTIP8ouMskqRIBtuAp19Pejq78XiS5Zh5uyZNEghJOqS5nt8i5Ytw7GBAew90od9Xf3oZyQXo6GKkiiZJKtSSuwNHjCf/jgH9aoUjVGo/gn0/80zbD0lMC+Tq8nrvQdGbQU9FghGGKE2mNdxNDlCiYZoy/4DOHisH5H6JGbPnYMkPXLN5Td18iTMmzWT5BbCm5s2Ysv2LUy9xDbKiLZMb/yigylRU2QeqY26n9WSNAZf4wwqFa88FZkMMGrJseQlr2/Zg0oyhmGW77ojvXhi6070sYx70jmSQhPyRcZfVD+NLm1klD9/4UIM53LYtGsnNmzZZiIjvdRsBsbxwgoqRDS69tnEWEKzv3WtMPMX0iBAo1u0vsyEHj2aKcfo9OTo9BV8QZTDMeSoY4F4Hd7atw/bDx1CsrkJM2bNwjQ6fBow2NHcjNUrViJZH8eWzVuxedt25JlqgA6THMSouiJ5vyORWk2+TgenXD66jArVRGuEFkbMDjmvQTTFo2hLxLBg0mS8/7LF+P17Pox7brkOl85uR7xMgssNIVrJIcGM630PdStqippMqWzmIPvWfQ/gh48/j31Hj2EgnUWIhiVfIsMzhFV3ZXp4iNeqXrAKE7HVKNx5j2rWvbuo0rEhNYnuoeZv9DYdTgu2/KplaMucCiKRkQ6R2IJlb3JjDWDSwA5/NGpeYC7nyvQqi/QgeX4gguFiGX0DQwjHYqiri6Pz4B4c3rMDq5cvwbVXXo5Uahg7du7AATZkHZemMxalF57OZI17YmDyoeamnHl1fbZgdL/WAJgNuleSNyPPINucXEKNWvQywnwESNiaNowE3n1sACl62DE6j0m24Vw5j6kz2mlgyug6sBfLGT3cecstyA8OYu/OXdi1azfSjDD8kRiyug4Nmj/ofa3j4kG1EI3wf9adeoU8fdI2r83qT13ZeZZdkcY9EExSn1guZRIWdcnHqPdgqYg3e4/imS1vIRXyY/nq1Sx/HpsvIEpd8TFaXn35aiRIbl1HjqKrpwdDJMfeoUHPvaXNM9dXWfOyRo+ry3MKpi+nO8K2EqYdDlICFHPvpk0xwBC5sd1oYmTNoZllXvPcJNLTe4CaxWawtwdxOnjXrb7c6Nj2tzZh97adGOofZLQXwrFMAbmKHmWpNL0S14QIuoiZGafafk8Hp0H8bAQqWdOA1Di9iGnkWRdvuFLMo5EU3xLwIckwa15jAp++cjl+7fbrcNP8qWgPFlBXSCFaTMFPL09dl6FwlCFtGN3pAnZ1D+PRtRux7cAR80J2P0PZQChKS0T3IBREkB6walP2Qe8HCcqOnOEzuvt3ECox82fL0IiXa+/LtN4PDWvwHtXqkOrydP903jjy7sHovdqpkaTpWgTYYEIs7zglwYYUqxT4W6+OFlCisfbR8w7GG80zKP7keWHE6LRNorOWHR5GhpHM0jnTUUn1onPHJhLcdgwNDaGn6whCkTAiJL8Avc50hoQSitQ0MK6xDhQx1gxrObuoqWPVtyZnTjIajeSziJDgYjQ2YZMhHqcuSXraih7raYDVxV8MBjCcTSMUKqO/+wCa42FMbarH5rVrcYxRnJ8GuEQCrJRkvPxmpGUlWEdvPUoDN3qnFwN0N6IyzUBv+qsp9rM/aqEBRfqMyWjtuZ1xK4vTzDqSozGmBCMJHEmlkU/QOSfxDTKizZfy6Ok8iN69O/AbH38fVsyehluuXIXf/NTteOqJx7Fv3346RXmk6Mjr1QzNxuHRCK9rwv5qGcvmnwOMtRGaVi7INlLPm07QvkdLbCtFBhwVzTbDe2e7AJ06GeA8o30fSSqqvPJ3XTRCEgOWzZ2NTN9RZEluwyT3vs7DJnJLso1F6ichnQ+gFKlHJVyHAM8f0SKTFev4H5+vU8FpaCMT19EntEhvg/43ITIbS4Il30hyi2SzOLJvF2LD3fjEdavw4auW4fLZk9HAgonTi4yaZ3M0KWwogUQzcmwk/ro2qkvYTEukmQ/U4Mh+5lmcMQzSMTNzOsuTFSwHoswGS9PNLRcWzD3wnuSpsNjopfjMxKneJ3vYkKgglpQ0c4EdQm2XDhPjODWt/pBDVGIUFaeBumLJQsxubEAsM4xodhgx6pReMi7SwfLrfUlGa3r24feFkGNkk01lMG/mTHzyrjsxf3Ib3nvNlZgU8bPxKnF6tMmEaX9FKqwMUTAcMd62cf508WomjsvXWYKZh5AyAq5KR9Qr8sn3vxerZs1AExtnNKdekzR8+TSjhQzCZDkf7zs9PGi+VFHkOZr7ry4ew+fv+RiuXLiAxncW2hIJJDQ4jGVgLHswwmvw/iQ0ZaUKf5+TO/tlQnPP8q5UeapYC66yZSLozzMCziIc0tfvNcUYa5thVECl7gsjy7AlVFeHIdpAOTJxGvMlU6ficupQPQOAlx5/Ai3001MDnfjWvQ8jVp80c3Fq4uqg7B0vpUnldWXpkHq3vK7kcwMNALTENjpnJNsEnaNLSMCXzp3BgAXUnwxidJLi3BfIDpmZeIwDQOItyPFhGgqAytkUrly+FEunT8Wt11yNhdTBsr4uQW8xM5xh2nSOigGUA2w3viSyxSD1z7YVxTIsff2o1evTwGmWFK/MmhaPKiz3TmeB05vRs4OgCodRmKbjiTNf+cE+FMjW9bksBvbvxjVzp+JTt12HT91+DRLFDJJMT886/FSIbIEF6Y8jR8maMf1+r4DFXExTV9QzET18lBdVZKiuqzOQo4JxT63ynZcQGY0lJJ8hNM3PJw9aE/jQIpqvG+hTGPahsRUzBU9Zk/KeZrW9y1Ad+2jWpRWyxZ7ekoDYEOtIRrddsQofv/VG3HXFCrTRdNSxkcZp9CNssD4ao4CiGYp5X5LJycD1HOlGX3cPLl+8BIunT/ee0xm9oxiVZR1xqVl4NMnrRM1LunwuoXhQbSdK47CobRI+f+cdWD1nBiYHeP/pfhol3Wca4YIILo0o1UwkqFvRUPZ0Jo39jB4uW7gIsyZPZhssMK0QvXI5lBoXqQKR2ZfhDfP2JePf64UK0ztFO6ayZGlyC0XVzG2XLV2I5hijGD8j/NwA7V2a5adoP2uKIRBj3MLyKqi8KOQvNJUCWDV1Gm5esgiXzpmDpkSYepnFod6DyJbzZtCORPpj9NXoTm2Z1qyb/WcX49lPTXJdoe2e1dKAT91xHT55wyrUl3JIkLSaGbFOovENqaubkWiU2VPAIRKWk6Rnj12HDpsXry9ZsgBDQwPIMS0v83QNFAGXRaZ6aSvKe9Y0BrX3+4vh9FM6rlBZ6aoF2usyvdqAX3OcaRoZv/kQZ+fhQ5g5qR1L6PVNb27Co/f/FF3bt+HaZXPxxU9+AJfM6EA9T47SaijaM+8VlQPI6WVv0TeViKVlMqkg1adRkTlGevQeE0GfMThlje6ixskrutAgVfLT0GqutAIreoDRRIkEp2+D6dmF3mHRp0Hkfes4iTe/nBwM3u8EYt5BGUfeLdCdyhQZneA/qagxFnSg4tEQZtHYJ0laV82Zjs+850Z85ubrsKgujnpGbtH8IBrCFURobKIBOmgh1k3Oq6u+gT48/MTTePTZ59A7mGLDpPNWoE6yfrRfvQsayCS1Nc9FmINaV8ZkwVs9q7BGqbauNVt/ggamIxZDM9vLZ2+5Eb/98Q9h9cwONBVTaCgNI5EnmasblkRWzmuoAx1Gtrtj+szNk0/jXkYVW/cdQDxZhzTbc4XtWs+TTLeYGiWdWU1gayax9bJwEaFaUwrz6ajot5k/k3pzyZyZ+NUP34lFkxpQlxtEspBCk7p89SkfElzBl6cO0BlgPTQFwnTiywil8uhINuCSBYtx7epLMXXaNGRICGVG/QxcRkjNg36oTEddtJFdwgkbzh5q7YQc6CT1f5rmGI1HcNuVl+B3aLdvWb6EwQqdooF+tFInGjVAiqSleXv1pDVfIFHTYj//8jp8/8GHsXXvAdMDFdS0dLRhGulpxulKZ+QJVAK8V3unZwdK7ZQgf1cerxUPXglrklf1j5bZyJVbzYBObccUhqG79u7F+tffREO8Hj7uf+qBBzF48DCWdEzGqvkz6M0UECORRSpFhBSNUML0dsL0Ns1nMWjoQ/QMzIzjtDD1cRYOl0VGccwIozVdnyaEco7q+izA1CBF5SbRugc9o1T3Q/8wFYWGqI+ha4mVzwJlUaos2VRodNQVSZOFIMtD0bFXH+P88ZyJ5N0E20xMyVM3ytRH/ekDmvVsrFPrkmhhY5pMT/qm+fPxx7/yMfzmh27G3Abq1FAnGgI5lDN9GDx2BEm2Vo3KLQWjZvaRJ15Zjx88+gy602wL4ZhxNNQqVMZyQuR8eKQ2RiOrVXC29dTWrCU1u64H9TNbWjCL9zqVxqmJxvZ3P3IHfuOD78Fl01vRWB4mwafRGPUZj9sYA38Q5XgTDg8V8PirG/D8xs04SqPcR2IrxzTzBO9R49z1bTm23YB5Rqm+hotLv2RNvNZKIleZimR4i5qXdujgASyd1II/vudu/OdPfwKrmhqQ7OlBq3qTggUWfg6BUhZhGvswbV6E5+ubdw8+9QL+x3e+j66iD83Tp6EvxbZeDpuh8/r0lgarmlI01/KuZ/RYGyVMh5u9qM477KyiltQEjWOIsb7rA0VMi4dQxwxeu3AePk1n8Nfvej+unD2D0Vsapf5exMoFM/pWOdNjpEq0Cb76Nry+4wAeX/M6Dg0O4RgjulxIA200rETHKmhRD1zZPA/23uE9OzC6fKowxkEPTc1ZMrMqfHkWnnfBNm36gRVDaS60SW0duP7GWzFr7hKsffk1tDa1oL25Ac2REKY1JNjYomiLBTGZYXmskkeYjSTCgonTwKuINZ2KHvZXGKWVchlDYrnhIbTU12HK5FZT8fKLVSBaetV9PsIjXSujYCXnS8ZzUQPad6Qf//jt72Ddpl3Y3ztkun70AdRoJOpFatXIQC/4jiWtU5F3C7xyphdp1NszUPKIRXAywHKM/JkUYvks2gIlTGUkl0ylcPWcFnz+rhtx9aIpaAimkaSRStLiDxQrZpRuTzqPbCiBYzRGfWzGhboWEp03GlBtwUQy5uKKFdVxPrG5P14PzjJ4UeUnpFxkMzRIJTQzb5fNnIZCbzeumzMFn7vjRtx59WVoUnTKyEGf6DfDuek4DfL+NItKMdmK3rwP/bRBweYWDNL5LKhrhYYOfvUn5BCq0HiXMzxXpXzxQPXmRVGsQzGIbpvLJH8vmTIVCxtpx0pFXDm1A1/53GfwkZXLMYP6FRzuRzA3xONKqKO98mfzjMioCw112J4dxnP79+HP/uW7ePK17QiGWmjf9GyWzkSAZS9ik+5wRbbNvCPHfFgjbUiNP0a7K88uRGyK0qyDpGH3YV4nQSfGl09hapiOIO1/QyGL+U2N+M2P3YnbGX1OqY8jzu0h86oSzEdW+zWjf6QFmXADDgxl0E9tydChLEaDyAfp/El//AxmfJQKHYFyjkeo1M8ObJmdGlSYNQU6sqr8UDQdinmYyAhL76ZZuqmra8DdH7kLl61YiX/7uc9iCb2VBh43iR7gpfPmYNn0KWhkxSbLWcTU968RNyV5PQznFdQWs2Z015y2Ztx18zX4+B234rIFc7mfjUlGXl6ynsWd12BJVMtJ4nmDrACG8XIGjg0OUrEDmD57NtZv2Yonnn8Ra9/chKMDg+YNf43I0izg+sRFlg1KoXytaHCtIgetVXicunBVNqZ8qqK9EvvHjaNykcGqao26mnuWUyAHSR8GZaCCymAavXv2ItvViYM7d9EoHcNd16/GR66/BnNbm0gOJdBZRTQRQYRRj0gupXeWwvXoz/uR0ueDffrKunTeMwp6kK7ueHV92noeKWH+MB74uYKpS0/k8GmWdTmGYbaRN9e+TEIfxqE9O9G1axsWdLTinjtuwWVLFyHG7IZZNnqmWAiEkA7GcKzoRzoQodAYRcJIMfP6pp2xutQ6Hx3RgKI2rpvOOntfNgsXMAyXkWRG6o5lKV3S1H4h2pposYAZ8QSSuTx8x/px+yVL8esfvAM3y9DXJRBjJBMv01lndKLv9A1FAhji9u5YFKlEI3Z39iE9yPopxlhuel7pdXd6HKoryjXR/54ItliP06ezhPEcX0NwtNOyGpoqsch7yjPyOrBtGyrDA9i9eTtWLZiDX7/7Ltx02RJMqouaXjf1Len7mcfUVnxB5IIR+BJ13ntuvIzmu9T7o34SZpDkpueTftp79aYYHTJZOTE/BnbzyHHj4/SIzattXlyF7hW8gVaUklc3pgsxysYQ5UY9EmwKlTE5HsWNK5dgHiOtOHNU52do64uhg17h9HgSd12+CqtbEpiWO0ql6KJBGaSXmUZzuhuX1AF3r5iNz12zDF+87lLctWQulSqKiFE2XlgfsytTlL/zGsxftTO9xLzqldZimV4ey2vK1MnoTh3D5EVzsPKW6+FrbsJLu/bja/c/iMdf34DD6TSGqWAZTaRLbzBLo6KJUAcyaRPJFeh1Fwr6lpZG4WThK3qKoq8hlBihSDkL9Kj0jpKlRYYuPJbChirnYGx0V7t+ocEjcd6DUUxFUFp6BkQDJPQF6WCYTSqfNqMC58yejnmL59OZWI8nH3sCixs78MX3fACfvv02JOiwRWnszXRHQaakrpaSH0VKMNTANDU7jnkKzPJk9FPKgDzI6+TYZEFCAMmC/9HX8LPSAprSRJk7RVit1rJ23UIGyEIjJJUPryn6WedcjyVwtH8Aew8cwtSpU7BkwXxmM4s3X12LSeEAPvfeW/ExOoxTGpMkvgHT9RogKev5rj+s99oC6Gd+K1Hep8IKPddm6BBlG9ZMeTlGJHqmqBffvV4ULx9a8Rwp1YMngtmv4+yG8xDVfifmlTfOsuAPT2joQ+EISkXu5z3GgyQsElsxO4S+A7vx/qWX4NdvuQ7vv2wpy5bExlYrp1PlkGHdlytJllkUxaKmJ/MiM38+woi5nr9imm8YeRr8fLCEHNu5SJGbTK8OK9pEa6IOz2U6e7BRmtUls04Sr7COi74wYvWN5p3iXbt3oLEhiYXz5yEZDeHnD92PfOcOvP/yxfjVD7wHTSRuPatlESES1ydpItQj6RKdczaCsu67wmN8UeooSVMBCQMYOZDBMh0k6py6JlXmMudmPIE0Rj8ohnukO7yG6maiKE9VdYrQDUvUbPTn/dJVKiZuNrvMRhlqzbqvz+2xCil5hqp51AUKiKu7kcaS0SgrkzfOE/ODWVw1bx5+98O34dPXrsS8xiBNRRqJ4W5c0d6A3//Arfg1Etods9uwgAUwnRGdhsyGeW0vH/KW1SVkcnSegnkzleMVkqpLxBagZx9m49Cd7DtyCP/rhz/AD37+NNrmzsKV77kBTUuW4+9//FN85RvfxKZde1maVJtAmOf6TOSmocFsYSZZTWvkTVlGUZpshDwAZR6Tp+ee5lU0M7gaihSqolER+Qytj9eFcLHBU3npqmfq9Yl6jT7V7BCDdBQ0+DZRX0eJ49kXnkXPwAAWLbkEb72yHvvWv4n5sUbUZ3h+roQ0jZeeteiT936WXYxp6Fmw5xcwZtGXLTSFHI+Iskzz3Z0sW5ImI0OVuXl+QufBOGD6wRydDnR0rdT+MPMIyhBRvJlNvDs2o2dZ98Nkn3hdPa6+7nq8vn4DOg8dRivvu+fAHuzdsQUNbIwNJOGkumYjbLvFFBJUq4ZY2PSEiJr02RtewBSqpnaOkpwTtLL1jFr0AWENGDAGR6I/HWth81rFmJ/nLRSr6BmQJs1WhGEIjhnPF0vwq11Rn3qPDdL5K2HenGlYuXAeXvrRT7EgksBnb7sBt11xCdqbwsZJMBO2s8zk7ofo2ksfK4zmKiSvaCCGSjZIP5Nb9RiGNqFAm6n343hFz2ywXK21M/WhDJ5F2N4GweqSoQ7eo54tawLkHO3FrBkz0dV9FDt27cK82TPQe2AXtq19EUP7dmJ+az3qqSdRsnNxuBd+6lGIkZhe7DbT1tNIhfwMd0pBFIZzKKZzJvqNU02N8PKavYpeA9uKR9/2K/S671FS88T7b3zojNPASJLHp2k3V8WuVrNj/h99GOr50Ha/hl/HwyE0RIOY3zEZH775WnzslptwBQvwCx/4EP7Dx+/B6pkzMYceQ3soYl6s1Vsz6hFRhRuDYQy7Ujw/ISWUgo6gpnIk6ibMyADyho6ysl/euA3ffXwN1h0exrIVi3HXZz6NQFMLvv/4o/jJMz9HdzpFr48RA0N9RX56/03KUioGSHYhZANJM4P7bnrWb6Uz2JbJYS+NW8rzpWh/6T3qy+bBMIpsSCK6ixGjZTz6R5cZmhOxPpnULzZoH+bNnYMbafSHe7qx7dVXcfWSJbhiwUJ63DEz5D1KMrpu5QqESVR+SoJWKjfcj3hIupym75DjehHh3JB5/jA3FsPS+nrcfskKtOilVV5INqMUovaTHyrHzUt3dqFka0UfcKyL0uNm1DmrvQM3X3kV4wKgZ98BLJk5C8tnz8XkSBxz2yYDw0OY1drMdppDerAXhdQxhIoZ1JHlGtjg/NwfoXGLZlKIDvQh1NuLJKPdT9xyA2ZNmuxFacYC0/BeoJH+eFA5jhQoEZLTyEZTLBQQ43p6cAgpypzWFlJWGQ/eex/2bt2OD1x/E65dssLM3KHu4ASNvlzaTG6Y0VgB5agfmSDJi04/mQ0+RvoV6hc0QxOjmISiQxqOYEGjMUkzFDMdHFOR4/JOQEQSErGQzCfXN6G5rg43Xr6aeSpi45pXMLO1FVcsXohls2dhCveVhobRxihf9ruVpBVO6XmjXvTOmfe5A7zvGKPROradunIBDdkMJpPMpocDmNXRwbL1uvT1uor5dl3NfdZUgYE0bCItO40PjR7E9ddfj0QiMcLotRj724PnWUi8DHrGxVQLDbLXBkhUkQADDB+GMnkzUebsqe1saB2Yz4bYrkbJY6IUvTekYSWmu4XJ+XjjFdPnz4L3kjeL8w9eF4K5d96zaf8UfZFZ5K7RRwVW6Kt79mL94aPIhxtw5FgG67dsxhBPTCTr8d5brjeT0b62cSNeXbce2XwOHZPbEaZHHub5esAtgitGwugr+bA3X8STm7fh6w88hIdfeRUpbps7bRobjyJlNhg9R8llTXemvE8pUe2HRmvrePy6Pb/h6dyJYrtXzT3xn14EjYQjZpDOVDasVZcsw/uuvhZzWprQwMbW0qDpokJon96Bwz1HsfvAfjY6et5MI6bRugE6DEN9SPjyJLEKOlin18+bid/66Adxzby5mKTXUmiMpKaKosts5EV6o/oshzadc5QqNEzeldRmIrzu5KYmzJ01C1evvAxT29vpTVfQGIlhUkMjli1ejF0Dg9i6dzfvL2DOLaTSmN0+GYNHOhEhqcUpc+rieM/ypfj1u96DO1bQCYiEzHO6sbqyfj11NZu9ID80qj/lTu3W+99bllmfcoi4G0EzuCuCw4yCO4/24ciRbjOr0gLqy+TmOhw6tM+8kHywfwBpnncslUUwFiGZFZFsiDAKymBgYIiRTJkOCEh+3F7KYhrLfuWUqbhq7gLUsQ4V9Sgo8FGRVGSeyfdydK5g7pb6XFQ0TturWguyLURoc1qbGrGYDuEVq1ZhxeJFaGXkzpZilrOmT0dfTy920v6A5K85VWV4otEABnqoQ4xHm9lWpsVCDFqm4Z6brsX/cectJMakcRQ8++7piHoMTDTJ8u7q9D40+v6aD42qMMbToXNMbApnPSURmem3GUFp1vnLkFvZDJGWsYiS1PRwVu+K1POQuBSnWEaS+8I8Vt+W0gux5lL8Ty/BmmluTBWosnWF8w8qAz3VEqkpalUmZeDUtWGGuPLfAAnnjUNHsO5QD45VWPWBuBn2v+fwQWzbux/RRBIzpk7H9Bkz0MUGtH/fQXp+RbS3t1HZw0xL3RcB9DHZbd39uO/VTfjJq+vMd5966Om9tXUXDVUSzfF61NEISWHU7VGR98nyV9ned5ER23iw96VBJNbA6ptPeq1CH3LUlEAxecVF6p7CbO7TDB0Bkpw+H9I/cAzdNGL+Yt48TwggTwe7By3BCpZNbjGN9O6rLsWUUAQtLLaoqXP9R8eDv/UxTj2Qp196znWVd2quYbpAzbMK3quGZYvMWd8h3n+MDk6ER4mo1dYUvWeoH70D/SAjoURSi/Hc2fTM+/btQVO5iKXtk/Cha1bjY9etNgQXY3tN8EJysMbiwia20TIcXaMYm8W9rMuKHE/qwaRJrUaP0kMpfOR9t2DRrGnmUUxLYwN6jw2hmY76tl37THe3j/qkZ9wN9XqmlkV+cAAJElu4mEYg1Y+p8TA+cs3V+MiVV6DVz4hf6qOHb9QhHx0lje71cuPl6FxCUWkmnaq+ZkTbTL2RPumdPtnvGHVJ025pIJ8kJDtNW6RJt0P+oBnNPjDYZ9pQc10COa5HihnMSsTw3lUr8fEbVuOK6ZNQR16QY1RmpEolMXqhxyrWCZXOnEfEJgURefF4PQQypFZTGbL0UnStquHTM9DjfQ1ThnkRO2gan3nQzJTymYyZ8se7Ie+VAiats/XfeUtsxj5SlDdvpgpuoRGVIdXADTUSTaL68u6DeH7vIWQjTSiH65FXPzNvSvOubNt7EDsPdqKeXvWc+QswuW0Stu3ciUlc1rPxDBaK2H74GB7fsI2Etgk/37IFR3l+NhhGjo0jFqvDgR17cIjpNMRi6JjUpCKk3dasEnpq4ru4iE3FPBFY3iU1RGNgdW9qQGUzvDnIuvHTEIe4S70IhVQKfhr6IokvSd2fN2UK2lubURwcQhMdsRgjttZ4EB+67moS2mqsnNaOBl47SYMXpsHXdwpZvEY55dxoJnOaAv7VtINzBRZChUSk5xWqazmP/GGIVg6V2pbmay1omiR64YV0mvesT5AkMKetHdNaWlCmY1Si4Z07eRKm6CXdy1fg1lVLsWr2THREgkhWNIegpsdjO2X6Y3XlwiU2T5Q7W1PeUvaMdZnXoKwSQoyspE8y+nXJJJYsmofmZIyOQslMt6Znax3tU6qTYudo5IcwNHiM5Z7HlMnNKKeHEM6kESZ5TCPR3X7ZChr7a3HtwgXoYHSU4LXkdKgLk43UjEpVT4+CA+XnXJeeSCxMPZfeqM1EInTmeFHVoMYG2G/TKbLXgEG9nlUmGdZRh+bOnII2vZZF/Qupqyg9jFY6iNcvW4y7rroKV8+fhalsW5osQQMKDR+wLEWe+ik9kVhb1Elie43EdieJjbs93RHZazkG1G9V0/Go3aT1e++9F2vWrMGXv/xl84kOeyG7Xxgvce2RUdc7WCoAk1n+FkmZfWxUfrV6Fpp+axCKojcNbFCor3A0R2VQqK8ptHxsdAEWsrmWiE1kqPMoSpfFcc4r+kygPGp0nBRUs2Qrx+qK0OAFfSq+VAniqD+Cf3xhHf5p3SYcC9JwZlnG/qw3HJbnVTR8mOVTTwVZPKUVd11/Jba/sR5LFy/Cgtmz8Mxzr2Pt+s3Yn8mjh6WRodeXoQZmWbbqRkjyOvNJaFdPn473XTIHK2dOM69QhJmeBvqoBO/55Cdxyy234Atf+MJxdTxe3Z7vGEetDbRdYu9P+maWNEQ5GmgN05fn6WM0rMkBSH+m8WTZwFIULTW355GBIfMNsxSdsfpkFFMbmozHmaDCJ6ibQRo+dZXr9CK9UEXGmlUmVSmyHiPmObF09pxCHq88YOZZ3Z96yV8jO00XPssgm8siquFrPE5TRWm7XicZZnsboo4W6CwNM2LrOjaI1oZ65PIltDU1mNlY6nhcVLpVyNEQyaNmO6YTZcvX4p/+6Z/Q39+PP/zDPzS/vd4Zev3VY85X3dKoQ1klr2VU24FnpMx6PpM1tkuGX1PfUZuQpRNRZJtTexJxhdheNSIQJLUhLnYP5rBnKIuHXngJr27aiGlzZyIzPIh8Tx8+cOP1uGb5EkxurEcyFEIryyfBOgnp2ZouqAEVQTpkrD9F/XJFz33UzxtmHRdZx2aEJO9Lkx3L9mrSDL3SpZlqNJG29MfoEe28eibyDNk0tF8D5DQm4AgJXdv1FYjWxjpMot4pyo+I9MQDXNeL6iJs6UeB5GjmiySszshJ+sY3voGvfe1rXhvWH08cT4dOiNhqldJCEduhQ4dw3XXXnUHEJoikdIzWvKVWNEjNnqaPleoY3hsNCgvR/FBb0btxPJ9LTQqqA3RD9kSTrpZKoyrnG1QGGlumDggvYuM2RmvmGRuVo1xWhxa9285evLTnEDIVvaZOI2HakEYG8UxNCK0RSmw8fQO9piszEA1hMqOHHzz+NJ54bT16efQADegxXq1MpRCFBgP0+mJJxOhp3XLjVXjlpRcxpTlhJjZVF1OcR/nUBcV8PfDgg5g2bRpWr17NfHkNeCJITywpSKze1Bqssbo0kY6MRe15Y9P4RWHza/My+pvrxjNSFyW9UDYkNWA1HCmZohtNkRSjJFhnbXQSptbFMYsGf0osbrrO1VCjdBaCdBZMWupqoMghM7Pz8NyIlrqMLn6uQf0yA6t0f8y/vn2oe9LN6p4948TtFOmhWWde1WOiiaLrud4cjWEajW1rLIrJjETqGZUlmfkIyynk17NCOqEB3qOIzdy0kh+te3UdZTIZYzsEQ65Mt1ZPxmKiOjdOL/e9nW6Oh5Pp0bh5MFIlFUKkZohNe/hPpKZ86LMqHrH7THQu26XAOGyW3MZyCbLMVe/10SB1JopLF2qKwTaEczmsnDULv/uJD+HaBXMwhVFOC9NrZPp1JhJS3vQfJeRDkU5XjhnS0zZZQe0/t9AFpL+8Id6rHB/z/Uzmw5aZuXeuqyx81CEdq+5SBR2aOzjMZRMdpWn1dZhFmZGMo5UOXh3TNe8o++RA0o6YdNTdKR1luiyHsfXS2dmJDRs24I477jDH8wBzzHj1N6GG2BPGO7H293j7LbRVF9DuWtF/qjDvPC2r2w0UarMSuV8DGyRF/va6Hb1GKvGOpFBh2UwMaYwkcV7CaqHNpVf0rE46RZ53o8Zn7kWKLINYPafExlEwEkLer6H76oatmM9gHC0WEGtvxdxVK5Al0Q1V8nQCaISpfFE2jqmtbWiua8CMGTPxIAnwSHrQNBBFi7qWr0AjzGvUGgvlQwaoqOdOExgE1Z3O0X4ZnLEYe95EOmKh42vPsemOl/YpQUmdjhhIt7wubs1pp7kRZaWMjjM/GpEWocSZJ3nTSWatjt6DomFtizLqU5ky56wzliEtj3kZtXrrGjEeZF3r2Z02n2uo5I4XT6NGb7n6m/kzTwqUT4pe5o6XeJ+8N3Of3BHjDk3mq0hTLpOGwcvE6ka87955qZqyqqnr8dZr69qujxVb91oXdK6MnXE4zgA636YtaCkdt9vGCv/z6qgqNavevdqdNesqTU9UwdzEUtJ11WMS0CCeDA15uoSZdNI/sHIhfv229+Cea6/EDDpGIrMGHlNv9Is2gGKevytl6RLT00s5KnXVpcnIOYZ3J6pptgcj3jbdnNEZ+2fWKVpSqOIUlUGJulJGjKsJZjzG8M0Io9AQ24x5X03nW92zsPdWXVo90Pu6htAI7dJz8okwas2qGE/5BPu7dtupQqTjZYUyoi2ELmVE2711UzBc9QrSUxOvGWlpVGakAD3wXJOnaprnJSzx2jzql4TVXvEaq1570IigSj5DskmZob+aP23kFJpMY3DVQPkrqy6msLzsMl7f8Bp6B49h3sK5WL50AepIbMFcGtcsmoUGekt6oL1123akc3nz8dYsrycirVY1IUMySmm4608AAC/GSURBVGQiLOVJXQG19T5WhFoDNN5+oVanTgU63uZBMjbdcyI0JFJAq2/SP6OQJu8Uq5g0PhpQwpv2frORGoujJRuv0jGHMSU9UzOGiOnzIlrxzudy3DycA2HNnPxPx9Qcy5VqPnV/LA3eAIMyQ8ZeAMptOsacw/JSb4IRbfLSqRVB+lELu33ssVYEW/fW4aoluTNB7blWv2xXV+21a4X/GRnZdtyf7kklViN0bOzDEW8aLom5ALVJz9z0KIFOA/WlhVumR0KYxGWyQKeoWEJExp56JAfI1IFA2yid1HN22UPpov43eajN2zkTZd9rF7VWjHtG/qQ/KgGzTima32oBnsUWsZtiMe2kKro/blZ61r7XXlf77brqyoicTOkDyU1OyVi9qsUJxCbYBGs9mtrtY3+fHLq4ad5myTNY3xLdFMXUvy04W3EKtb0/+mlmizEuVdgrvt2Vzxd4d1b1eUZuWqQWYuXoHvVuLytK0zyx1ptjQcR9BQQVfansdI4MrFwbblEXRJQkp/eR6rlsSyYRLBTQc7CTXrYPVy1ehqULFuBITx82bduKoUwG6VSaDTlCw8TyVNTAc6ktrL+qcjB9NXjVpyWrovq+rVKNER2rY6yRkAjaVqs32i+8nZ7oOHt9nW9Fv2uve65ED6z1rEBPLrjGDAUYdYVMtFxRN9uIcB8NrnmCroowUR1/m33VqbV4rlLSn9ZNFw2vwZ0jMl4ezr7wbnj9iSQg4TFeN6TuoXpv8opNVw8rRtVK0apaorotA7pH3qvPH64R7mX52XqUKA8W0ovaurSkVXu8FUG6J7F6YM//RWDTrtUvYez1JbZ7rVZUh7Vi1ERlIzHFx3ZVLVt1zZb1jJYiHamoy41eQiTsY7RCB5NOZoz3lOC5mmhCowj1lqmS9Qqb51A0+bZE5at0NQ5XEuL62PydK1GXorpT7b2ZdSqFlqbN1ByrctFSL2SblqTC4W+jT7pJ024oRt/0GoCG16jzu9puquXulfGoDqn+9dzN1BvXlaaegU8E76xxoIRqlUnLWjk1yMewcZfOkVhu19/YI1Sj6jv2meH9YRpyDR8NUuQt1gZ7ZpWHe6I0ZaCrO88z6K6MrzNSbqP3XKIHr0/0l+S1qW86O4TScJ95MTZY0fwi3pEsdHN78pg18sivwQnpYST5uyUUwZR4PWa3dAC9w6jPl7Fv+y4c6h2ALx4zw3XrmlpRyLGM8j4kpHDMRZrXLYbYnPSsRcpKD1YGxzRsKo7WhbF1b+tfx1jFqzUWtcfUYrxtFrXn2OvbtO2+0xX+dxrC+6GTESyzbDRFm6RaR0aYJ0+osxTNJpKjQhaomJ4OVvdTZ/UAXbMsBIzQUHoHVNPRpY7P57kS6ZuuLUdmQrF5q1ma53KmCLRuNlfzTTHFVT2OOys8UEvP6Rof0qORPLGMBK2fDJb47Dla1/LtzhsPOke2TFAaVqx+TQhdqypKo/ZPLrqsTtVV9/54jOmBY7mqfBRlFXgdiZljM8QzfBpGlkeA6wF9KUG9JCYl2ltdUsJD9aiByZjHMIpmpIvqxg7TcQ2Tj9W1WRvVnAvhf9X7ofCaRuxv7asRZVwLLWWnjc9XXTe6IxWRTpGLKiGWj3SL98YjTXtTe7Hnj0DnKv1qXeloPdPkBi9/3iHjYtzh/jpJBkrKoAQ3b96M/fv3jwwesUpmUbt+PMbm1AOLrbocPc9bV+ZlFLwG54mMufZ4Yi5FsakqLd6mWeeZ5v/zD8plyRg5z2CqS9EzkCo7EVt/KoNoayMODw0hk82gSDGjPuW1kXTUDaAZ1KP09pLlHFZNnWTek0pEIpjVMQOXrbgc3YeOkuzyaKmrx/aDBzHAs9KRMIKNTcgMZ9Hoj6AuV8LVC2ZgxuTJxk/ScGW9bqBy/8lPfoKOjg4sW7bMfE/PkpR1cmrFkpjWi2yc8qYE230pjNUTYSJd0TkS7ZcoXaWptCfKw0mlxDxyecrC4/Vtv3Kxei7Fm+NOg3d0jCaglpSR4/FZjaLUNpad9kt0nobW69uEFYqWEuO86Bo8RmmYY/n7nAvzUy4qPxTV1VhRXmuWGo2sOjWTbfP8UZGXzHyb5WjaGtFb5r0ZqW63eqF602+NZNO6XiHRb9Wl3W/1x55jRdtU9xp0oqX0obbbcCIdmgg6R9B5Wte1c7mcEatbY/Ng9MHcWzWP5hhPH0olG0l62zzxys+Wh8pK5Zav7ssVs96MI/kMDTqPYX6Upox7vsz2Q/ugLjwN4tL2PMWUu7lOyUzjxsRQKXhi8nSu9Yh5N/evNiFhfka3V/eZ3949Wx1iIcnT9fSD+3PMp0Zn59Rmqu1G92d0iemysEbSM/erfVx6vz1d0PO0g4cOYRO5SINHpI+qTzMicxx9INlWa70GqnAdPDw8jGeffRbd3d3Ytm0bPvzhD6OxsRFLliwx+yXKuPXsT4SqT+Kh9kKKQ44nIe+3/jd9zGNzVT20Uj3N7paKmC4+Qt2WIweeR1Ae9WeiTjNPoN90M5vhr1zmswXs6+mDvymBLQOD2HWwE+u37MAbh7rRKX2OJFBgVCbfLlLMoamYxu1L56KpXMCCWfNw4OARzF68FC1trXj48edQDoXw6OsbMBBPIptoRFEz0FPZGlivralB/M5d1+BDV6zAJDawgDFARUTCYXzms581dXnDDTcYYlP9jkdOtdA+qZCOFylefvnlaG9vH/G4JYKOkdjf40EGR+dJqTdu3Ig33ngDqVTKfJH3tFFVEJtz/dS6XQq121Q3xtPgFi2kZ97zTO7guqeZ2saaZLlpcIg530R4jHj5Q46HBo/4uDR17Z09kp5NkwVh6t1L8RzC5EnXq/42V9QPLs3FlT/mUt5jNTfaUuI96jS7zUR1XLf/m608xdtbhdx4baxCdkF44YUXjGHSayRWj7RUHdv1iaBjNCOMzp05c+Zx558ulJbOkw7KSX/mmWdGiG0infTulPfBhb0zLb2y0f1pxZYd0+GqPjUjLTDfWNN5plwUc2lgEfdwm8pTjx5UBEG2a+mTSYdGWn+C0RmtyHAzCelVkAkG6UjpOkX+pw+UmkufK5hsKdDQhWwevXr17p8w+ZTjLVTLUfpf3W8GAspBN3VW3cqDTXvRFt2bkjV7qI3caNJSumbFa0OyC4c7O83IyD/9r/8V+WIBjfUNiEWjpvtyLMYd7i8jJQ9JQ/z/+I//GHfffTcWLVpktmvo/4oVK0YITQqj5fjQBb0bkiiiGhX92aX9Gz3juB9WmIzuQavC6C4vzdE95xtk4iTMp2qO2ZSCS0zXczCAhmQMISrE9GQCK6a1Y/6kZrQ1NGBoKMVyTyNbyiIQoZLokz40FDM72hD2BVHfNBlPvrQOm/d34jBJYF9PJwKNDdjZ1W1mLyn7NI4tzAiiyAgtj5iP0d68aVg5swP11KVwgfVIzVFjfeSxR82L+HpJW/VvDcHJxBow6UE8HsesWbPQwHxLJ2oNkNZPZpCKVQ9e5yndvXv3GgOk9E8lHxOJebBdsz7hNtaOJa3qLxYKr10VrZvfyo+MC0XdQXrnTS+g+ir6jAu9VB6jP/qbFJJENTVdQ8IbUiMb+X2uxcvNyf+U51ox3UuK4q1Ut9kyGHv8qIxe12LGjBlGJ2r3WZ0RarfXioXIZ+HChUgmkyPnncw5Gg/SK5GrdbQGBgbw5ptvGh23aY6XB09MdY0Iq9Kz6UaozzVL7dfPEd1h2n4j1H/uk1NbEfGRoHwa2q7nTITZxwbo8Rv/o4yWv8reS09/0qsi9VROrvnjsedUzFXtn67u6bPu04jueeT4qh7U7Nd2HeSVA21NVeQEet/w81Lz/rjG42vbpxXZhxQDrQI5SM6zyCwWiyIUDI1rV06I2FTREhmYt956C3/yJ3+C++67zyQuYrv//vtxzz33mMSkJPZYh4lh9LUqpklyxVaFylVlqAel6pYoqFuCv3tIaIV4Am/1DOGZbTvwwNpXUalLoJ8RXQMb5E1LFqAlFEbbjNn4/k8fQWeWUXZd0rw0e+nSZXhh/WYzGXIumKD3SLIgISZKQ2jOD+I3b78Gn75qFSZT4aJZr4mUgsDvf+lLpvtHL0CGGPWl02njMb+dIVH+7TG6H6sbpwMprj1H6VlDpO2xmIbJOLxbIB0SGan+bfvQuuRMdEvnKx1BeiWdUjrqCTiT9M4UutZ4sHlzODnUi/PNb34TX/3qV03dSUdkn8Yr1xNq1Fa0PKUowzz9VsGL1KQg8naskum33e9w5lBZqhzlpSh0MiPVSDYbX3kD2a5efOSKlfh3H/8opjLEm8zIIDjYj9zQELLqq1bXQGM98voMCeusP1cwM//r44WsSdN3LS9KkaH3sicdFy71REzvCOoz/4Wy9zxNZKbpj6wnK0KxkddYqfWC9VvrtfdyutB1ZHB0faUhhVU+rA46efeI6l91L53Q0uqH7Iz07kyg86yOq2fB6vZE+n0uZCKMd6yT48XaBtWhfTRxskcU47oqSsiSlpbW0MjISNG0vdbzccT2i8GWnx6QqqEJg8cGzMcvVyyYhhefewmxwR784Wc+ji/96r/BjHgIk8J+1Af9iIX8GGCUNUx+8zVOQjlWj4JGGPmD5EhWr9ImAQZJaEH1iVAssWnewgLthj8aRjgSNYoj2HqXEk1Ut9IDKZZ0QJDBEHTemeiDzrFEpqixVv8c3l2QLsi+WB2UbmldbcPq2elA9kvnSr9q9crp1oUB2Rhb9zbAkkg3JsIJxKaDJSIywRKX3W7Xa5XMeusOpw/NNadKUrlaUeX1Husl8eTgo6Ffsmgmfvazn2LNk09gUXMDPv/BO7GkvQ3BVAZhRmhxXxCJYAyV4RwKeTocrJuiSI3Vq+d4mpBVs9GHGe2F9Tl/EqjnP3oEZOqW5Kd8qN6VB0F1L5kIOk9KJ9G5luROds5EUFrWmFlPTPk4k7QcLmyozqUDWlqbY9elH6cL277Gpiexuu5w/kJ1JFE9ju3BmQjjdkXaE2or3W6zS3lBUhKJ7S5wOH3ovQw7K3qo+sKhHIYpU6eiZ/gYdh7age6hbkxqjmPbW6+h1N+NpVPajDSgjATrKDicRbToY0QWZb3Qu2V6JUZmPj+9XYrILFzMIFYq8LiCN/EorxNUFyXthF66FOSs2DpVfvR7Ikg3pAMyQMqv9YrPFDpXemTTtcpcq4MO7x7YupdeWDKTXpwppM9yvKytOhOCdPjlQPZF9VfroEhOhhM0RYokBao90RoXu90qmF3/RQyaA8txZCgJoVUWb3NzE+bMmImOpkloikawZMYMfPTWWzGnuQUdiSjakgmsXDAfS6e3IVLKI5jNIFhkhKeITJ/3J3MVsoMIFNOIM/aLk9gmR4K4ccUlWDTdmwA5wmoNkhDNi8QaVsz6VF3X1r+WpyrSA4nWTxc6R9eV4VEadmnTc/LukfH0QetWThc6x+qS1Se7rn2113byyxGL8bZbMrOOb229TYQJtaQ2cStj8XaJO7w9PKehGpXUlLVmk2+IhDG9vgFXzp6Pj1x3E26/7Eq0xxKoY5G3NdVh6fyZmNRQj3ZGc8j0I+nLIxEoIs8Iz5cfQmOwjI54EP5jRzErEcZ/+c3P4tc/8F4snzIF8VIZgTwjM71sQzWw17Xydhh7/KmcczKMTceun4khc7iwMVYXzpadqSUxp1cXFmr1weJkOuFq95cNEpvIzRCcITmvwvQV2hZ/GC1lYFogiYWNbZgcSpiv6SZCUUTYMMOsPU2/dudt1+HSJdNIbMPAQBfmNMYRJ9G1VDJoK6fw8Wsvxf/z7z6D2Yz8mgN+REtFL1oLRPifumakIL+44XBwcHA4H+CI7TyD6MXPPz33Cpc1YSrMjN++IvdpEJBmLqnQ4yTxBfwV8/n56xbNx6duvQ6fuGE1LmlJInDkIGaHffjI6pX4vbvvwm++/2bMiEbRyNMbKPrOlj7jrzcFeLonDg4ODhcJHLH9smHCaS9aqsZr3h83mdkeNLqRUdYIuEPPvYMBfbQSiFXyaPLlcU17Oz61ehV+/wN34r2LFuI/3HUnfuWma7GyfRLaeFwyk0IslzGf8Q+UyZAaHab0mE6FYZ93bQcHB4cLH47YfskwtEaysv3FlZE/BlL63EUQZl7JLMlML1SXAjxeX0JmFBcuFxErZtBcyKGjnMf0XBo3zJqJGxfMww0kt3ZfBU3FPBLFIhr8+ipyiZGaBocwAhRZKm0uvEH6Dg4ODhcHHLG9QxBtjVvYVVKTaHYQQccpatMUW5oXTuSmx2Gai7RU1rs4JL1yBaFAGBF/GFF/CHrzqyEcMwNLWoJBNJL84jywIRyBL59DNOS9d6huTs26bWYG54V8TFuf9veo1MHBweHChyO2dwDiq+PkhA0Us/AxiBqVAKsnSObRABFJiBImuYUZyYWCYZhvYfkiFNGaGCpoZhzRxy5FlEESmWZuD8fiTFyhXoiLCAIhbwYZP5lUnZBGqnlwcHBwuNDhiO08grjlVMX7n2QlIWlVNNGxhjBXZxwx+2tPGNk+ut/ucnBwcLiYIAvn4ODg4OBw0cAR2wUK+1zudMTBwcHh3QBHbBcgxiOttxMHBweHdwscsTk4ODg4XFRwxObg4ODgcFHBEZuDg4ODw0WFs0JsdhLficTBwcHBweGdgovYHBwcHBwuKpw1YhsvUpM4ODg4ODi8k3ARm4ODg4PDRYXTIraK+XAXozAFYiYY8z53og+glOyHvSpWRg/zzjs5Ro/15O2ho6rXHBEHBwcHh3c7TpnYyiSSvI/0FdCkuaS0sg++ig8Frmd8ZRR9RVQovkIG5UyGJ5R5jvaXUKxQygXk81mUSgXyXhmFHJcl0hP5SD2WoiV9PiVPMd/T1Ozz3KHrHi/azjWJtphEqglxi4ODg4PDuxunHrGRzUw0xTNIaeaHCM6LmxixkVhKJdJSMIBANEoiq2A4n0euVEaeZFYi+QRDQaWEUrHEc01q/Ffx1vifpSZvWZ0to3oYk6tu9zZ4f95xnjg4ODg4OJyFZ2yiHyUisjOER/Yp5AvI6jPPoRDKPj/JrYIsySyvSI1EJyL0G5LzqMmKpSiP0vT/qOga3nXErJLqzPbHiXemg4ODg8O7F+KK04LPhkaWcwh1LaprMBAIwsfQStFXJeBHmttz+kESynN7huRW4TEIBg3BmS9rmm+ClZkRkh2XQS4DPMUjsarwPx8vPEp8o3/6GKe6PL0jHRwcHBze7ThlYhshGfPrePhJLkE/IyZyVSqdRs/AIN7ctRvfe+BBPPDUz7Hn6FEEI3FGcGEU/H6UKCK+IhPToBM9S9NzMn9VDFWJDyVM38f9Hn2NioU9xoDrDg4ODg7vbpxWxGaitcootY3wCImnzGgMpQrisSSaJk9C6/TpmLp4Cdbv3I1/fegRPLLmFezq7sUxHpfi8TlGaormvO7JIqWAYrHopVMkcTGtsrotua9cLqDEZalcFW0rkRKLjA414oSi8SMODg4ODg6nR2z8U3BlKI38Zjku4PMjHAzBZ77kHEQ6X8bR4SxS3P6JX/0srrjxZqzbuRf//OMH8NjLr+Bg/yDSTCJTriBN8ioy4stzWSLJeSMeS6iUKVzqiVyRF9XoyxyvK8lzW4H7y+r2JMGp+9PrAh0VBweHk8O2FeNQsu2V2Jb0W+u1S+3X0sHhQsHpEZsedpFAvB/eKMXqqtluRtwjAH8kiF2dXfjhY0/ipy+sQZ5R3E0feB9CrZPxyEtr8cMnn8H6HbvRk8ogS0LLMRslkqIGmuRJWCWGhiUfG1XAZ7ouh3iltD+AFGWYecjxGlkSXMXPC+q4SsE8g3NwcDg1iKgskdmlRGRWK7XbRHAODhcCTp3YyBvHPc+qgQhPUZu/4qfye9FVmtHW3r4+/GzNevzTQ8/gqQ3bsPy6G/DBuz+MYjyOb9z3AH7w+FPY03fMRG8IRTCY4ZmBMEnNT0IDUrzoABtWxhfEkUIZL23fg5dIiAfTGeQDIQwrqjODIcWoanSO3BwcThWWqNR+te6nE6l1kZiWdrsg8tNvB4cLAadMbFLpWmIThYzQiLoRC2oA1cH6TDXIqC1LsuouVHAwU8RDa97Atx58CrszwDU3XY97/s3HcGBgGF/7l+/ipY2bcCSdhZ+ElyeppZheiunkGKEN+oPoJLGtOXQE//DwE/j6g0/gvlfW4VAuj/5CwXRN6np6Rkefc8TztOLg4DA+QqEQCmxDgUDASDabNaSmdRvFiez02xKfg8OFgNPQVD1h88jNMFr1h5w4JeIjIbEFGGIjdxliSnNbpb4ZPeUQDueBdXs78b8fex4/XLsVQ9E4bnn/7Zi2eCnue+xJ3Puzh5FiuoreRGhHCyVsHcrilQNd+OufPok/+/5D2JwLY/1ACfe/uhn//NTz2NLTj958Ed1DxxjohcYlMkdwDg4nwkZgPT096OrqQiqVQiQSGel2zOVy6O/vx+DgoGk/4XAY+bzmBXJwOP9xBi6YGM2eViUMdVtoyQbgdVf4zIAQhKPIBsIYUN9kshHR5kk4xsDuiZfW4i+//SO8vHUvlly2Gh+75xPYums3tu/Zi0owhBI9yT3dffjXR5/C3/3wYTy3dR/6AnU4VI6i2DIdB/MBPPH6Jnz9+/fh+Tc2IFrfaN6LU24siTkyc3CYGIq+RG6xWAz//b//d3zrW99COp027VfEtnHjRvzpn/4p1q1bZ6I1EZ2Iz8HhQsAZEBsjIA3YMGuGzvg///QeW8VnptzSvgKJRVJiFMfWgzwvNczoSiMhs4EQ+klwP1/7Gp4kyUXq67Hs8ivQOTCMI5ki1uzYix889SyefG09jvKcFMnxWMmHUrQeGX8cmUAc5UQjIi1tGNZ2XtQbyOLlx5Gag8PJYduIiG3mzJl44oknsGnTJrNNUdq3v/1tQ2r1bJsiwGAwOPK8zcHhfMepExvbgYbUKyojl1RfruZ/2k5C01RXJb8PhRAwrONJaJpFpFwuoqI5JItZBnAhhKIkuWAUw8EkjiKMV3ftwd7uo8iFwuiphPHQa9vwPx97Hmt6elFpn4QhUmLRl0WUzmKkmEckXcCCaXPRNm0O9wEDOW4jqUYQqNKaw6lCxq3WCZAB03MWee1alyFzTsLFCTtARM/ZPvnJT2L58uX46le/ih07duBnP/sZ9u/fjz/4gz/A0qVLzTFWD6QXWs9kMkY/pC8Wivi0Tc/tbJem/S3RuVoODw+bCFBpWJ3TsVq32xwcaiE9Uld4IpEw+mL1cCKcMrGZYSHVdLRQhGST9TFiKpW8yY6Leu7GbTk9lCaphfTAORiAP6g5JLNI5bLI+sIoxhsw6Auhj5ntyZdIbEEcGUrjtR374Z/UgeFIFD2pFDL5FAK+AnzZASyfMx3XrliBUjqHbXv2YOuhw+hOD3O/R6wmctT6OPJux9uVgwyODFhdXZ1Zt4MGHC5OKAJTHYtgGhsbcffdd5v6/trXvoZ//Md/xG/91m/h1ltvNUZEBkVR3F//9V/jAx/4AK6//nr8xV/8BTZv3mzSGBoawne+8x2sWrUKN954o1kuWbIEixcvNtuVhkhz4cKFuOyyy3Dbbbfh6quvNse9+OKLx+mZ6+50GAvZI2EFbf8Xv/hFoyNvZ9NPPWJTOhSR2QhPcsVEa2TOACVCcipo1hDuaOSxET33StOj47YyIyozE2QgyqtGkC9W4A8EkaQhrYsE0FLHKK6/Czu3rEeMhLhqwSIsmzEH01smoSmRxIIFC1FkCtt378L+3qPIMkoLNzagGON5BX0Wx3l5Zwp5PiI1eUHynPXbevTOKbg4oXq1z83kDStiu+eee/DQQw9h+vTphtTkHTc3N5vuynvvvRfPP/88/vZv/xaPPPKI6bb8zGc+g23btpk0FGlJhx588EG88cYb+MpXvmIiOJGiztdAlEOHDpn0n3rqKfz5n/+5OT4ej5vr2+hOOuhGXzrUQvbIOttz5swZ0ZOTRfanrUHksREoghtJgA1FGfDzYqQuJLge5Xo8HEEoHIbepeYmklkIkOg3zy4yw4V8DqnBPkZ4WXQ0J5E+0oW+nfvRFIzhssXLMGvaDAyyYew9cBAHjh5BORJGnhfuGhwwEy37w97EyrV5czh1yKhIpDwydvLmVZdSIC0dLj7IKNh6VsRkiWnq1KlmhKQISZGWNSJPP/00brnlFrNf533pS19Cb28vnn322RGPWsfpmZx0SNskIlBtt0tdQxBpKh1LaMqDjlF+dJyDg4UcJ+lHra5Id6RLEznep0xsMm+13Y860a8fFDPUX0pZLCERCSHIbSKyBH+Hs2ww+SziZMEI81AushFoPshgmBnlaUxJ80OaeI4ntjTEcMnsGZje3ILDO3ZjqKcPG9dvQN+xfmQ1XyRJLMe0JCU1TN5crszfjNoczgwyYjJCH/vYx/CpT31qxBA5z/nihgyE6l7QszV1Naq7R8/AHn300ZEh/tKDDRs2oKOjwxgZGRhFdUePHh2J2KQz2i5Id2SAtLTp15Kf0hWByTjpGJGc3S9jZdNxcBCkS9KVaDRq9Eb6qG0n05PTslyVcaI1bdKExCWjyDyGJJUdSmFmczOuWrgQ00h0icwgIvkh1IeBWJAHlajEJlN+/gWMooeZaV+Q3hwbyYrLL8MMeoYL58/nzcQY4AWRZfoZSkXdnSVGGOa9uSAbDhnc70M46J4HnSms53PNNdcYkTGyRs9FbBcvRCYyGOomVPei6vxXfuVXcNddd5nnbCIt6YVE5CVdUDSn32qz0htLdPqt7TI41vAI6obUdWSUtF/7bHSo8+wzPF1bIjidc6iFdEa6Y50sycmiNWFcYpNiWeWqXVYYVenba+Ykba+KTxfjhQqFHAK8Vl3AjwWTJ+Ozd74fX7zrDty6cAZaC8OIDvciWckiHBCpUfGp8KnBFEOGEobSBQyXfThW9iOVHcKlq+bAR1IsMa3hfA4VNqBQPAYfr2M+MsokgsxJIkji05cA9GxPeRwjDm8PKYg8aRkpGSIpjX6/nfI4XLiQcRCRiFxefvllvPLKK6Z7UYM79Kxt1qxZ5rciOZHPnXfeibfeemukm1HP0ubNm4fVq1ebCE8iklSa1vCo/elYGSQRom2Peq4m/dJ2EZ7OsRGfjegcHCykT9IL2/1oozXZpols/AnEphMkUkh7kseWOY05RDaXMVGaJj0uMFoim/D4EsmtjGgsjCBTbKBxTFJZp9dFcPPCDvzmB27EH//qx7GsrQ6hVDcS5QzqfGXUM/pKhCMokKgSzW0YyAewvasPf/29B/HN+59BJxtLSjMrx6I8hjzIaLBYUDcZGbxCISEGSWi+kt8M+Ve3qCOzU4fq1Ro4kZp+a90aKEdqFy/UxkUsTz75JH77t38bt99+O26++WZT7y0tLfj93//9kUEjGvWo0WgHDx4023/v934PDzzwAP7jf/yPWLRoEf7mb/4G999/v+nKFsHJCAkiKD2H++Y3v4lXX33VjLwUkem6OkZGSutqs9ZQ1dodh3cPVPfj2Ru7XbpibZIluInOEQL/haiuG1hik3JpiK9e3PzoRz9qlDSXy2LPnj1Ytmw5/CSjIKMpMWOJxBZQFyN/+PVFbHlsXEb4O87N5fQwYv4S2qe2mQ+MDqazKJGUQvT+6nwlXLpkDlKZHAaKPmzr6seQujOLBfQOHEPdpFYc7OtDkUQWDCcQ9kXN+3T+SgGxYhaXT2nHTTNmIKq2EFBUOVoYJ7txh+Mxtsys2H0OFxdEIDIQr7/+uiEnRWnWoZHoeZpe3Fa3ofY3NDSYbmpFXiI+EZ2IUKS3a9cuE719+tOfNqMo5SzJqxYxrly50uiP0tAoSp0ro6TITzblkksuQVtbmzlGZKdry/5o6eBwpvCRwI5zj6RUtg9cJPYbv/Eb+Pf//t9T8SooVYpIDafwK5/+HAJ6MY3BlEgtFPaTUBi9mdEkMoIBEqOnmNlsjtFWBc9vfBXpZByZhsk4mgNe3nwYB7bvRPboIXzu4+9DuuzH64d68Py2fWY6rhAjwGI2heWXr8Irm99CLs/kw/UIFSLmW21+H6O+Qj8+f+VK/KcbriNB0usLkJSZE2uUrTg4OBwPtXOhdhSsttl1QdGUyEnbJbYtibhEcCImHSvRedovQlP0r3N1nI3IdKw93x4nG6MIT0uJoONEuva3g8OZ4ISuSCmdugukyO3t7eZ9FCnmK6+8iqVLlhovTQqrL1frWI1qVDPQbCQiFVGLPmft5/kBHhMmYYUolXQGHQ31OLRjC2I87p6bV+LzH7wRy6d3IMZjIySmfFr98ECmUES2wgSDYUZqagTcGAjzIn6UcwUvYuM1dbUCM8LNqJBUvebo4ODwdrDkJEISLPkoUlLkZMlK76LZSEpLPW8T8chG2KXSkjOspY4Rmcl+KJrTftvNrf06p5bgtF/X1bW0X0SrpYPDL4ITNEiKJ8WUomkWissvv9xsUzdkQ2MDWltbyVtl6JGWojj6cebr1xUqqXxAj14M1XHheYBvvL4RrQ2TMK2lA/OnTMHTD/0Eb72+AdMbm/DRW6/F8mmTEc4NozERQjjINNmo2KwQjiQZUgZREkH6w/AzyRAjxaCesVH5K5rCi5Fd3kc6rc5f6eDg8PYQ8WiYvdq6oie1Uy1FTCIaG6UpYhOZGSeWouO0X+eJsERE2p5MJg1RKk0Rk47RO219fX3mGInIUgQpUTpKX+tKXwSqdUVqlvgcHM4UJxCbVVwpuBRMyqbfUrhIKIxEXIqr/nApPqlExwQZSVFpRS0iF+ml1U29trb68pUYGkxhx/btmBRNoo47t76yFj17dmL25Ga01idRGOxDW10cpeFjiAc0OMRHXmQDYdQWAhsDfwd4vRjz4yvrXbgc9wHxRBTkPhR1ZdceHBxOCSIxiYhLUZNt7xKtW/IRIYm0REq2y1DnaWSjCMySkc7RcfZc7ZNMmjTJkJ09XiJHWUulqaX26RhLpo7YHH5RnEBsUjarcIKWUlaRmMiMOw15BTT/IwkoEPDmhuQv0Y/5X78MyzAJRVJavWb15ZjfMRXl/n5cP38BPnvre7B86lS0MypMkLyWzZmPy6d1oCWbQrJEL7JUQLqYR5aK7q+SWSSQR6jUj2S2B0sSAXxo2RJcM206QmwoZR6vRmHz7+DgMDHkrNo2rvZiCUqw6xKRjn6LbHScltpuyUf71O5EghbapmO1XdC6rmXPrT1H27VfIthrOTj8IjiB2KRYEquoVuFEbH4NGPFxvyE1rvJsHspEfAhqlKSJrdQ4tJOif2HFcZoMuYKOZB2umrcIn7j+Rlw3bx7mNDYyOmNEGIhg/sx5mFGXwLxYCC08PlIpMNUS060gWC7Clx1CrDCEegzi+nlt+LUbr8AXb7wWV7W3I8r9bA7MrEdsDg4Obw9LLBK1eUFLS3i1sMdIRDwSe35tOtZu6DhLgPYc7be/tc/+tufb4xwcflGcqMEnhZSuqngnrB7/Rw01O7wJQuipkQzDVOBYMIQkJcH1KBVZzSDM4xrCwBQS3a9+7KO4bvE8TCO5tWaG0ZJJoX6oHzN44PxkDB8nmX3+/e/BbUvnYkoijHiwgmiYDcqQ7GjDc3BwcHB4d+I0ie10QY9MXpm8MYZ4Ih1/SBGfZibwIxryGVIjL4GrqI+EcNXiOfjih27Dp6+4BNe11GNGagBX1dfhY0sX4Su/8Ql8/rpLsXJyAxqURimPqLo6GdmVSYQB0zVavU7VG3RwcHBweHfhhPfYhNpNWtfsA2vWrMGXv/xl8zBYhGFJwx47EYmUzehIXYhEU92m3zpL52pkY4nn5rieLfFYklO+VDEzjOzZcxDRaBgDx4awYtlCE5XpOpYM/T7NOZnztpvYT99yOsdc7eDg4OBwXuMdYAHR2fikZwivXEagUkaIFKjRkKFyEc2BCpoZga2cNgmrZrTj+oVz0FgqI5mvoIHn6DtvwUIBQQZrfp/eo9ODbT2ErpJllWwdHBwcHN59OOfEphe4zdyOY7hNb735/aQkkpqvUkLQkFsRgVIBvmIOMYZlEX/J+wp3pYAwl1ENJCkWzPAUbzIvpu4LMqUg40KmWCU1R24ODg4O7168c/12YrYRdquSDsmMrKZ4ixnRN7YriIX0HI5bGLWF4hEzuDIYDXFbEObTAf6gR5Z+jYPktopmAlcXpEZgec/VJuoWdXBwcHA4/zBRMGK365UzTQCgpSYH0LuQ9nWS8fDOP5AyBFddJ+xPZURTTfr1Yja3FLijQCIrBvwokcQqXK/4/WYSZYZp3onmzOo4TP4eKw4ODg4OFzZEbBoMqHcvZde11ABBu288nHNis/RzHPQOgNmh/5QFb6lIzPutrsWqMGQr8qaKJLeSITfejISn2FvyCHGc6zg4ODg4XPAQgel9R816o6jNbpsIYpFzC13bynHgpQ3BSci+VfFR/AjwL2j+91F0TJmHabJjidYltbl3pObg4OBw8UFRmshMRKZITdO8nawbUqihhncIYiAj/M/K6EYjorMoQ7IwRYP4vaDTg/jR4+tR6CwHBwcHh4sTIjWRm56t2ZlqTva46Z0nNsIEcMyTvghQKyI5/flLFH3ejRIgi2lYf5A3pgEmejPOozbupPiqS7PtJKGpg4ODg8OFBxGaIrVDhw7hscceG5m27WT4pRDbCZiAeLXZCP/T22pe76OW4xEYt02QjsP4kBdkxYb6VhTqS7Tu4ODg8MuCtUGHDx/G448/bmyV5GQ498Q2wk5VqVk9Tmp/KFfqf5RUc6ih/PrznsB562awychzOh2okx1OB5bEpCha2u9zafl2/dgODg4O5xp2ikR9Xkk2yf4+GU6+95cBS2xWLNmNrJrOSiPHHyhxOBOI3KQoGzduxPr164+L0txrEw4ODhcaHBs4GPLSQ1nNCfrjH//YRG/qx3ZdkQ4ODhciHLE5GCjMHxwcRFdXlyE0yak8pHVwcHA43+CIzcFEZXYYrfqv7deV3TM2BweHCxGO2BwM7EgjibomRXJad12RDg4OFxocsb1LIIKaiKQUnelT/bWjjWxXpBs84uDgcKHBEdu7GCItS1wiNUt8Ijeta+mIzcHB4UKDIzYHBwcHh4sKjtgcHBwcHC4qOGJzcHBwcLio4IjNwcHBweGiwgnEVjtyrnYkXe26g4ODg4PDO41T5aCTRmy1M1C40XEODg4ODu80zoR7TiA2JSIy08u5GgKu39ls9pRmVHZwcHBwcPhl46Rdkfp0iQhNEZubXsnBwcHB4ULAuCGYyE3RmY3cNI+gg4ODg4PDhYBxuyJ37tyJtWvXIp1Oj3RHuoEjDg4ODg4XAk4gNkVpR44cMZ/hFiyhOWJzcHBwcLgQMO4zNn2ba8mSJYjH4ygWiyZiU+Rmn7NpOfaZm85zcn7LePUkqC61rqW6nm39jj3WiRMnTs6VWNjf4h67bh+H6ZNa1j5JJsK4Edv06dMxbdq0kZGQMna6iBLXRezISf12nza5MKA6mwiqP9Wn6ltilckqloODg8O5hmyQ5Rq7brfbpQY01vLQRDiB2GTY2trazMn2/TX74Um7lGh7beLWGDo5P0VKMZHY+tO6loLquPZ8J06cODlXItRyiaBPaQm219AeKx6yAZU9Zyx83HmCS57L5Ua6HjOZDB577DG89NJL+NKXvoRYLDbi2Qta6iIyhA7nNyZSAqmA6vBP/uRPMDw8jL/8y79EJBIZ2efg4OBwLmFtkHhEvCNekb0SF9lvRb788su4//778Xd/93fmWO23x43FuMQ2MDAw0qepqO2pp57CAw88gFWrVhmDp1NsgrqAMJHRdDj/ofqUMj3yyCPmZfwPfvCDI0rjHBYHB4dzDUtDlthkf8Q1qVTKjPWQXVKQpZH6X/jCF4xtEjfV1dWNa6NOIDYR2tGjR81SCatPs7OzE/v27UN/f79JrLe31yRcX19viE2Mqsw4nL8YU83HQftU14rWVI8NDQ1Gkayz4pwWBweHcwnZINkZLW3kpt8HDhxAR0eH4R11SSq40vgP2amWlhYkEolx7dMJxKaTJSIrGwYeOnTILFtbW43xe+WVVwyprVy50myXOFy4kJLIkZEySYFsmC/VmCjUd3BwcDibkL2xIvT19eHpp5/GwoULMXfuXGOHxEVal12S3ZrIPo3bFakTag8W0ekwa/QUHipBhYiuq+rCwckISnUu2GO0HEc1HBwcHM4JrO2xdke8Mzg4aF4/k9htGjxSi/Hs2rjE5uDg4ODgcKHi3UdsxV7s3nIQQ9VHgj6fH/5QAi3TZqCjLuhtfCdRHsC2n/8Mz25PoX7hjbjzlgWoq+56W5T6sGfzAQye0uNNP+pnLMXspl9mhF3EkVefxK7223DNdG9UrYPDxYpS93r86OvfxP7r/wp/cJM3ytjhnQDw/wM/YIACG7RiwQAAAABJRU5ErkJggg==;" vertex="1" parent="1">
          <mxGeometry x="20" y="85.75" width="808.78" height="454.25" as="geometry" />
        </mxCell>
        <mxCell id="C-VpQ8A-bRvzqyEVXN-c-3" value="" style="shape=mxgraph.cisco.hubs_and_gateways.hub;sketch=0;html=1;pointerEvents=1;dashed=0;fillColor=#036897;strokeColor=#ffffff;strokeWidth=2;verticalLabelPosition=bottom;verticalAlign=top;align=center;outlineConnect=0;" vertex="1" parent="1">
          <mxGeometry x="370" y="220" width="45.52" height="40" as="geometry" />
        </mxCell>
        <mxCell id="C-VpQ8A-bRvzqyEVXN-c-4" value="" style="shape=mxgraph.cisco.hubs_and_gateways.hub;sketch=0;html=1;pointerEvents=1;dashed=0;fillColor=#036897;strokeColor=#ffffff;strokeWidth=2;verticalLabelPosition=bottom;verticalAlign=top;align=center;outlineConnect=0;" vertex="1" parent="1">
          <mxGeometry x="130" y="269" width="45.52" height="40" as="geometry" />
        </mxCell>
        <mxCell id="C-VpQ8A-bRvzqyEVXN-c-5" value="" style="shape=mxgraph.cisco.hubs_and_gateways.hub;sketch=0;html=1;pointerEvents=1;dashed=0;fillColor=#036897;strokeColor=#ffffff;strokeWidth=2;verticalLabelPosition=bottom;verticalAlign=top;align=center;outlineConnect=0;" vertex="1" parent="1">
          <mxGeometry x="640" y="220" width="45.52" height="40" as="geometry" />
        </mxCell>
        <mxCell id="C-VpQ8A-bRvzqyEVXN-c-6" value="" style="endArrow=none;html=1;rounded=0;exitX=1;exitY=0.5;exitDx=0;exitDy=0;exitPerimeter=0;" edge="1" parent="1" source="C-VpQ8A-bRvzqyEVXN-c-4">
          <mxGeometry width="50" height="50" relative="1" as="geometry">
            <mxPoint x="160" y="290" as="sourcePoint" />
            <mxPoint x="210" y="240" as="targetPoint" />
          </mxGeometry>
        </mxCell>
        <mxCell id="C-VpQ8A-bRvzqyEVXN-c-7" value="" style="endArrow=none;html=1;rounded=0;entryX=0.185;entryY=0.185;entryDx=0;entryDy=0;entryPerimeter=0;" edge="1" parent="1" target="C-VpQ8A-bRvzqyEVXN-c-2">
          <mxGeometry width="50" height="50" relative="1" as="geometry">
            <mxPoint x="150" y="270" as="sourcePoint" />
            <mxPoint x="200" y="220" as="targetPoint" />
          </mxGeometry>
        </mxCell>
        <mxCell id="C-VpQ8A-bRvzqyEVXN-c-8" value="" style="endArrow=none;html=1;rounded=0;entryX=0.087;entryY=0.296;entryDx=0;entryDy=0;entryPerimeter=0;" edge="1" parent="1" target="C-VpQ8A-bRvzqyEVXN-c-2">
          <mxGeometry width="50" height="50" relative="1" as="geometry">
            <mxPoint x="130" y="290" as="sourcePoint" />
            <mxPoint x="180" y="240" as="targetPoint" />
          </mxGeometry>
        </mxCell>
        <mxCell id="C-VpQ8A-bRvzqyEVXN-c-9" value="" style="endArrow=none;html=1;rounded=0;exitX=0.099;exitY=0.516;exitDx=0;exitDy=0;exitPerimeter=0;" edge="1" parent="1" source="C-VpQ8A-bRvzqyEVXN-c-2">
          <mxGeometry width="50" height="50" relative="1" as="geometry">
            <mxPoint x="80" y="359" as="sourcePoint" />
            <mxPoint x="130" y="309" as="targetPoint" />
            <Array as="points">
              <mxPoint x="120" y="313" />
            </Array>
          </mxGeometry>
        </mxCell>
        <mxCell id="C-VpQ8A-bRvzqyEVXN-c-10" value="" style="endArrow=none;html=1;rounded=0;exitX=0.099;exitY=0.78;exitDx=0;exitDy=0;exitPerimeter=0;" edge="1" parent="1" source="C-VpQ8A-bRvzqyEVXN-c-2" target="C-VpQ8A-bRvzqyEVXN-c-4">
          <mxGeometry width="50" height="50" relative="1" as="geometry">
            <mxPoint x="110" y="359" as="sourcePoint" />
            <mxPoint x="160" y="309" as="targetPoint" />
          </mxGeometry>
        </mxCell>
        <mxCell id="C-VpQ8A-bRvzqyEVXN-c-11" value="" style="endArrow=none;html=1;rounded=0;entryX=0.223;entryY=0.56;entryDx=0;entryDy=0;entryPerimeter=0;" edge="1" parent="1" target="C-VpQ8A-bRvzqyEVXN-c-2">
          <mxGeometry width="50" height="50" relative="1" as="geometry">
            <mxPoint x="170" y="309" as="sourcePoint" />
            <mxPoint x="220" y="259" as="targetPoint" />
          </mxGeometry>
        </mxCell>
        <mxCell id="C-VpQ8A-bRvzqyEVXN-c-13" value="" style="endArrow=none;html=1;rounded=0;entryX=0.544;entryY=0.185;entryDx=0;entryDy=0;entryPerimeter=0;" edge="1" parent="1" target="C-VpQ8A-bRvzqyEVXN-c-2">
          <mxGeometry width="50" height="50" relative="1" as="geometry">
            <mxPoint x="414" y="220" as="sourcePoint" />
            <mxPoint x="464" y="170" as="targetPoint" />
          </mxGeometry>
        </mxCell>
        <mxCell id="C-VpQ8A-bRvzqyEVXN-c-14" value="" style="endArrow=none;html=1;rounded=0;entryX=0.42;entryY=0.185;entryDx=0;entryDy=0;entryPerimeter=0;" edge="1" parent="1" target="C-VpQ8A-bRvzqyEVXN-c-2">
          <mxGeometry width="50" height="50" relative="1" as="geometry">
            <mxPoint x="380" y="220" as="sourcePoint" />
            <mxPoint x="430" y="170" as="targetPoint" />
          </mxGeometry>
        </mxCell>
        <mxCell id="C-VpQ8A-bRvzqyEVXN-c-15" value="" style="endArrow=none;html=1;rounded=0;exitX=0.371;exitY=0.362;exitDx=0;exitDy=0;exitPerimeter=0;" edge="1" parent="1" source="C-VpQ8A-bRvzqyEVXN-c-2">
          <mxGeometry width="50" height="50" relative="1" as="geometry">
            <mxPoint x="320" y="300" as="sourcePoint" />
            <mxPoint x="370" y="250" as="targetPoint" />
          </mxGeometry>
        </mxCell>
        <mxCell id="C-VpQ8A-bRvzqyEVXN-c-16" value="" style="endArrow=none;html=1;rounded=0;exitX=0.445;exitY=0.494;exitDx=0;exitDy=0;exitPerimeter=0;" edge="1" parent="1" source="C-VpQ8A-bRvzqyEVXN-c-2">
          <mxGeometry width="50" height="50" relative="1" as="geometry">
            <mxPoint x="330" y="309" as="sourcePoint" />
            <mxPoint x="380" y="259" as="targetPoint" />
          </mxGeometry>
        </mxCell>
        <mxCell id="C-VpQ8A-bRvzqyEVXN-c-17" value="" style="endArrow=none;html=1;rounded=0;entryX=0.556;entryY=0.34;entryDx=0;entryDy=0;entryPerimeter=0;" edge="1" parent="1" target="C-VpQ8A-bRvzqyEVXN-c-2">
          <mxGeometry width="50" height="50" relative="1" as="geometry">
            <mxPoint x="414" y="240" as="sourcePoint" />
            <mxPoint x="464" y="190" as="targetPoint" />
          </mxGeometry>
        </mxCell>
        <mxCell id="C-VpQ8A-bRvzqyEVXN-c-18" value="" style="endArrow=none;html=1;rounded=0;exitX=0.569;exitY=0.494;exitDx=0;exitDy=0;exitPerimeter=0;" edge="1" parent="1" source="C-VpQ8A-bRvzqyEVXN-c-2">
          <mxGeometry width="50" height="50" relative="1" as="geometry">
            <mxPoint x="364" y="309" as="sourcePoint" />
            <mxPoint x="414" y="259" as="targetPoint" />
          </mxGeometry>
        </mxCell>
        <mxCell id="C-VpQ8A-bRvzqyEVXN-c-19" value="" style="endArrow=none;html=1;rounded=0;" edge="1" parent="1">
          <mxGeometry width="50" height="50" relative="1" as="geometry">
            <mxPoint x="680" y="220" as="sourcePoint" />
            <mxPoint x="730" y="170" as="targetPoint" />
          </mxGeometry>
        </mxCell>
        <mxCell id="C-VpQ8A-bRvzqyEVXN-c-20" value="" style="endArrow=none;html=1;rounded=0;entryX=0.742;entryY=0.185;entryDx=0;entryDy=0;entryPerimeter=0;" edge="1" parent="1" target="C-VpQ8A-bRvzqyEVXN-c-2">
          <mxGeometry width="50" height="50" relative="1" as="geometry">
            <mxPoint x="640" y="220" as="sourcePoint" />
            <mxPoint x="690" y="170" as="targetPoint" />
          </mxGeometry>
        </mxCell>
        <mxCell id="C-VpQ8A-bRvzqyEVXN-c-21" value="" style="endArrow=none;html=1;rounded=0;exitX=0.717;exitY=0.34;exitDx=0;exitDy=0;exitPerimeter=0;" edge="1" parent="1" source="C-VpQ8A-bRvzqyEVXN-c-2">
          <mxGeometry width="50" height="50" relative="1" as="geometry">
            <mxPoint x="590" y="290" as="sourcePoint" />
            <mxPoint x="640" y="240" as="targetPoint" />
          </mxGeometry>
        </mxCell>
        <mxCell id="C-VpQ8A-bRvzqyEVXN-c-22" value="" style="endArrow=none;html=1;rounded=0;exitX=0.791;exitY=0.494;exitDx=0;exitDy=0;exitPerimeter=0;" edge="1" parent="1" source="C-VpQ8A-bRvzqyEVXN-c-2">
          <mxGeometry width="50" height="50" relative="1" as="geometry">
            <mxPoint x="610" y="310" as="sourcePoint" />
            <mxPoint x="660" y="260" as="targetPoint" />
          </mxGeometry>
        </mxCell>
        <mxCell id="C-VpQ8A-bRvzqyEVXN-c-23" value="" style="endArrow=none;html=1;rounded=0;entryX=0.878;entryY=0.318;entryDx=0;entryDy=0;entryPerimeter=0;" edge="1" parent="1" target="C-VpQ8A-bRvzqyEVXN-c-2">
          <mxGeometry width="50" height="50" relative="1" as="geometry">
            <mxPoint x="685.52" y="240" as="sourcePoint" />
            <mxPoint x="735.52" y="190" as="targetPoint" />
          </mxGeometry>
        </mxCell>
        <mxCell id="C-VpQ8A-bRvzqyEVXN-c-24" value="" style="endArrow=none;html=1;rounded=0;exitX=0.903;exitY=0.494;exitDx=0;exitDy=0;exitPerimeter=0;" edge="1" parent="1" source="C-VpQ8A-bRvzqyEVXN-c-2">
          <mxGeometry width="50" height="50" relative="1" as="geometry">
            <mxPoint x="635.52" y="310" as="sourcePoint" />
            <mxPoint x="685.52" y="260" as="targetPoint" />
          </mxGeometry>
        </mxCell>
        <mxCell id="C-VpQ8A-bRvzqyEVXN-c-25" value="" style="shape=mxgraph.cisco.controllers_and_modules.virtual_switch_controller_(vsc3000);sketch=0;html=1;pointerEvents=1;dashed=0;fillColor=#036897;strokeColor=#ffffff;strokeWidth=2;verticalLabelPosition=bottom;verticalAlign=top;align=center;outlineConnect=0;" vertex="1" parent="1">
          <mxGeometry x="401" y="390" width="24.73" height="50" as="geometry" />
        </mxCell>
        <mxCell id="C-VpQ8A-bRvzqyEVXN-c-26" value="" style="endArrow=none;html=1;rounded=0;" edge="1" parent="1" source="C-VpQ8A-bRvzqyEVXN-c-25">
          <mxGeometry width="50" height="50" relative="1" as="geometry">
            <mxPoint x="320" y="309" as="sourcePoint" />
            <mxPoint x="370" y="259" as="targetPoint" />
            <Array as="points">
              <mxPoint x="300" y="415" />
              <mxPoint x="300" y="320" />
            </Array>
          </mxGeometry>
        </mxCell>
        <mxCell id="C-VpQ8A-bRvzqyEVXN-c-27" value="" style="endArrow=none;html=1;rounded=0;exitX=0;exitY=1;exitDx=0;exitDy=0;exitPerimeter=0;" edge="1" parent="1" source="C-VpQ8A-bRvzqyEVXN-c-25">
          <mxGeometry width="50" height="50" relative="1" as="geometry">
            <mxPoint x="110" y="359" as="sourcePoint" />
            <mxPoint x="160" y="309" as="targetPoint" />
            <Array as="points">
              <mxPoint x="160" y="460" />
            </Array>
          </mxGeometry>
        </mxCell>
        <mxCell id="C-VpQ8A-bRvzqyEVXN-c-28" value="" style="endArrow=none;html=1;rounded=0;exitX=1;exitY=0.5;exitDx=0;exitDy=0;exitPerimeter=0;" edge="1" parent="1" source="C-VpQ8A-bRvzqyEVXN-c-25">
          <mxGeometry width="50" height="50" relative="1" as="geometry">
            <mxPoint x="590" y="309" as="sourcePoint" />
            <mxPoint x="640" y="259" as="targetPoint" />
            <Array as="points">
              <mxPoint x="560" y="415" />
            </Array>
          </mxGeometry>
        </mxCell>
      </root>
    </mxGraphModel>
  </diagram>
</mxfile>
